<?xml version="1.0" encoding="UTF-8" standalone="no"?>
<!DOCTYPE svg PUBLIC "-//W3C//DTD SVG 1.1//EN"
 "http://www.w3.org/Graphics/SVG/1.1/DTD/svg11.dtd">
<!-- Generated by graphviz version 2.43.0 (0)
 -->
<!-- Title: %3 Pages: 1 -->
<svg width="586pt" height="188pt"
 viewBox="0.00 0.00 586.00 188.00" xmlns="http://www.w3.org/2000/svg" xmlns:xlink="http://www.w3.org/1999/xlink">
<g id="graph0" class="graph" transform="scale(1 1) rotate(0) translate(4 184)">
<title>%3</title>
<polygon fill="white" stroke="transparent" points="-4,4 -4,-184 582,-184 582,4 -4,4"/>
<!-- He3CellLength[Polarizer] -->
<g id="node1" class="node">
<title>He3CellLength[Polarizer]</title>
<polygon fill="none" stroke="red" stroke-dasharray="5,2" points="198,-180 0,-180 0,-144 198,-144 198,-180"/>
<text text-anchor="middle" x="99" y="-158.3" font-family="Times,serif" font-size="14.00" fill="red">He3CellLength[Polarizer]</text>
</g>
<!-- he3_opacity_from_cell_params_He3Opacity[Polarizer] -->
<g id="node3" class="node">
<title>he3_opacity_from_cell_params_He3Opacity[Polarizer]</title>
<ellipse fill="none" stroke="black" cx="322" cy="-90" rx="151.37" ry="18"/>
<text text-anchor="middle" x="322" y="-86.3" font-family="Times,serif" font-size="14.00">he3_opacity_from_cell_params</text>
</g>
<!-- He3CellLength[Polarizer]&#45;&gt;he3_opacity_from_cell_params_He3Opacity[Polarizer] -->
<g id="edge2" class="edge">
<title>He3CellLength[Polarizer]&#45;&gt;he3_opacity_from_cell_params_He3Opacity[Polarizer]</title>
<path fill="none" stroke="black" d="M153.27,-143.97C185.89,-133.73 227.47,-120.67 261.2,-110.09"/>
<polygon fill="black" stroke="black" points="262.45,-113.36 270.94,-107.03 260.35,-106.68 262.45,-113.36"/>
</g>
<!-- He3CellPressure[Polarizer] -->
<g id="node2" class="node">
<title>He3CellPressure[Polarizer]</title>
<polygon fill="none" stroke="red" stroke-dasharray="5,2" points="428,-180 216,-180 216,-144 428,-144 428,-180"/>
<text text-anchor="middle" x="322" y="-158.3" font-family="Times,serif" font-size="14.00" fill="red">He3CellPressure[Polarizer]</text>
</g>
<!-- He3CellPressure[Polarizer]&#45;&gt;he3_opacity_from_cell_params_He3Opacity[Polarizer] -->
<g id="edge1" class="edge">
<title>He3CellPressure[Polarizer]&#45;&gt;he3_opacity_from_cell_params_He3Opacity[Polarizer]</title>
<path fill="none" stroke="black" d="M322,-143.7C322,-135.98 322,-126.71 322,-118.11"/>
<polygon fill="black" stroke="black" points="325.5,-118.1 322,-108.1 318.5,-118.1 325.5,-118.1"/>
</g>
<!-- He3Opacity[Polarizer] -->
<g id="node5" class="node">
<title>He3Opacity[Polarizer]</title>
<polygon fill="none" stroke="black" points="409.5,-36 234.5,-36 234.5,0 409.5,0 409.5,-36"/>
<text text-anchor="middle" x="322" y="-14.3" font-family="Times,serif" font-size="14.00">He3Opacity[Polarizer]</text>
</g>
<!-- he3_opacity_from_cell_params_He3Opacity[Polarizer]&#45;&gt;He3Opacity[Polarizer] -->
<g id="edge4" class="edge">
<title>he3_opacity_from_cell_params_He3Opacity[Polarizer]&#45;&gt;He3Opacity[Polarizer]</title>
<path fill="none" stroke="black" d="M322,-71.7C322,-63.98 322,-54.71 322,-46.11"/>
<polygon fill="black" stroke="black" points="325.5,-46.1 322,-36.1 318.5,-46.1 325.5,-46.1"/>
</g>
<!-- WavelengthBins -->
<g id="node4" class="node">
<title>WavelengthBins</title>
<polygon fill="none" stroke="red" stroke-dasharray="5,2" points="578,-180 446,-180 446,-144 578,-144 578,-180"/>
<text text-anchor="middle" x="512" y="-158.3" font-family="Times,serif" font-size="14.00" fill="red">WavelengthBins</text>
</g>
<!-- WavelengthBins&#45;&gt;he3_opacity_from_cell_params_He3Opacity[Polarizer] -->
<g id="edge3" class="edge">
<title>WavelengthBins&#45;&gt;he3_opacity_from_cell_params_He3Opacity[Polarizer]</title>
<path fill="none" stroke="black" d="M465.52,-143.88C438.4,-133.88 404.06,-121.23 375.77,-110.81"/>
<polygon fill="black" stroke="black" points="376.63,-107.4 366.04,-107.23 374.21,-113.97 376.63,-107.4"/>
</g>
</g>
</svg>
