<?xml version="1.0" encoding="UTF-8" standalone="no"?>
<!DOCTYPE svg PUBLIC "-//W3C//DTD SVG 1.1//EN"
 "http://www.w3.org/Graphics/SVG/1.1/DTD/svg11.dtd">
<!-- Generated by graphviz version 2.43.0 (0)
 -->
<!-- Title: %3 Pages: 1 -->
<svg width="793pt" height="188pt"
 viewBox="0.00 0.00 792.50 188.00" xmlns="http://www.w3.org/2000/svg" xmlns:xlink="http://www.w3.org/1999/xlink">
<g id="graph0" class="graph" transform="scale(1 1) rotate(0) translate(4 184)">
<title>%3</title>
<polygon fill="white" stroke="transparent" points="-4,4 -4,-184 788.5,-184 788.5,4 -4,4"/>
<!-- DirectBeamNoCell -->
<g id="node1" class="node">
<title>DirectBeamNoCell</title>
<polygon fill="none" stroke="red" stroke-dasharray="5,2" points="149,-180 0,-180 0,-144 149,-144 149,-180"/>
<text text-anchor="middle" x="74.5" y="-158.3" font-family="Times,serif" font-size="14.00" fill="red">DirectBeamNoCell</text>
</g>
<!-- he3_opacity_from_beam_data_He3Opacity[Polarizer] -->
<g id="node3" class="node">
<title>he3_opacity_from_beam_data_He3Opacity[Polarizer]</title>
<ellipse fill="none" stroke="black" cx="315.5" cy="-90" rx="146.77" ry="18"/>
<text text-anchor="middle" x="315.5" y="-86.3" font-family="Times,serif" font-size="14.00">he3_opacity_from_beam_data</text>
</g>
<!-- DirectBeamNoCell&#45;&gt;he3_opacity_from_beam_data_He3Opacity[Polarizer] -->
<g id="edge2" class="edge">
<title>DirectBeamNoCell&#45;&gt;he3_opacity_from_beam_data_He3Opacity[Polarizer]</title>
<path fill="none" stroke="black" d="M133.15,-143.97C168.96,-133.56 214.77,-120.26 251.52,-109.58"/>
<polygon fill="black" stroke="black" points="252.51,-112.94 261.14,-106.79 250.56,-106.22 252.51,-112.94"/>
</g>
<!-- He3DirectBeam[Polarizer, Depolarized] -->
<g id="node2" class="node">
<title>He3DirectBeam[Polarizer, Depolarized]</title>
<polygon fill="none" stroke="red" stroke-dasharray="5,2" points="464.5,-180 166.5,-180 166.5,-144 464.5,-144 464.5,-180"/>
<text text-anchor="middle" x="315.5" y="-158.3" font-family="Times,serif" font-size="14.00" fill="red">He3DirectBeam[Polarizer, Depolarized]</text>
</g>
<!-- He3DirectBeam[Polarizer, Depolarized]&#45;&gt;he3_opacity_from_beam_data_He3Opacity[Polarizer] -->
<g id="edge3" class="edge">
<title>He3DirectBeam[Polarizer, Depolarized]&#45;&gt;he3_opacity_from_beam_data_He3Opacity[Polarizer]</title>
<path fill="none" stroke="black" d="M315.5,-143.7C315.5,-135.98 315.5,-126.71 315.5,-118.11"/>
<polygon fill="black" stroke="black" points="319,-118.1 315.5,-108.1 312,-118.1 319,-118.1"/>
</g>
<!-- He3Opacity[Polarizer] -->
<g id="node5" class="node">
<title>He3Opacity[Polarizer]</title>
<polygon fill="none" stroke="black" points="403,-36 228,-36 228,0 403,0 403,-36"/>
<text text-anchor="middle" x="315.5" y="-14.3" font-family="Times,serif" font-size="14.00">He3Opacity[Polarizer]</text>
</g>
<!-- he3_opacity_from_beam_data_He3Opacity[Polarizer]&#45;&gt;He3Opacity[Polarizer] -->
<g id="edge4" class="edge">
<title>he3_opacity_from_beam_data_He3Opacity[Polarizer]&#45;&gt;He3Opacity[Polarizer]</title>
<path fill="none" stroke="black" d="M315.5,-71.7C315.5,-63.98 315.5,-54.71 315.5,-46.11"/>
<polygon fill="black" stroke="black" points="319,-46.1 315.5,-36.1 312,-46.1 319,-46.1"/>
</g>
<!-- He3TransmissionEmptyGlass[Polarizer] -->
<g id="node4" class="node">
<title>He3TransmissionEmptyGlass[Polarizer]</title>
<polygon fill="none" stroke="red" stroke-dasharray="5,2" points="784.5,-180 482.5,-180 482.5,-144 784.5,-144 784.5,-180"/>
<text text-anchor="middle" x="633.5" y="-158.3" font-family="Times,serif" font-size="14.00" fill="red">He3TransmissionEmptyGlass[Polarizer]</text>
</g>
<!-- He3TransmissionEmptyGlass[Polarizer]&#45;&gt;he3_opacity_from_beam_data_He3Opacity[Polarizer] -->
<g id="edge1" class="edge">
<title>He3TransmissionEmptyGlass[Polarizer]&#45;&gt;he3_opacity_from_beam_data_He3Opacity[Polarizer]</title>
<path fill="none" stroke="black" d="M556.12,-143.97C506.75,-133.1 442.99,-119.06 393.51,-108.17"/>
<polygon fill="black" stroke="black" points="394.01,-104.7 383.49,-105.97 392.51,-111.53 394.01,-104.7"/>
</g>
</g>
</svg>
