<?xml version="1.0" encoding="UTF-8" standalone="no"?>
<!DOCTYPE svg PUBLIC "-//W3C//DTD SVG 1.1//EN"
 "http://www.w3.org/Graphics/SVG/1.1/DTD/svg11.dtd">
<!-- Generated by graphviz version 2.43.0 (0)
 -->
<!-- Title: %3 Pages: 1 -->
<svg width="2618pt" height="320pt"
 viewBox="0.00 0.00 2617.50 320.00" xmlns="http://www.w3.org/2000/svg" xmlns:xlink="http://www.w3.org/1999/xlink">
<g id="graph0" class="graph" transform="scale(1 1) rotate(0) translate(4 316)">
<title>%3</title>
<polygon fill="white" stroke="transparent" points="-4,4 -4,-316 2613.5,-316 2613.5,4 -4,4"/>
<g id="clust2" class="cluster">
<title>cluster_HalfPolarizedCorrectedData</title>
<polygon fill="#f0f0ff" stroke="#f0f0ff" points="2316.5,-8 2316.5,-114 2601.5,-114 2601.5,-8 2316.5,-8"/>
</g>
<g id="clust3" class="cluster">
<title>cluster_HalfPolarizedCorrection</title>
<polygon fill="#f0f0ff" stroke="#f0f0ff" points="1618.13,-84 1618.13,-190 1873.13,-190 1873.13,-84 1618.13,-84"/>
</g>
<g id="clust4" class="cluster">
<title>cluster_InverseFlipperMatrix</title>
<polygon fill="#f0f0ff" stroke="#f0f0ff" points="867.97,-198 867.97,-304 1176.97,-304 1176.97,-198 867.97,-198"/>
</g>
<g id="clust5" class="cluster">
<title>cluster_PolarizingElementCorrection</title>
<polygon fill="#f0f0ff" stroke="#f0f0ff" points="825.97,-84 825.97,-190 1218.97,-190 1218.97,-84 825.97,-84"/>
</g>
<g id="clust6" class="cluster">
<title>cluster_ReducedSampleDataBySpinChannel</title>
<polygon fill="#f0f0ff" stroke="#f0f0ff" points="8,-9 8,-115 380,-115 380,-9 8,-9"/>
</g>
<!-- FlipperEfficiency[Polarizer] -->
<g id="node1" class="node">
<title>FlipperEfficiency[Polarizer]</title>
<polygon fill="none" stroke="black" points="300,-269 88,-269 88,-233 300,-233 300,-269"/>
<text text-anchor="middle" x="194" y="-247.3" font-family="Times,serif" font-size="14.00">FlipperEfficiency[Polarizer]</text>
</g>
<!-- ess.polarization.correction.make_spin_flipping_matrix_down_InverseFlipperMatrix[Down, Polarizer] -->
<g id="node16" class="node">
<title>ess.polarization.correction.make_spin_flipping_matrix_down_InverseFlipperMatrix[Down, Polarizer]</title>
<ellipse fill="none" stroke="black" cx="602.98" cy="-278" rx="163.27" ry="18"/>
<text text-anchor="middle" x="602.98" y="-274.3" font-family="Times,serif" font-size="14.00">make_spin_flipping_matrix_down</text>
</g>
<!-- FlipperEfficiency[Polarizer]&#45;&gt;ess.polarization.correction.make_spin_flipping_matrix_down_InverseFlipperMatrix[Down, Polarizer] -->
<g id="edge13" class="edge">
<title>FlipperEfficiency[Polarizer]&#45;&gt;ess.polarization.correction.make_spin_flipping_matrix_down_InverseFlipperMatrix[Down, Polarizer]</title>
<path fill="none" stroke="black" d="M300.07,-257.97C346.55,-261.05 402.05,-264.74 452.72,-268.1"/>
<polygon fill="black" stroke="black" points="452.57,-271.6 462.78,-268.77 453.04,-264.61 452.57,-271.6"/>
</g>
<!-- ess.polarization.correction.make_spin_flipping_matrix_up_InverseFlipperMatrix[Up, Polarizer] -->
<g id="node17" class="node">
<title>ess.polarization.correction.make_spin_flipping_matrix_up_InverseFlipperMatrix[Up, Polarizer]</title>
<ellipse fill="none" stroke="black" cx="602.98" cy="-224" rx="150.27" ry="18"/>
<text text-anchor="middle" x="602.98" y="-220.3" font-family="Times,serif" font-size="14.00">make_spin_flipping_matrix_up</text>
</g>
<!-- FlipperEfficiency[Polarizer]&#45;&gt;ess.polarization.correction.make_spin_flipping_matrix_up_InverseFlipperMatrix[Up, Polarizer] -->
<g id="edge15" class="edge">
<title>FlipperEfficiency[Polarizer]&#45;&gt;ess.polarization.correction.make_spin_flipping_matrix_up_InverseFlipperMatrix[Up, Polarizer]</title>
<path fill="none" stroke="black" d="M300.07,-244.03C349.08,-240.78 408.12,-236.86 460.95,-233.36"/>
<polygon fill="black" stroke="black" points="461.33,-236.84 471.08,-232.68 460.87,-229.85 461.33,-236.84"/>
</g>
<!-- ess.polarization.correction.compute_half_polarized_corrected_data_HalfPolarizedCorrectedData[Down] -->
<g id="node2" class="node">
<title>ess.polarization.correction.compute_half_polarized_corrected_data_HalfPolarizedCorrectedData[Down]</title>
<ellipse fill="none" stroke="black" cx="2094.82" cy="-88" rx="193.87" ry="18"/>
<text text-anchor="middle" x="2094.82" y="-84.3" font-family="Times,serif" font-size="14.00">compute_half_polarized_corrected_data</text>
</g>
<!-- HalfPolarizedCorrectedData[Down] -->
<g id="node5" class="node">
<title>HalfPolarizedCorrectedData[Down]</title>
<polygon fill="none" stroke="black" points="2593.5,-106 2324.5,-106 2324.5,-70 2593.5,-70 2593.5,-106"/>
<text text-anchor="middle" x="2459" y="-84.3" font-family="Times,serif" font-size="14.00">HalfPolarizedCorrectedData[Down]</text>
</g>
<!-- ess.polarization.correction.compute_half_polarized_corrected_data_HalfPolarizedCorrectedData[Down]&#45;&gt;HalfPolarizedCorrectedData[Down] -->
<g id="edge3" class="edge">
<title>ess.polarization.correction.compute_half_polarized_corrected_data_HalfPolarizedCorrectedData[Down]&#45;&gt;HalfPolarizedCorrectedData[Down]</title>
<path fill="none" stroke="black" d="M2288.57,-88C2297.1,-88 2305.59,-88 2313.98,-88"/>
<polygon fill="black" stroke="black" points="2314.14,-91.5 2324.14,-88 2314.14,-84.5 2314.14,-91.5"/>
</g>
<!-- ReducedSampleDataBySpinChannel[Down, Up] -->
<g id="node3" class="node">
<title>ReducedSampleDataBySpinChannel[Down, Up]</title>
<polygon fill="none" stroke="red" stroke-dasharray="5,2" points="372,-107 16,-107 16,-71 372,-71 372,-107"/>
<text text-anchor="middle" x="194" y="-85.3" font-family="Times,serif" font-size="14.00" fill="red">ReducedSampleDataBySpinChannel[Down, Up]</text>
</g>
<!-- ReducedSampleDataBySpinChannel[Down, Up]&#45;&gt;ess.polarization.correction.compute_half_polarized_corrected_data_HalfPolarizedCorrectedData[Down] -->
<g id="edge1" class="edge">
<title>ReducedSampleDataBySpinChannel[Down, Up]&#45;&gt;ess.polarization.correction.compute_half_polarized_corrected_data_HalfPolarizedCorrectedData[Down]</title>
<path fill="none" stroke="black" d="M372.29,-80.54C539.62,-73.28 797.53,-64 1021.47,-64 1021.47,-64 1021.47,-64 1419.55,-64 1588.82,-64 1781.84,-71.65 1917.86,-78.31"/>
<polygon fill="black" stroke="black" points="1917.8,-81.81 1927.96,-78.81 1918.15,-74.82 1917.8,-81.81"/>
</g>
<!-- ess.polarization.correction.compute_polarizing_element_correction_PolarizingElementCorrection[Down, Up, Polarizer] -->
<g id="node18" class="node">
<title>ess.polarization.correction.compute_polarizing_element_correction_PolarizingElementCorrection[Down, Up, Polarizer]</title>
<ellipse fill="none" stroke="black" cx="602.98" cy="-164" rx="194.97" ry="18"/>
<text text-anchor="middle" x="602.98" y="-160.3" font-family="Times,serif" font-size="14.00">compute_polarizing_element_correction</text>
</g>
<!-- ReducedSampleDataBySpinChannel[Down, Up]&#45;&gt;ess.polarization.correction.compute_polarizing_element_correction_PolarizingElementCorrection[Down, Up, Polarizer] -->
<g id="edge17" class="edge">
<title>ReducedSampleDataBySpinChannel[Down, Up]&#45;&gt;ess.polarization.correction.compute_polarizing_element_correction_PolarizingElementCorrection[Down, Up, Polarizer]</title>
<path fill="none" stroke="black" d="M278.91,-107.1C310.63,-114.07 347.02,-122.22 380,-130 392.49,-132.94 395.41,-134.56 408,-137 429.35,-141.14 452.14,-144.9 474.31,-148.21"/>
<polygon fill="black" stroke="black" points="474.05,-151.7 484.45,-149.69 475.07,-144.78 474.05,-151.7"/>
</g>
<!-- HalfPolarizedCorrection[Down] -->
<g id="node4" class="node">
<title>HalfPolarizedCorrection[Down]</title>
<polygon fill="none" stroke="black" points="1865.13,-182 1626.13,-182 1626.13,-146 1865.13,-146 1865.13,-182"/>
<text text-anchor="middle" x="1745.63" y="-160.3" font-family="Times,serif" font-size="14.00">HalfPolarizedCorrection[Down]</text>
</g>
<!-- HalfPolarizedCorrection[Down]&#45;&gt;ess.polarization.correction.compute_half_polarized_corrected_data_HalfPolarizedCorrectedData[Down] -->
<g id="edge2" class="edge">
<title>HalfPolarizedCorrection[Down]&#45;&gt;ess.polarization.correction.compute_half_polarized_corrected_data_HalfPolarizedCorrectedData[Down]</title>
<path fill="none" stroke="black" d="M1831.71,-145.94C1845.56,-142.97 1859.75,-139.91 1873.13,-137 1918.3,-127.17 1968.63,-116.01 2009.8,-106.83"/>
<polygon fill="black" stroke="black" points="2010.79,-110.19 2019.79,-104.6 2009.26,-103.36 2010.79,-110.19"/>
</g>
<!-- ess.polarization.correction.compute_half_polarized_corrected_data_HalfPolarizedCorrectedData[Up] -->
<g id="node6" class="node">
<title>ess.polarization.correction.compute_half_polarized_corrected_data_HalfPolarizedCorrectedData[Up]</title>
<ellipse fill="none" stroke="black" cx="2094.82" cy="-34" rx="193.87" ry="18"/>
<text text-anchor="middle" x="2094.82" y="-30.3" font-family="Times,serif" font-size="14.00">compute_half_polarized_corrected_data</text>
</g>
<!-- HalfPolarizedCorrectedData[Up] -->
<g id="node9" class="node">
<title>HalfPolarizedCorrectedData[Up]</title>
<polygon fill="none" stroke="black" points="2583.5,-52 2334.5,-52 2334.5,-16 2583.5,-16 2583.5,-52"/>
<text text-anchor="middle" x="2459" y="-30.3" font-family="Times,serif" font-size="14.00">HalfPolarizedCorrectedData[Up]</text>
</g>
<!-- ess.polarization.correction.compute_half_polarized_corrected_data_HalfPolarizedCorrectedData[Up]&#45;&gt;HalfPolarizedCorrectedData[Up] -->
<g id="edge6" class="edge">
<title>ess.polarization.correction.compute_half_polarized_corrected_data_HalfPolarizedCorrectedData[Up]&#45;&gt;HalfPolarizedCorrectedData[Up]</title>
<path fill="none" stroke="black" d="M2288.57,-34C2300.59,-34 2312.55,-34 2324.22,-34"/>
<polygon fill="black" stroke="black" points="2324.39,-37.5 2334.39,-34 2324.39,-30.5 2324.39,-37.5"/>
</g>
<!-- ReducedSampleDataBySpinChannel[Up, Up] -->
<g id="node7" class="node">
<title>ReducedSampleDataBySpinChannel[Up, Up]</title>
<polygon fill="none" stroke="red" stroke-dasharray="5,2" points="362,-53 26,-53 26,-17 362,-17 362,-53"/>
<text text-anchor="middle" x="194" y="-31.3" font-family="Times,serif" font-size="14.00" fill="red">ReducedSampleDataBySpinChannel[Up, Up]</text>
</g>
<!-- ReducedSampleDataBySpinChannel[Up, Up]&#45;&gt;ess.polarization.correction.compute_half_polarized_corrected_data_HalfPolarizedCorrectedData[Up] -->
<g id="edge4" class="edge">
<title>ReducedSampleDataBySpinChannel[Up, Up]&#45;&gt;ess.polarization.correction.compute_half_polarized_corrected_data_HalfPolarizedCorrectedData[Up]</title>
<path fill="none" stroke="black" d="M362.39,-32.11C529.34,-29.48 793.13,-26 1021.47,-26 1021.47,-26 1021.47,-26 1419.55,-26 1579.14,-26 1759.97,-28.27 1894.16,-30.39"/>
<polygon fill="black" stroke="black" points="1894.49,-33.9 1904.55,-30.56 1894.6,-26.9 1894.49,-33.9"/>
</g>
<!-- ess.polarization.correction.compute_polarizing_element_correction_PolarizingElementCorrection[Up, Up, Polarizer] -->
<g id="node20" class="node">
<title>ess.polarization.correction.compute_polarizing_element_correction_PolarizingElementCorrection[Up, Up, Polarizer]</title>
<ellipse fill="none" stroke="black" cx="602.98" cy="-110" rx="194.97" ry="18"/>
<text text-anchor="middle" x="602.98" y="-106.3" font-family="Times,serif" font-size="14.00">compute_polarizing_element_correction</text>
</g>
<!-- ReducedSampleDataBySpinChannel[Up, Up]&#45;&gt;ess.polarization.correction.compute_polarizing_element_correction_PolarizingElementCorrection[Up, Up, Polarizer] -->
<g id="edge20" class="edge">
<title>ReducedSampleDataBySpinChannel[Up, Up]&#45;&gt;ess.polarization.correction.compute_polarizing_element_correction_PolarizingElementCorrection[Up, Up, Polarizer]</title>
<path fill="none" stroke="black" d="M326.56,-53.08C344.55,-55.88 362.75,-58.88 380,-62 426.7,-70.45 478.55,-81.56 520.39,-90.97"/>
<polygon fill="black" stroke="black" points="519.72,-94.4 530.25,-93.19 521.27,-87.58 519.72,-94.4"/>
</g>
<!-- HalfPolarizedCorrection[Up] -->
<g id="node8" class="node">
<title>HalfPolarizedCorrection[Up]</title>
<polygon fill="none" stroke="black" points="1855.63,-128 1635.63,-128 1635.63,-92 1855.63,-92 1855.63,-128"/>
<text text-anchor="middle" x="1745.63" y="-106.3" font-family="Times,serif" font-size="14.00">HalfPolarizedCorrection[Up]</text>
</g>
<!-- HalfPolarizedCorrection[Up]&#45;&gt;ess.polarization.correction.compute_half_polarized_corrected_data_HalfPolarizedCorrectedData[Up] -->
<g id="edge5" class="edge">
<title>HalfPolarizedCorrection[Up]&#45;&gt;ess.polarization.correction.compute_half_polarized_corrected_data_HalfPolarizedCorrectedData[Up]</title>
<path fill="none" stroke="black" d="M1796.15,-91.96C1826.18,-81.61 1865.46,-69.1 1901.13,-61 1920.6,-56.58 1941.34,-52.77 1961.73,-49.51"/>
<polygon fill="black" stroke="black" points="1962.37,-52.95 1971.71,-47.95 1961.29,-46.04 1962.37,-52.95"/>
</g>
<!-- ess.polarization.correction.compute_half_polarized_correction_HalfPolarizedCorrection[Down] -->
<g id="node10" class="node">
<title>ess.polarization.correction.compute_half_polarized_correction_HalfPolarizedCorrection[Down]</title>
<ellipse fill="none" stroke="black" cx="1418.55" cy="-164" rx="171.67" ry="18"/>
<text text-anchor="middle" x="1418.55" y="-160.3" font-family="Times,serif" font-size="14.00">compute_half_polarized_correction</text>
</g>
<!-- ess.polarization.correction.compute_half_polarized_correction_HalfPolarizedCorrection[Down]&#45;&gt;HalfPolarizedCorrection[Down] -->
<g id="edge9" class="edge">
<title>ess.polarization.correction.compute_half_polarized_correction_HalfPolarizedCorrection[Down]&#45;&gt;HalfPolarizedCorrection[Down]</title>
<path fill="none" stroke="black" d="M1590.18,-164C1598.79,-164 1607.37,-164 1615.83,-164"/>
<polygon fill="black" stroke="black" points="1616.07,-167.5 1626.07,-164 1616.07,-160.5 1616.07,-167.5"/>
</g>
<!-- PolarizingElementCorrection[Down, Up, Polarizer] -->
<g id="node11" class="node">
<title>PolarizingElementCorrection[Down, Up, Polarizer]</title>
<polygon fill="none" stroke="black" points="1210.97,-182 833.97,-182 833.97,-146 1210.97,-146 1210.97,-182"/>
<text text-anchor="middle" x="1022.47" y="-160.3" font-family="Times,serif" font-size="14.00">PolarizingElementCorrection[Down, Up, Polarizer]</text>
</g>
<!-- PolarizingElementCorrection[Down, Up, Polarizer]&#45;&gt;ess.polarization.correction.compute_half_polarized_correction_HalfPolarizedCorrection[Down] -->
<g id="edge7" class="edge">
<title>PolarizingElementCorrection[Down, Up, Polarizer]&#45;&gt;ess.polarization.correction.compute_half_polarized_correction_HalfPolarizedCorrection[Down]</title>
<path fill="none" stroke="black" d="M1210.99,-164C1219.61,-164 1228.27,-164 1236.88,-164"/>
<polygon fill="black" stroke="black" points="1236.96,-167.5 1246.96,-164 1236.96,-160.5 1236.96,-167.5"/>
</g>
<!-- InverseFlipperMatrix[Down, Polarizer] -->
<g id="node12" class="node">
<title>InverseFlipperMatrix[Down, Polarizer]</title>
<polygon fill="none" stroke="black" points="1168.97,-296 875.97,-296 875.97,-260 1168.97,-260 1168.97,-296"/>
<text text-anchor="middle" x="1022.47" y="-274.3" font-family="Times,serif" font-size="14.00">InverseFlipperMatrix[Down, Polarizer]</text>
</g>
<!-- InverseFlipperMatrix[Down, Polarizer]&#45;&gt;ess.polarization.correction.compute_half_polarized_correction_HalfPolarizedCorrection[Down] -->
<g id="edge8" class="edge">
<title>InverseFlipperMatrix[Down, Polarizer]&#45;&gt;ess.polarization.correction.compute_half_polarized_correction_HalfPolarizedCorrection[Down]</title>
<path fill="none" stroke="black" d="M1169.05,-262.44C1186.02,-259.29 1202.97,-255.51 1218.97,-251 1275.31,-235.1 1336.49,-206.41 1375.83,-186.33"/>
<polygon fill="black" stroke="black" points="1377.57,-189.38 1384.86,-181.68 1374.37,-183.15 1377.57,-189.38"/>
</g>
<!-- ess.polarization.correction.compute_half_polarized_correction_HalfPolarizedCorrection[Up] -->
<g id="node13" class="node">
<title>ess.polarization.correction.compute_half_polarized_correction_HalfPolarizedCorrection[Up]</title>
<ellipse fill="none" stroke="black" cx="1418.55" cy="-110" rx="171.67" ry="18"/>
<text text-anchor="middle" x="1418.55" y="-106.3" font-family="Times,serif" font-size="14.00">compute_half_polarized_correction</text>
</g>
<!-- ess.polarization.correction.compute_half_polarized_correction_HalfPolarizedCorrection[Up]&#45;&gt;HalfPolarizedCorrection[Up] -->
<g id="edge12" class="edge">
<title>ess.polarization.correction.compute_half_polarized_correction_HalfPolarizedCorrection[Up]&#45;&gt;HalfPolarizedCorrection[Up]</title>
<path fill="none" stroke="black" d="M1590.18,-110C1602.04,-110 1613.84,-110 1625.33,-110"/>
<polygon fill="black" stroke="black" points="1625.34,-113.5 1635.34,-110 1625.34,-106.5 1625.34,-113.5"/>
</g>
<!-- PolarizingElementCorrection[Up, Up, Polarizer] -->
<g id="node14" class="node">
<title>PolarizingElementCorrection[Up, Up, Polarizer]</title>
<polygon fill="none" stroke="black" points="1201.47,-128 843.47,-128 843.47,-92 1201.47,-92 1201.47,-128"/>
<text text-anchor="middle" x="1022.47" y="-106.3" font-family="Times,serif" font-size="14.00">PolarizingElementCorrection[Up, Up, Polarizer]</text>
</g>
<!-- PolarizingElementCorrection[Up, Up, Polarizer]&#45;&gt;ess.polarization.correction.compute_half_polarized_correction_HalfPolarizedCorrection[Up] -->
<g id="edge10" class="edge">
<title>PolarizingElementCorrection[Up, Up, Polarizer]&#45;&gt;ess.polarization.correction.compute_half_polarized_correction_HalfPolarizedCorrection[Up]</title>
<path fill="none" stroke="black" d="M1201.48,-110C1213.16,-110 1224.92,-110 1236.61,-110"/>
<polygon fill="black" stroke="black" points="1236.86,-113.5 1246.86,-110 1236.86,-106.5 1236.86,-113.5"/>
</g>
<!-- InverseFlipperMatrix[Up, Polarizer] -->
<g id="node15" class="node">
<title>InverseFlipperMatrix[Up, Polarizer]</title>
<polygon fill="none" stroke="black" points="1159.47,-242 885.47,-242 885.47,-206 1159.47,-206 1159.47,-242"/>
<text text-anchor="middle" x="1022.47" y="-220.3" font-family="Times,serif" font-size="14.00">InverseFlipperMatrix[Up, Polarizer]</text>
</g>
<!-- InverseFlipperMatrix[Up, Polarizer]&#45;&gt;ess.polarization.correction.compute_half_polarized_correction_HalfPolarizedCorrection[Up] -->
<g id="edge11" class="edge">
<title>InverseFlipperMatrix[Up, Polarizer]&#45;&gt;ess.polarization.correction.compute_half_polarized_correction_HalfPolarizedCorrection[Up]</title>
<path fill="none" stroke="black" d="M1159.54,-220.38C1180.83,-215.12 1201.53,-206.8 1218.97,-194 1241.72,-177.3 1224.25,-153.76 1246.97,-137 1253.66,-132.06 1260.9,-127.88 1268.49,-124.35"/>
<polygon fill="black" stroke="black" points="1270.08,-127.47 1277.92,-120.35 1267.35,-121.03 1270.08,-127.47"/>
</g>
<!-- ess.polarization.correction.make_spin_flipping_matrix_down_InverseFlipperMatrix[Down, Polarizer]&#45;&gt;InverseFlipperMatrix[Down, Polarizer] -->
<g id="edge14" class="edge">
<title>ess.polarization.correction.make_spin_flipping_matrix_down_InverseFlipperMatrix[Down, Polarizer]&#45;&gt;InverseFlipperMatrix[Down, Polarizer]</title>
<path fill="none" stroke="black" d="M766.29,-278C798.99,-278 833.28,-278 865.75,-278"/>
<polygon fill="black" stroke="black" points="865.76,-281.5 875.76,-278 865.76,-274.5 865.76,-281.5"/>
</g>
<!-- ess.polarization.correction.make_spin_flipping_matrix_up_InverseFlipperMatrix[Up, Polarizer]&#45;&gt;InverseFlipperMatrix[Up, Polarizer] -->
<g id="edge16" class="edge">
<title>ess.polarization.correction.make_spin_flipping_matrix_up_InverseFlipperMatrix[Up, Polarizer]&#45;&gt;InverseFlipperMatrix[Up, Polarizer]</title>
<path fill="none" stroke="black" d="M753.23,-224C792.85,-224 835.59,-224 875.06,-224"/>
<polygon fill="black" stroke="black" points="875.29,-227.5 885.28,-224 875.28,-220.5 875.29,-227.5"/>
</g>
<!-- ess.polarization.correction.compute_polarizing_element_correction_PolarizingElementCorrection[Down, Up, Polarizer]&#45;&gt;PolarizingElementCorrection[Down, Up, Polarizer] -->
<g id="edge19" class="edge">
<title>ess.polarization.correction.compute_polarizing_element_correction_PolarizingElementCorrection[Down, Up, Polarizer]&#45;&gt;PolarizingElementCorrection[Down, Up, Polarizer]</title>
<path fill="none" stroke="black" d="M798.06,-164C806.63,-164 815.23,-164 823.81,-164"/>
<polygon fill="black" stroke="black" points="823.87,-167.5 833.87,-164 823.87,-160.5 823.87,-167.5"/>
</g>
<!-- TransmissionFunction[Polarizer] -->
<g id="node19" class="node">
<title>TransmissionFunction[Polarizer]</title>
<polygon fill="none" stroke="red" stroke-dasharray="5,2" points="318.5,-175 69.5,-175 69.5,-139 318.5,-139 318.5,-175"/>
<text text-anchor="middle" x="194" y="-153.3" font-family="Times,serif" font-size="14.00" fill="red">TransmissionFunction[Polarizer]</text>
</g>
<!-- TransmissionFunction[Polarizer]&#45;&gt;ess.polarization.correction.compute_polarizing_element_correction_PolarizingElementCorrection[Down, Up, Polarizer] -->
<g id="edge18" class="edge">
<title>TransmissionFunction[Polarizer]&#45;&gt;ess.polarization.correction.compute_polarizing_element_correction_PolarizingElementCorrection[Down, Up, Polarizer]</title>
<path fill="none" stroke="black" d="M318.77,-159.13C344.7,-159.57 372.68,-160.06 400.61,-160.54"/>
<polygon fill="black" stroke="black" points="400.83,-164.04 410.89,-160.71 400.95,-157.04 400.83,-164.04"/>
</g>
<!-- TransmissionFunction[Polarizer]&#45;&gt;ess.polarization.correction.compute_polarizing_element_correction_PolarizingElementCorrection[Up, Up, Polarizer] -->
<g id="edge21" class="edge">
<title>TransmissionFunction[Polarizer]&#45;&gt;ess.polarization.correction.compute_polarizing_element_correction_PolarizingElementCorrection[Up, Up, Polarizer]</title>
<path fill="none" stroke="black" d="M318.77,-142.71C366.79,-137.16 421.85,-130.8 470.58,-125.18"/>
<polygon fill="black" stroke="black" points="471.02,-128.65 480.55,-124.02 470.22,-121.69 471.02,-128.65"/>
</g>
<!-- ess.polarization.correction.compute_polarizing_element_correction_PolarizingElementCorrection[Up, Up, Polarizer]&#45;&gt;PolarizingElementCorrection[Up, Up, Polarizer] -->
<g id="edge22" class="edge">
<title>ess.polarization.correction.compute_polarizing_element_correction_PolarizingElementCorrection[Up, Up, Polarizer]&#45;&gt;PolarizingElementCorrection[Up, Up, Polarizer]</title>
<path fill="none" stroke="black" d="M798.06,-110C809.75,-110 821.51,-110 833.17,-110"/>
<polygon fill="black" stroke="black" points="833.4,-113.5 843.4,-110 833.4,-106.5 833.4,-113.5"/>
</g>
</g>
</svg>
