<?xml version="1.0" encoding="UTF-8" standalone="no"?>
<!DOCTYPE svg PUBLIC "-//W3C//DTD SVG 1.1//EN"
 "http://www.w3.org/Graphics/SVG/1.1/DTD/svg11.dtd">
<!-- Generated by graphviz version 2.43.0 (0)
 -->
<!-- Title: %3 Pages: 1 -->
<svg width="1180pt" height="505pt"
 viewBox="0.00 0.00 1180.00 504.84" xmlns="http://www.w3.org/2000/svg" xmlns:xlink="http://www.w3.org/1999/xlink">
<g id="graph0" class="graph" transform="scale(1 1) rotate(0) translate(4 500.84)">
<title>%3</title>
<polygon fill="white" stroke="transparent" points="-4,4 -4,-500.84 1176,-500.84 1176,4 -4,4"/>
<g id="clust1" class="cluster">
<title>cluster_FlipperEfficiency</title>
<polygon fill="#f0f0ff" stroke="#f0f0ff" points="68,-357.84 68,-443.84 206,-443.84 206,-357.84 68,-357.84"/>
<text text-anchor="middle" x="137" y="-428.64" font-family="Times,serif" font-size="14.00">FlipperEfficiency</text>
</g>
<g id="clust2" class="cluster">
<title>cluster_InverseFlipperMatrix</title>
<polygon fill="#f0f0ff" stroke="#f0f0ff" points="342,-312.84 342,-488.84 579,-488.84 579,-312.84 342,-312.84"/>
<text text-anchor="middle" x="460.5" y="-473.64" font-family="Times,serif" font-size="14.00">InverseFlipperMatrix</text>
</g>
<g id="clust3" class="cluster">
<title>cluster_PolarizationCorrectedData</title>
<polygon fill="#f0f0ff" stroke="#f0f0ff" points="924,-58.84 924,-204.84 1172,-204.84 1172,-58.84 924,-58.84"/>
<text text-anchor="start" x="953" y="-190.64" font-family="Times,serif" font-size="14.00">PolarizationCorrectedData</text>
<text text-anchor="start" x="932" y="-179.04" font-family="Times,serif" font-size="11.00">via:</text>
<text text-anchor="start" x="953" y="-179.04" font-family="Times,serif" font-style="italic" font-size="11.00">compute_polarization_corrected_data</text>
</g>
<g id="clust4" class="cluster">
<title>cluster_PolarizationCorrection</title>
<polygon fill="#f0f0ff" stroke="#f0f0ff" points="647,-133.84 647,-279.84 868,-279.84 868,-133.84 647,-133.84"/>
<text text-anchor="start" x="677" y="-265.64" font-family="Times,serif" font-size="14.00">PolarizationCorrection</text>
<text text-anchor="start" x="655" y="-254.04" font-family="Times,serif" font-size="11.00">via:</text>
<text text-anchor="start" x="676" y="-254.04" font-family="Times,serif" font-style="italic" font-size="11.00">compute_polarization_correction</text>
</g>
<g id="clust5" class="cluster">
<title>cluster_PolarizingElementCorrection</title>
<polygon fill="#f0f0ff" stroke="#f0f0ff" points="330.5,-58.84 330.5,-304.84 591.5,-304.84 591.5,-58.84 330.5,-58.84"/>
<text text-anchor="start" x="357" y="-290.64" font-family="Times,serif" font-size="14.00">PolarizingElementCorrection</text>
<text text-anchor="start" x="338.5" y="-279.04" font-family="Times,serif" font-size="11.00">via:</text>
<text text-anchor="start" x="359.5" y="-279.04" font-family="Times,serif" font-style="italic" font-size="11.00">compute_polarizing_element_correction</text>
</g>
<g id="clust6" class="cluster">
<title>cluster_ReducedSampleDataBySpinChannel</title>
<polygon fill="#f0f0ff" stroke="#f0f0ff" points="0,-36.84 0,-172.84 275,-172.84 275,-36.84 0,-36.84"/>
<text text-anchor="middle" x="137.5" y="-157.64" font-family="Times,serif" font-size="14.00">ReducedSampleDataBySpinChannel</text>
</g>
<g id="clust7" class="cluster">
<title>cluster_TransmissionFunction</title>
<polygon fill="#f0f0ff" stroke="#f0f0ff" points="50,-180.84 50,-266.84 225,-266.84 225,-180.84 50,-180.84"/>
<text text-anchor="middle" x="137.5" y="-251.64" font-family="Times,serif" font-size="14.00">TransmissionFunction</text>
</g>
<!-- FlipperEfficiency[Analyzer] -->
<g id="node1" class="node">
<title>FlipperEfficiency[Analyzer]</title>
<polygon fill="none" stroke="black" points="176.5,-412.34 97.5,-412.34 97.5,-391.34 176.5,-391.34 176.5,-412.34"/>
<text text-anchor="start" x="105.5" y="-398.74" font-family="Times,serif" font-size="12.00">[Analyzer]</text>
</g>
<!-- InverseFlipperMatrix[Down, Analyzer] -->
<g id="node3" class="node">
<title>InverseFlipperMatrix[Down, Analyzer]</title>
<polygon fill="none" stroke="black" points="571,-457.34 350,-457.34 350,-426.34 571,-426.34 571,-457.34"/>
<text text-anchor="start" x="407.5" y="-444.74" font-family="Times,serif" font-size="12.00">[Down, Analyzer]</text>
<text text-anchor="start" x="358" y="-433.54" font-family="Times,serif" font-size="11.00">via:</text>
<text text-anchor="start" x="379" y="-433.54" font-family="Times,serif" font-style="italic" font-size="11.00">make_spin_flipping_matrix_down</text>
</g>
<!-- FlipperEfficiency[Analyzer]&#45;&gt;InverseFlipperMatrix[Down, Analyzer] -->
<g id="edge1" class="edge">
<title>FlipperEfficiency[Analyzer]:e&#45;&gt;InverseFlipperMatrix[Down, Analyzer]:w</title>
<path fill="none" stroke="black" d="M177,-401.84C252.17,-401.84 269.31,-438.32 339.27,-441.6"/>
<polygon fill="black" stroke="black" points="339.42,-445.1 349.5,-441.84 339.58,-438.11 339.42,-445.1"/>
</g>
<!-- InverseFlipperMatrix[Up, Analyzer] -->
<g id="node5" class="node">
<title>InverseFlipperMatrix[Up, Analyzer]</title>
<polygon fill="none" stroke="black" points="563,-387.34 358,-387.34 358,-356.34 563,-356.34 563,-387.34"/>
<text text-anchor="start" x="416.5" y="-374.74" font-family="Times,serif" font-size="12.00">[Up, Analyzer]</text>
<text text-anchor="start" x="366" y="-363.54" font-family="Times,serif" font-size="11.00">via:</text>
<text text-anchor="start" x="387" y="-363.54" font-family="Times,serif" font-style="italic" font-size="11.00">make_spin_flipping_matrix_up</text>
</g>
<!-- FlipperEfficiency[Analyzer]&#45;&gt;InverseFlipperMatrix[Up, Analyzer] -->
<g id="edge3" class="edge">
<title>FlipperEfficiency[Analyzer]:e&#45;&gt;InverseFlipperMatrix[Up, Analyzer]:w</title>
<path fill="none" stroke="black" d="M177,-401.84C221,-401.84 231.61,-395.14 275,-387.84 308.24,-382.24 318.25,-373.72 347.33,-372.1"/>
<polygon fill="black" stroke="black" points="347.6,-375.6 357.5,-371.84 347.41,-368.6 347.6,-375.6"/>
</g>
<!-- FlipperEfficiency[Polarizer] -->
<g id="node2" class="node">
<title>FlipperEfficiency[Polarizer]</title>
<polygon fill="none" stroke="black" points="177,-387.34 97,-387.34 97,-366.34 177,-366.34 177,-387.34"/>
<text text-anchor="start" x="105" y="-373.74" font-family="Times,serif" font-size="12.00">[Polarizer]</text>
</g>
<!-- InverseFlipperMatrix[Down, Polarizer] -->
<g id="node4" class="node">
<title>InverseFlipperMatrix[Down, Polarizer]</title>
<polygon fill="none" stroke="black" points="571,-352.34 350,-352.34 350,-321.34 571,-321.34 571,-352.34"/>
<text text-anchor="start" x="407" y="-339.74" font-family="Times,serif" font-size="12.00">[Down, Polarizer]</text>
<text text-anchor="start" x="358" y="-328.54" font-family="Times,serif" font-size="11.00">via:</text>
<text text-anchor="start" x="379" y="-328.54" font-family="Times,serif" font-style="italic" font-size="11.00">make_spin_flipping_matrix_down</text>
</g>
<!-- FlipperEfficiency[Polarizer]&#45;&gt;InverseFlipperMatrix[Down, Polarizer] -->
<g id="edge2" class="edge">
<title>FlipperEfficiency[Polarizer]:e&#45;&gt;InverseFlipperMatrix[Down, Polarizer]:w</title>
<path fill="none" stroke="black" d="M178,-376.84C252.75,-376.84 269.76,-340.35 339.32,-337.07"/>
<polygon fill="black" stroke="black" points="339.58,-340.56 349.5,-336.84 339.42,-333.57 339.58,-340.56"/>
</g>
<!-- InverseFlipperMatrix[Up, Polarizer] -->
<g id="node6" class="node">
<title>InverseFlipperMatrix[Up, Polarizer]</title>
<polygon fill="none" stroke="black" points="563,-422.34 358,-422.34 358,-391.34 563,-391.34 563,-422.34"/>
<text text-anchor="start" x="416" y="-409.74" font-family="Times,serif" font-size="12.00">[Up, Polarizer]</text>
<text text-anchor="start" x="366" y="-398.54" font-family="Times,serif" font-size="11.00">via:</text>
<text text-anchor="start" x="387" y="-398.54" font-family="Times,serif" font-style="italic" font-size="11.00">make_spin_flipping_matrix_up</text>
</g>
<!-- FlipperEfficiency[Polarizer]&#45;&gt;InverseFlipperMatrix[Up, Polarizer] -->
<g id="edge4" class="edge">
<title>FlipperEfficiency[Polarizer]:e&#45;&gt;InverseFlipperMatrix[Up, Polarizer]:w</title>
<path fill="none" stroke="black" d="M178,-376.84C221.62,-376.84 231.98,-384.6 275,-391.84 308.16,-397.41 318.31,-405.14 347.35,-406.59"/>
<polygon fill="black" stroke="black" points="347.42,-410.1 357.5,-406.84 347.59,-403.1 347.42,-410.1"/>
</g>
<!-- PolarizationCorrection[Down, Down] -->
<g id="node9" class="node">
<title>PolarizationCorrection[Down, Down]</title>
<polygon fill="none" stroke="black" points="809,-188.34 705,-188.34 705,-167.34 809,-167.34 809,-188.34"/>
<text text-anchor="start" x="713" y="-174.74" font-family="Times,serif" font-size="12.00">[Down, Down]</text>
</g>
<!-- InverseFlipperMatrix[Down, Analyzer]&#45;&gt;PolarizationCorrection[Down, Down] -->
<g id="edge15" class="edge">
<title>InverseFlipperMatrix[Down, Analyzer]:e&#45;&gt;PolarizationCorrection[Down, Down]:w</title>
<path fill="none" stroke="black" d="M571.5,-441.84C583.76,-441.84 585.37,-433.45 591.5,-422.84 644.11,-331.78 573.41,-267.95 647,-192.84 662.83,-176.68 674.28,-177.24 693.98,-177.69"/>
<polygon fill="black" stroke="black" points="693.95,-181.19 704,-177.84 694.05,-174.19 693.95,-181.19"/>
</g>
<!-- PolarizationCorrection[Up, Down] -->
<g id="node15" class="node">
<title>PolarizationCorrection[Up, Down]</title>
<polygon fill="none" stroke="black" points="800,-238.34 714,-238.34 714,-217.34 800,-217.34 800,-238.34"/>
<text text-anchor="start" x="722" y="-224.74" font-family="Times,serif" font-size="12.00">[Up, Down]</text>
</g>
<!-- InverseFlipperMatrix[Down, Analyzer]&#45;&gt;PolarizationCorrection[Up, Down] -->
<g id="edge23" class="edge">
<title>InverseFlipperMatrix[Down, Analyzer]:e&#45;&gt;PolarizationCorrection[Up, Down]:w</title>
<path fill="none" stroke="black" d="M571.5,-441.84C681.96,-441.84 604.19,-241 702.89,-228.45"/>
<polygon fill="black" stroke="black" points="703.23,-231.93 713,-227.84 702.81,-224.95 703.23,-231.93"/>
</g>
<!-- InverseFlipperMatrix[Down, Polarizer]&#45;&gt;PolarizationCorrection[Down, Down] -->
<g id="edge16" class="edge">
<title>InverseFlipperMatrix[Down, Polarizer]:e&#45;&gt;PolarizationCorrection[Down, Down]:w</title>
<path fill="none" stroke="black" d="M571.5,-336.84C643.76,-336.84 591.07,-238.6 647,-192.84 664.42,-178.58 674.65,-177.75 693.81,-177.8"/>
<polygon fill="black" stroke="black" points="693.99,-181.3 704,-177.84 694.01,-174.3 693.99,-181.3"/>
</g>
<!-- PolarizationCorrection[Down, Up] -->
<g id="node12" class="node">
<title>PolarizationCorrection[Down, Up]</title>
<polygon fill="none" stroke="black" points="800,-163.34 714,-163.34 714,-142.34 800,-142.34 800,-163.34"/>
<text text-anchor="start" x="722" y="-149.74" font-family="Times,serif" font-size="12.00">[Down, Up]</text>
</g>
<!-- InverseFlipperMatrix[Down, Polarizer]&#45;&gt;PolarizationCorrection[Down, Up] -->
<g id="edge20" class="edge">
<title>InverseFlipperMatrix[Down, Polarizer]:e&#45;&gt;PolarizationCorrection[Down, Up]:w</title>
<path fill="none" stroke="black" d="M571.5,-336.84C653.77,-336.84 584.4,-221.21 647,-167.84 667.12,-150.68 679.62,-152.09 702.77,-152.69"/>
<polygon fill="black" stroke="black" points="702.95,-156.19 713,-152.84 703.05,-149.19 702.95,-156.19"/>
</g>
<!-- InverseFlipperMatrix[Up, Analyzer]&#45;&gt;PolarizationCorrection[Down, Up] -->
<g id="edge19" class="edge">
<title>InverseFlipperMatrix[Up, Analyzer]:e&#45;&gt;PolarizationCorrection[Down, Up]:w</title>
<path fill="none" stroke="black" d="M563.5,-371.84C578.54,-371.84 582.6,-364.96 591.5,-352.84 642.28,-283.63 584.27,-226.44 647,-167.84 666.32,-149.79 679.43,-151.88 702.74,-152.65"/>
<polygon fill="black" stroke="black" points="702.94,-156.15 713,-152.84 703.07,-149.15 702.94,-156.15"/>
</g>
<!-- PolarizationCorrection[Up, Up] -->
<g id="node18" class="node">
<title>PolarizationCorrection[Up, Up]</title>
<polygon fill="none" stroke="black" points="791,-213.34 723,-213.34 723,-192.34 791,-192.34 791,-213.34"/>
<text text-anchor="start" x="731" y="-199.74" font-family="Times,serif" font-size="12.00">[Up, Up]</text>
</g>
<!-- InverseFlipperMatrix[Up, Analyzer]&#45;&gt;PolarizationCorrection[Up, Up] -->
<g id="edge27" class="edge">
<title>InverseFlipperMatrix[Up, Analyzer]:e&#45;&gt;PolarizationCorrection[Up, Up]:w</title>
<path fill="none" stroke="black" d="M563.5,-371.84C578.54,-371.84 582.02,-364.51 591.5,-352.84 632.41,-302.49 596.93,-259.08 647,-217.84 670.47,-198.5 684.76,-201.75 711.85,-202.66"/>
<polygon fill="black" stroke="black" points="711.94,-206.16 722,-202.84 712.06,-199.16 711.94,-206.16"/>
</g>
<!-- InverseFlipperMatrix[Up, Polarizer]&#45;&gt;PolarizationCorrection[Up, Down] -->
<g id="edge24" class="edge">
<title>InverseFlipperMatrix[Up, Polarizer]:e&#45;&gt;PolarizationCorrection[Up, Down]:w</title>
<path fill="none" stroke="black" d="M563.5,-406.84C663.61,-406.84 613.11,-239.86 702.92,-228.45"/>
<polygon fill="black" stroke="black" points="703.23,-231.94 713,-227.84 702.81,-224.95 703.23,-231.94"/>
</g>
<!-- InverseFlipperMatrix[Up, Polarizer]&#45;&gt;PolarizationCorrection[Up, Up] -->
<g id="edge28" class="edge">
<title>InverseFlipperMatrix[Up, Polarizer]:e&#45;&gt;PolarizationCorrection[Up, Up]:w</title>
<path fill="none" stroke="black" d="M563.5,-406.84C578.54,-406.84 582.46,-399.85 591.5,-387.84 639.29,-324.33 587.58,-270.62 647,-217.84 669.73,-197.64 684.61,-201.57 711.83,-202.63"/>
<polygon fill="black" stroke="black" points="711.93,-206.13 722,-202.84 712.07,-199.13 711.93,-206.13"/>
</g>
<!-- ReducedSampleDataBySpinChannel[Down, Down] -->
<g id="node7" class="node">
<title>ReducedSampleDataBySpinChannel[Down, Down]</title>
<polygon fill="none" stroke="red" stroke-dasharray="5,2" points="189,-91.34 85,-91.34 85,-70.34 189,-70.34 189,-91.34"/>
<text text-anchor="start" x="93" y="-77.74" font-family="Times,serif" font-size="12.00" fill="red">[Down, Down]</text>
</g>
<!-- PolarizationCorrectedData[Down, Down] -->
<g id="node8" class="node">
<title>PolarizationCorrectedData[Down, Down]</title>
<polygon fill="none" stroke="black" points="1100,-113.34 996,-113.34 996,-92.34 1100,-92.34 1100,-113.34"/>
<text text-anchor="start" x="1004" y="-99.74" font-family="Times,serif" font-size="12.00">[Down, Down]</text>
</g>
<!-- ReducedSampleDataBySpinChannel[Down, Down]&#45;&gt;PolarizationCorrectedData[Down, Down] -->
<g id="edge5" class="edge">
<title>ReducedSampleDataBySpinChannel[Down, Down]:e&#45;&gt;PolarizationCorrectedData[Down, Down]:w</title>
<path fill="none" stroke="black" d="M190,-80.84C228.29,-80.84 238.95,-79.72 275,-66.84 301.81,-57.26 302.99,-42.2 330.5,-34.84 359.35,-27.11 840.31,-23.66 868,-34.84 900.06,-47.78 893.35,-72.84 924,-88.84 949.28,-102.03 960.26,-102.83 984.85,-102.84"/>
<polygon fill="black" stroke="black" points="985,-106.34 995,-102.84 985,-99.34 985,-106.34"/>
</g>
<!-- PolarizingElementCorrection[Down, Down, Analyzer] -->
<g id="node19" class="node">
<title>PolarizingElementCorrection[Down, Down, Analyzer]</title>
<polygon fill="none" stroke="black" points="542.5,-163.34 378.5,-163.34 378.5,-142.34 542.5,-142.34 542.5,-163.34"/>
<text text-anchor="start" x="386.5" y="-149.74" font-family="Times,serif" font-size="12.00">[Down, Down, Analyzer]</text>
</g>
<!-- ReducedSampleDataBySpinChannel[Down, Down]&#45;&gt;PolarizingElementCorrection[Down, Down, Analyzer] -->
<g id="edge29" class="edge">
<title>ReducedSampleDataBySpinChannel[Down, Down]:e&#45;&gt;PolarizingElementCorrection[Down, Down, Analyzer]:w</title>
<path fill="none" stroke="black" d="M190,-80.84C228.36,-80.84 239.92,-80.3 275,-95.84 303.53,-108.47 302.74,-124.58 330.5,-138.84 346.41,-147 353.18,-151.19 367.13,-152.43"/>
<polygon fill="black" stroke="black" points="367.37,-155.94 377.5,-152.84 367.64,-148.95 367.37,-155.94"/>
</g>
<!-- PolarizingElementCorrection[Down, Down, Polarizer] -->
<g id="node20" class="node">
<title>PolarizingElementCorrection[Down, Down, Polarizer]</title>
<polygon fill="none" stroke="black" points="543.5,-138.34 377.5,-138.34 377.5,-117.34 543.5,-117.34 543.5,-138.34"/>
<text text-anchor="start" x="385.5" y="-124.74" font-family="Times,serif" font-size="12.00">[Down, Down, Polarizer]</text>
</g>
<!-- ReducedSampleDataBySpinChannel[Down, Down]&#45;&gt;PolarizingElementCorrection[Down, Down, Polarizer] -->
<g id="edge31" class="edge">
<title>ReducedSampleDataBySpinChannel[Down, Down]:e&#45;&gt;PolarizingElementCorrection[Down, Down, Polarizer]:w</title>
<path fill="none" stroke="black" d="M190,-80.84C254.14,-80.84 269.31,-94.6 330.5,-113.84 347.22,-119.09 353.08,-125.14 366.45,-127.15"/>
<polygon fill="black" stroke="black" points="366.29,-130.65 376.5,-127.84 366.76,-123.66 366.29,-130.65"/>
</g>
<!-- PolarizationCorrection[Down, Down]&#45;&gt;PolarizationCorrectedData[Down, Down] -->
<g id="edge6" class="edge">
<title>PolarizationCorrection[Down, Down]:e&#45;&gt;PolarizationCorrectedData[Down, Down]:w</title>
<path fill="none" stroke="black" d="M810,-177.84C836.52,-177.84 844.27,-175.66 868,-163.84 896.83,-149.47 894.97,-131.79 924,-117.84 949.78,-105.45 960.31,-103.23 984.85,-102.89"/>
<polygon fill="black" stroke="black" points="985.02,-106.39 995,-102.84 984.98,-99.39 985.02,-106.39"/>
</g>
<!-- ReducedSampleDataBySpinChannel[Down, Up] -->
<g id="node10" class="node">
<title>ReducedSampleDataBySpinChannel[Down, Up]</title>
<polygon fill="none" stroke="red" stroke-dasharray="5,2" points="180,-66.34 94,-66.34 94,-45.34 180,-45.34 180,-66.34"/>
<text text-anchor="start" x="102" y="-52.74" font-family="Times,serif" font-size="12.00" fill="red">[Down, Up]</text>
</g>
<!-- PolarizationCorrectedData[Down, Up] -->
<g id="node11" class="node">
<title>PolarizationCorrectedData[Down, Up]</title>
<polygon fill="none" stroke="black" points="1091,-88.34 1005,-88.34 1005,-67.34 1091,-67.34 1091,-88.34"/>
<text text-anchor="start" x="1013" y="-74.74" font-family="Times,serif" font-size="12.00">[Down, Up]</text>
</g>
<!-- ReducedSampleDataBySpinChannel[Down, Up]&#45;&gt;PolarizationCorrectedData[Down, Up] -->
<g id="edge7" class="edge">
<title>ReducedSampleDataBySpinChannel[Down, Up]:e&#45;&gt;PolarizationCorrectedData[Down, Up]:w</title>
<path fill="none" stroke="black" d="M181,-55.84C248.77,-55.84 263.06,-32.53 330.5,-25.84 568.22,-2.22 633.08,17.54 868,-25.84 928.16,-36.94 938.28,-73.52 993.88,-77.49"/>
<polygon fill="black" stroke="black" points="993.89,-80.99 1004,-77.84 994.13,-73.99 993.89,-80.99"/>
</g>
<!-- PolarizingElementCorrection[Down, Up, Analyzer] -->
<g id="node21" class="node">
<title>PolarizingElementCorrection[Down, Up, Analyzer]</title>
<polygon fill="none" stroke="black" points="533.5,-113.34 387.5,-113.34 387.5,-92.34 533.5,-92.34 533.5,-113.34"/>
<text text-anchor="start" x="395.5" y="-99.74" font-family="Times,serif" font-size="12.00">[Down, Up, Analyzer]</text>
</g>
<!-- ReducedSampleDataBySpinChannel[Down, Up]&#45;&gt;PolarizingElementCorrection[Down, Up, Analyzer] -->
<g id="edge33" class="edge">
<title>ReducedSampleDataBySpinChannel[Down, Up]:e&#45;&gt;PolarizingElementCorrection[Down, Up, Analyzer]:w</title>
<path fill="none" stroke="black" d="M181,-55.84C223.31,-55.84 233.87,-60.95 275,-70.84 300.21,-76.9 305.57,-81.69 330.5,-88.84 351.5,-94.86 358.74,-100.78 376.27,-102.4"/>
<polygon fill="black" stroke="black" points="376.36,-105.91 386.5,-102.84 376.66,-98.91 376.36,-105.91"/>
</g>
<!-- PolarizingElementCorrection[Down, Up, Polarizer] -->
<g id="node22" class="node">
<title>PolarizingElementCorrection[Down, Up, Polarizer]</title>
<polygon fill="none" stroke="black" points="534.5,-88.34 386.5,-88.34 386.5,-67.34 534.5,-67.34 534.5,-88.34"/>
<text text-anchor="start" x="394.5" y="-74.74" font-family="Times,serif" font-size="12.00">[Down, Up, Polarizer]</text>
</g>
<!-- ReducedSampleDataBySpinChannel[Down, Up]&#45;&gt;PolarizingElementCorrection[Down, Up, Polarizer] -->
<g id="edge35" class="edge">
<title>ReducedSampleDataBySpinChannel[Down, Up]:e&#45;&gt;PolarizingElementCorrection[Down, Up, Polarizer]:w</title>
<path fill="none" stroke="black" d="M181,-55.84C268.93,-55.84 292.33,-76.19 375.35,-77.74"/>
<polygon fill="black" stroke="black" points="375.47,-81.24 385.5,-77.84 375.53,-74.24 375.47,-81.24"/>
</g>
<!-- PolarizationCorrection[Down, Up]&#45;&gt;PolarizationCorrectedData[Down, Up] -->
<g id="edge8" class="edge">
<title>PolarizationCorrection[Down, Up]:e&#45;&gt;PolarizationCorrectedData[Down, Up]:w</title>
<path fill="none" stroke="black" d="M801,-152.84C861.82,-152.84 866.26,-111.94 924,-92.84 954.86,-82.62 965.64,-78.65 993.75,-77.95"/>
<polygon fill="black" stroke="black" points="994.04,-81.45 1004,-77.84 993.96,-74.45 994.04,-81.45"/>
</g>
<!-- ReducedSampleDataBySpinChannel[Up, Down] -->
<g id="node13" class="node">
<title>ReducedSampleDataBySpinChannel[Up, Down]</title>
<polygon fill="none" stroke="red" stroke-dasharray="5,2" points="180,-141.34 94,-141.34 94,-120.34 180,-120.34 180,-141.34"/>
<text text-anchor="start" x="102" y="-127.74" font-family="Times,serif" font-size="12.00" fill="red">[Up, Down]</text>
</g>
<!-- PolarizationCorrectedData[Up, Down] -->
<g id="node14" class="node">
<title>PolarizationCorrectedData[Up, Down]</title>
<polygon fill="none" stroke="black" points="1091,-163.34 1005,-163.34 1005,-142.34 1091,-142.34 1091,-163.34"/>
<text text-anchor="start" x="1013" y="-149.74" font-family="Times,serif" font-size="12.00">[Up, Down]</text>
</g>
<!-- ReducedSampleDataBySpinChannel[Up, Down]&#45;&gt;PolarizationCorrectedData[Up, Down] -->
<g id="edge9" class="edge">
<title>ReducedSampleDataBySpinChannel[Up, Down]:e&#45;&gt;PolarizationCorrectedData[Up, Down]:w</title>
<path fill="none" stroke="black" d="M181,-130.84C223.24,-130.84 237.57,-136.41 275,-116.84 306.9,-100.15 297.45,-72.12 330.5,-57.84 383.74,-34.82 533.91,-50.92 591.5,-57.84 681.7,-68.66 894.7,-147.19 993.91,-152.55"/>
<polygon fill="black" stroke="black" points="993.9,-156.05 1004,-152.84 994.1,-149.05 993.9,-156.05"/>
</g>
<!-- PolarizingElementCorrection[Up, Down, Analyzer] -->
<g id="node23" class="node">
<title>PolarizingElementCorrection[Up, Down, Analyzer]</title>
<polygon fill="none" stroke="black" points="533.5,-263.34 387.5,-263.34 387.5,-242.34 533.5,-242.34 533.5,-263.34"/>
<text text-anchor="start" x="395.5" y="-249.74" font-family="Times,serif" font-size="12.00">[Up, Down, Analyzer]</text>
</g>
<!-- ReducedSampleDataBySpinChannel[Up, Down]&#45;&gt;PolarizingElementCorrection[Up, Down, Analyzer] -->
<g id="edge37" class="edge">
<title>ReducedSampleDataBySpinChannel[Up, Down]:e&#45;&gt;PolarizingElementCorrection[Up, Down, Analyzer]:w</title>
<path fill="none" stroke="black" d="M181,-130.84C228.11,-130.84 237.44,-151.39 275,-179.84 303.7,-201.57 299.45,-220.62 330.5,-238.84 349.34,-249.89 358.1,-252.27 376.13,-252.73"/>
<polygon fill="black" stroke="black" points="376.47,-256.24 386.5,-252.84 376.54,-249.24 376.47,-256.24"/>
</g>
<!-- PolarizingElementCorrection[Up, Down, Polarizer] -->
<g id="node24" class="node">
<title>PolarizingElementCorrection[Up, Down, Polarizer]</title>
<polygon fill="none" stroke="black" points="534.5,-238.34 386.5,-238.34 386.5,-217.34 534.5,-217.34 534.5,-238.34"/>
<text text-anchor="start" x="394.5" y="-224.74" font-family="Times,serif" font-size="12.00">[Up, Down, Polarizer]</text>
</g>
<!-- ReducedSampleDataBySpinChannel[Up, Down]&#45;&gt;PolarizingElementCorrection[Up, Down, Polarizer] -->
<g id="edge39" class="edge">
<title>ReducedSampleDataBySpinChannel[Up, Down]:e&#45;&gt;PolarizingElementCorrection[Up, Down, Polarizer]:w</title>
<path fill="none" stroke="black" d="M181,-130.84C278.06,-130.84 284.55,-221.13 375.24,-227.48"/>
<polygon fill="black" stroke="black" points="375.39,-230.99 385.5,-227.84 375.63,-223.99 375.39,-230.99"/>
</g>
<!-- PolarizationCorrection[Up, Down]&#45;&gt;PolarizationCorrectedData[Up, Down] -->
<g id="edge10" class="edge">
<title>PolarizationCorrection[Up, Down]:e&#45;&gt;PolarizationCorrectedData[Up, Down]:w</title>
<path fill="none" stroke="black" d="M801,-227.84C831.42,-227.84 839.06,-223.23 868,-213.84 927.69,-194.46 936.89,-157.06 994,-153.16"/>
<polygon fill="black" stroke="black" points="994.12,-156.66 1004,-152.84 993.89,-149.67 994.12,-156.66"/>
</g>
<!-- ReducedSampleDataBySpinChannel[Up, Up] -->
<g id="node16" class="node">
<title>ReducedSampleDataBySpinChannel[Up, Up]</title>
<polygon fill="none" stroke="red" stroke-dasharray="5,2" points="171,-116.34 103,-116.34 103,-95.34 171,-95.34 171,-116.34"/>
<text text-anchor="start" x="111" y="-102.74" font-family="Times,serif" font-size="12.00" fill="red">[Up, Up]</text>
</g>
<!-- PolarizationCorrectedData[Up, Up] -->
<g id="node17" class="node">
<title>PolarizationCorrectedData[Up, Up]</title>
<polygon fill="none" stroke="black" points="1082,-138.34 1014,-138.34 1014,-117.34 1082,-117.34 1082,-138.34"/>
<text text-anchor="start" x="1022" y="-124.74" font-family="Times,serif" font-size="12.00">[Up, Up]</text>
</g>
<!-- ReducedSampleDataBySpinChannel[Up, Up]&#45;&gt;PolarizationCorrectedData[Up, Up] -->
<g id="edge11" class="edge">
<title>ReducedSampleDataBySpinChannel[Up, Up]:e&#45;&gt;PolarizationCorrectedData[Up, Up]:w</title>
<path fill="none" stroke="black" d="M172,-105.84C218.2,-105.84 232.8,-110.63 275,-91.84 304.53,-78.69 300.15,-55.96 330.5,-44.84 386.63,-24.26 812.61,-45.37 868,-67.84 897.85,-79.94 894.61,-100.65 924,-113.84 957.25,-128.76 970.53,-128.11 1002.84,-127.88"/>
<polygon fill="black" stroke="black" points="1003.01,-131.38 1013,-127.84 1002.99,-124.38 1003.01,-131.38"/>
</g>
<!-- PolarizingElementCorrection[Up, Up, Analyzer] -->
<g id="node25" class="node">
<title>PolarizingElementCorrection[Up, Up, Analyzer]</title>
<polygon fill="none" stroke="black" points="524.5,-213.34 396.5,-213.34 396.5,-192.34 524.5,-192.34 524.5,-213.34"/>
<text text-anchor="start" x="404.5" y="-199.74" font-family="Times,serif" font-size="12.00">[Up, Up, Analyzer]</text>
</g>
<!-- ReducedSampleDataBySpinChannel[Up, Up]&#45;&gt;PolarizingElementCorrection[Up, Up, Analyzer] -->
<g id="edge41" class="edge">
<title>ReducedSampleDataBySpinChannel[Up, Up]:e&#45;&gt;PolarizingElementCorrection[Up, Up, Analyzer]:w</title>
<path fill="none" stroke="black" d="M172,-105.84C218.26,-105.84 234.75,-98.03 275,-120.84 308.94,-140.06 297.23,-168.47 330.5,-188.84 352.55,-202.33 363.15,-202.93 385.26,-202.87"/>
<polygon fill="black" stroke="black" points="385.51,-206.37 395.5,-202.84 385.49,-199.37 385.51,-206.37"/>
</g>
<!-- PolarizingElementCorrection[Up, Up, Polarizer] -->
<g id="node26" class="node">
<title>PolarizingElementCorrection[Up, Up, Polarizer]</title>
<polygon fill="none" stroke="black" points="525.5,-188.34 395.5,-188.34 395.5,-167.34 525.5,-167.34 525.5,-188.34"/>
<text text-anchor="start" x="403.5" y="-174.74" font-family="Times,serif" font-size="12.00">[Up, Up, Polarizer]</text>
</g>
<!-- ReducedSampleDataBySpinChannel[Up, Up]&#45;&gt;PolarizingElementCorrection[Up, Up, Polarizer] -->
<g id="edge43" class="edge">
<title>ReducedSampleDataBySpinChannel[Up, Up]:e&#45;&gt;PolarizingElementCorrection[Up, Up, Polarizer]:w</title>
<path fill="none" stroke="black" d="M172,-105.84C218.26,-105.84 232.43,-102.74 275,-120.84 303.72,-133.04 302.23,-150.62 330.5,-163.84 353.58,-174.62 362.98,-177.25 384.47,-177.74"/>
<polygon fill="black" stroke="black" points="384.47,-181.24 394.5,-177.84 384.53,-174.24 384.47,-181.24"/>
</g>
<!-- PolarizationCorrection[Up, Up]&#45;&gt;PolarizationCorrectedData[Up, Up] -->
<g id="edge12" class="edge">
<title>PolarizationCorrection[Up, Up]:e&#45;&gt;PolarizationCorrectedData[Up, Up]:w</title>
<path fill="none" stroke="black" d="M792,-202.84C826.35,-202.84 836.85,-203.31 868,-188.84 897.21,-175.26 894.69,-156.18 924,-142.84 957.23,-127.7 970.47,-127.69 1002.82,-127.81"/>
<polygon fill="black" stroke="black" points="1002.99,-131.31 1013,-127.84 1003.01,-124.31 1002.99,-131.31"/>
</g>
<!-- PolarizingElementCorrection[Down, Down, Analyzer]&#45;&gt;PolarizationCorrection[Down, Down] -->
<g id="edge13" class="edge">
<title>PolarizingElementCorrection[Down, Down, Analyzer]:e&#45;&gt;PolarizationCorrection[Down, Down]:w</title>
<path fill="none" stroke="black" d="M543.5,-152.84C612.17,-152.84 630.1,-175.45 693.81,-177.66"/>
<polygon fill="black" stroke="black" points="693.94,-181.16 704,-177.84 694.06,-174.17 693.94,-181.16"/>
</g>
<!-- PolarizingElementCorrection[Down, Down, Polarizer]&#45;&gt;PolarizationCorrection[Down, Down] -->
<g id="edge14" class="edge">
<title>PolarizingElementCorrection[Down, Down, Polarizer]:e&#45;&gt;PolarizationCorrection[Down, Down]:w</title>
<path fill="none" stroke="black" d="M544.5,-127.84C615.31,-127.84 628.55,-173.26 693.96,-177.52"/>
<polygon fill="black" stroke="black" points="693.89,-181.02 704,-177.84 694.12,-174.02 693.89,-181.02"/>
</g>
<!-- PolarizingElementCorrection[Down, Up, Analyzer]&#45;&gt;PolarizationCorrection[Down, Up] -->
<g id="edge17" class="edge">
<title>PolarizingElementCorrection[Down, Up, Analyzer]:e&#45;&gt;PolarizationCorrection[Down, Up]:w</title>
<path fill="none" stroke="black" d="M534.5,-102.84C613.35,-102.84 629.31,-148.63 702.75,-152.57"/>
<polygon fill="black" stroke="black" points="702.91,-156.07 713,-152.84 703.1,-149.07 702.91,-156.07"/>
</g>
<!-- PolarizingElementCorrection[Down, Up, Polarizer]&#45;&gt;PolarizationCorrection[Down, Up] -->
<g id="edge18" class="edge">
<title>PolarizingElementCorrection[Down, Up, Polarizer]:e&#45;&gt;PolarizationCorrection[Down, Up]:w</title>
<path fill="none" stroke="black" d="M535.5,-77.84C617.63,-77.84 626.71,-146.81 702.85,-152.47"/>
<polygon fill="black" stroke="black" points="702.88,-155.97 713,-152.84 703.13,-148.97 702.88,-155.97"/>
</g>
<!-- PolarizingElementCorrection[Up, Down, Analyzer]&#45;&gt;PolarizationCorrection[Up, Down] -->
<g id="edge21" class="edge">
<title>PolarizingElementCorrection[Up, Down, Analyzer]:e&#45;&gt;PolarizationCorrection[Up, Down]:w</title>
<path fill="none" stroke="black" d="M534.5,-252.84C611.01,-252.84 631.12,-230.03 702.57,-227.98"/>
<polygon fill="black" stroke="black" points="703.05,-231.48 713,-227.84 702.95,-224.48 703.05,-231.48"/>
</g>
<!-- PolarizingElementCorrection[Up, Down, Polarizer]&#45;&gt;PolarizationCorrection[Up, Down] -->
<g id="edge22" class="edge">
<title>PolarizingElementCorrection[Up, Down, Polarizer]:e&#45;&gt;PolarizationCorrection[Up, Down]:w</title>
<path fill="none" stroke="black" d="M535.5,-227.84C610.85,-227.84 632.22,-227.84 702.72,-227.84"/>
<polygon fill="black" stroke="black" points="703,-231.34 713,-227.84 703,-224.34 703,-231.34"/>
</g>
<!-- PolarizingElementCorrection[Up, Up, Analyzer]&#45;&gt;PolarizationCorrection[Up, Up] -->
<g id="edge25" class="edge">
<title>PolarizingElementCorrection[Up, Up, Analyzer]:e&#45;&gt;PolarizationCorrection[Up, Up]:w</title>
<path fill="none" stroke="black" d="M525.5,-202.84C609.25,-202.84 632.77,-202.84 711.58,-202.84"/>
<polygon fill="black" stroke="black" points="712,-206.34 722,-202.84 712,-199.34 712,-206.34"/>
</g>
<!-- PolarizingElementCorrection[Up, Up, Polarizer]&#45;&gt;PolarizationCorrection[Up, Up] -->
<g id="edge26" class="edge">
<title>PolarizingElementCorrection[Up, Up, Polarizer]:e&#45;&gt;PolarizationCorrection[Up, Up]:w</title>
<path fill="none" stroke="black" d="M526.5,-177.84C610.5,-177.84 632.62,-200.83 711.55,-202.71"/>
<polygon fill="black" stroke="black" points="711.96,-206.22 722,-202.84 712.04,-199.22 711.96,-206.22"/>
</g>
<!-- TransmissionFunction[Analyzer] -->
<g id="node27" class="node">
<title>TransmissionFunction[Analyzer]</title>
<polygon fill="none" stroke="red" stroke-dasharray="5,2" points="176.5,-235.34 97.5,-235.34 97.5,-214.34 176.5,-214.34 176.5,-235.34"/>
<text text-anchor="start" x="105.5" y="-221.74" font-family="Times,serif" font-size="12.00" fill="red">[Analyzer]</text>
</g>
<!-- TransmissionFunction[Analyzer]&#45;&gt;PolarizingElementCorrection[Down, Down, Analyzer] -->
<g id="edge30" class="edge">
<title>TransmissionFunction[Analyzer]:e&#45;&gt;PolarizingElementCorrection[Down, Down, Analyzer]:w</title>
<path fill="none" stroke="black" d="M177,-224.84C221,-224.84 234.48,-227.99 275,-210.84 303.73,-198.67 302.88,-182.36 330.5,-167.84 346.57,-159.38 353.22,-154.64 367.48,-153.26"/>
<polygon fill="black" stroke="black" points="367.66,-156.76 377.5,-152.84 367.36,-149.77 367.66,-156.76"/>
</g>
<!-- TransmissionFunction[Analyzer]&#45;&gt;PolarizingElementCorrection[Down, Up, Analyzer] -->
<g id="edge34" class="edge">
<title>TransmissionFunction[Analyzer]:e&#45;&gt;PolarizingElementCorrection[Down, Up, Analyzer]:w</title>
<path fill="none" stroke="black" d="M177,-224.84C221,-224.84 238.38,-235.22 275,-210.84 315.07,-184.16 292.1,-146.86 330.5,-117.84 348.08,-104.54 357.71,-103.02 376.25,-102.85"/>
<polygon fill="black" stroke="black" points="376.51,-106.35 386.5,-102.84 376.49,-99.35 376.51,-106.35"/>
</g>
<!-- TransmissionFunction[Analyzer]&#45;&gt;PolarizingElementCorrection[Up, Down, Analyzer] -->
<g id="edge38" class="edge">
<title>TransmissionFunction[Analyzer]:e&#45;&gt;PolarizingElementCorrection[Up, Down, Analyzer]:w</title>
<path fill="none" stroke="black" d="M177,-224.84C267.45,-224.84 290.86,-250.8 376.33,-252.72"/>
<polygon fill="black" stroke="black" points="376.46,-256.22 386.5,-252.84 376.54,-249.22 376.46,-256.22"/>
</g>
<!-- TransmissionFunction[Analyzer]&#45;&gt;PolarizingElementCorrection[Up, Up, Analyzer] -->
<g id="edge42" class="edge">
<title>TransmissionFunction[Analyzer]:e&#45;&gt;PolarizingElementCorrection[Up, Up, Analyzer]:w</title>
<path fill="none" stroke="black" d="M177,-224.84C271.17,-224.84 296.17,-204.35 385.48,-202.91"/>
<polygon fill="black" stroke="black" points="385.53,-206.41 395.5,-202.84 385.47,-199.41 385.53,-206.41"/>
</g>
<!-- TransmissionFunction[Polarizer] -->
<g id="node28" class="node">
<title>TransmissionFunction[Polarizer]</title>
<polygon fill="none" stroke="red" stroke-dasharray="5,2" points="177,-210.34 97,-210.34 97,-189.34 177,-189.34 177,-210.34"/>
<text text-anchor="start" x="105" y="-196.74" font-family="Times,serif" font-size="12.00" fill="red">[Polarizer]</text>
</g>
<!-- TransmissionFunction[Polarizer]&#45;&gt;PolarizingElementCorrection[Down, Down, Polarizer] -->
<g id="edge32" class="edge">
<title>TransmissionFunction[Polarizer]:e&#45;&gt;PolarizingElementCorrection[Down, Down, Polarizer]:w</title>
<path fill="none" stroke="black" d="M178,-199.84C222.63,-199.84 233.64,-190.62 275,-173.84 301.18,-163.21 304.61,-154.16 330.5,-142.84 346.66,-135.77 352.79,-130.2 366.34,-128.43"/>
<polygon fill="black" stroke="black" points="366.72,-131.91 376.5,-127.84 366.31,-124.93 366.72,-131.91"/>
</g>
<!-- TransmissionFunction[Polarizer]&#45;&gt;PolarizingElementCorrection[Down, Up, Polarizer] -->
<g id="edge36" class="edge">
<title>TransmissionFunction[Polarizer]:e&#45;&gt;PolarizingElementCorrection[Down, Up, Polarizer]:w</title>
<path fill="none" stroke="black" d="M178,-199.84C222.63,-199.84 238.57,-199.62 275,-173.84 310.62,-148.62 294.94,-118.13 330.5,-92.84 348.08,-80.33 357.23,-78.25 375.2,-77.9"/>
<polygon fill="black" stroke="black" points="375.52,-81.4 385.5,-77.84 375.48,-74.4 375.52,-81.4"/>
</g>
<!-- TransmissionFunction[Polarizer]&#45;&gt;PolarizingElementCorrection[Up, Down, Polarizer] -->
<g id="edge40" class="edge">
<title>TransmissionFunction[Polarizer]:e&#45;&gt;PolarizingElementCorrection[Up, Down, Polarizer]:w</title>
<path fill="none" stroke="black" d="M178,-199.84C267.6,-199.84 290.76,-225.8 375.43,-227.72"/>
<polygon fill="black" stroke="black" points="375.46,-231.22 385.5,-227.84 375.54,-224.22 375.46,-231.22"/>
</g>
<!-- TransmissionFunction[Polarizer]&#45;&gt;PolarizingElementCorrection[Up, Up, Polarizer] -->
<g id="edge44" class="edge">
<title>TransmissionFunction[Polarizer]:e&#45;&gt;PolarizingElementCorrection[Up, Up, Polarizer]:w</title>
<path fill="none" stroke="black" d="M178,-199.84C271.22,-199.84 296.02,-179.4 384.3,-177.92"/>
<polygon fill="black" stroke="black" points="384.53,-181.42 394.5,-177.84 384.47,-174.42 384.53,-181.42"/>
</g>
</g>
</svg>
