<?xml version="1.0" encoding="UTF-8" standalone="no"?>
<!DOCTYPE svg PUBLIC "-//W3C//DTD SVG 1.1//EN"
 "http://www.w3.org/Graphics/SVG/1.1/DTD/svg11.dtd">
<!-- Generated by graphviz version 2.43.0 (0)
 -->
<!-- Title: %3 Pages: 1 -->
<svg width="1211pt" height="288pt"
 viewBox="0.00 0.00 1210.50 288.00" xmlns="http://www.w3.org/2000/svg" xmlns:xlink="http://www.w3.org/1999/xlink">
<g id="graph0" class="graph" transform="scale(1 1) rotate(0) translate(4 284)">
<title>%3</title>
<polygon fill="white" stroke="transparent" points="-4,4 -4,-284 1206.5,-284 1206.5,4 -4,4"/>
<g id="clust2" class="cluster">
<title>cluster_HalfPolarizedCorrectedData</title>
<polygon fill="#f0f0ff" stroke="#f0f0ff" points="943.5,-136 943.5,-232 1202.5,-232 1202.5,-136 943.5,-136"/>
<text text-anchor="start" x="972" y="-217.8" font-family="Times,serif" font-size="14.00">HalfPolarizedCorrectedData</text>
<text text-anchor="start" x="951.5" y="-206.2" font-family="Times,serif" font-size="11.00">via:</text>
<text text-anchor="start" x="972.5" y="-206.2" font-family="Times,serif" font-style="italic" font-size="11.00">compute_half_polarized_corrected_data</text>
</g>
<g id="clust3" class="cluster">
<title>cluster_HalfPolarizedCorrection</title>
<polygon fill="#f0f0ff" stroke="#f0f0ff" points="654.5,-122 654.5,-218 887.5,-218 887.5,-122 654.5,-122"/>
<text text-anchor="start" x="685" y="-203.8" font-family="Times,serif" font-size="14.00">HalfPolarizedCorrection</text>
<text text-anchor="start" x="662.5" y="-192.2" font-family="Times,serif" font-size="11.00">via:</text>
<text text-anchor="start" x="683.5" y="-192.2" font-family="Times,serif" font-style="italic" font-size="11.00">compute_half_polarized_correction</text>
</g>
<g id="clust4" class="cluster">
<title>cluster_InverseFlipperMatrix</title>
<polygon fill="#f0f0ff" stroke="#f0f0ff" points="349.5,-8 349.5,-114 586.5,-114 586.5,-8 349.5,-8"/>
<text text-anchor="middle" x="468" y="-98.8" font-family="Times,serif" font-size="14.00">InverseFlipperMatrix</text>
</g>
<g id="clust5" class="cluster">
<title>cluster_PolarizingElementCorrection</title>
<polygon fill="#f0f0ff" stroke="#f0f0ff" points="338,-122 338,-218 599,-218 599,-122 338,-122"/>
<text text-anchor="start" x="364.5" y="-203.8" font-family="Times,serif" font-size="14.00">PolarizingElementCorrection</text>
<text text-anchor="start" x="346" y="-192.2" font-family="Times,serif" font-size="11.00">via:</text>
<text text-anchor="start" x="367" y="-192.2" font-family="Times,serif" font-style="italic" font-size="11.00">compute_polarizing_element_correction</text>
</g>
<g id="clust6" class="cluster">
<title>cluster_ReducedSampleDataBySpinChannel</title>
<polygon fill="#f0f0ff" stroke="#f0f0ff" points="0,-186 0,-272 275,-272 275,-186 0,-186"/>
<text text-anchor="middle" x="137.5" y="-256.8" font-family="Times,serif" font-size="14.00">ReducedSampleDataBySpinChannel</text>
</g>
<!-- FlipperEfficiency[Polarizer] -->
<g id="node1" class="node">
<title>FlipperEfficiency[Polarizer]</title>
<polygon fill="none" stroke="black" points="243,-60.5 31,-60.5 31,-37.5 243,-37.5 243,-60.5"/>
<text text-anchor="middle" x="137" y="-45.3" font-family="Times,serif" font-size="14.00">FlipperEfficiency[Polarizer]</text>
</g>
<!-- InverseFlipperMatrix[Down, Polarizer] -->
<g id="node9" class="node">
<title>InverseFlipperMatrix[Down, Polarizer]</title>
<polygon fill="none" stroke="black" points="578.5,-82.5 357.5,-82.5 357.5,-51.5 578.5,-51.5 578.5,-82.5"/>
<text text-anchor="start" x="414.5" y="-69.9" font-family="Times,serif" font-size="12.00">[Down, Polarizer]</text>
<text text-anchor="start" x="365.5" y="-58.7" font-family="Times,serif" font-size="11.00">via:</text>
<text text-anchor="start" x="386.5" y="-58.7" font-family="Times,serif" font-style="italic" font-size="11.00">make_spin_flipping_matrix_down</text>
</g>
<!-- FlipperEfficiency[Polarizer]&#45;&gt;InverseFlipperMatrix[Down, Polarizer] -->
<g id="edge9" class="edge">
<title>FlipperEfficiency[Polarizer]:e&#45;&gt;InverseFlipperMatrix[Down, Polarizer]:w</title>
<path fill="none" stroke="black" d="M244,-49C291.28,-49 304.36,-64.56 346.83,-66.75"/>
<polygon fill="black" stroke="black" points="346.92,-70.25 357,-67 347.09,-63.25 346.92,-70.25"/>
</g>
<!-- InverseFlipperMatrix[Up, Polarizer] -->
<g id="node11" class="node">
<title>InverseFlipperMatrix[Up, Polarizer]</title>
<polygon fill="none" stroke="black" points="570.5,-47.5 365.5,-47.5 365.5,-16.5 570.5,-16.5 570.5,-47.5"/>
<text text-anchor="start" x="423.5" y="-34.9" font-family="Times,serif" font-size="12.00">[Up, Polarizer]</text>
<text text-anchor="start" x="373.5" y="-23.7" font-family="Times,serif" font-size="11.00">via:</text>
<text text-anchor="start" x="394.5" y="-23.7" font-family="Times,serif" font-style="italic" font-size="11.00">make_spin_flipping_matrix_up</text>
</g>
<!-- FlipperEfficiency[Polarizer]&#45;&gt;InverseFlipperMatrix[Up, Polarizer] -->
<g id="edge10" class="edge">
<title>FlipperEfficiency[Polarizer]:e&#45;&gt;InverseFlipperMatrix[Up, Polarizer]:w</title>
<path fill="none" stroke="black" d="M244,-49C294.81,-49 308.92,-34.12 355,-32.2"/>
<polygon fill="black" stroke="black" points="355.07,-35.7 365,-32 354.93,-28.7 355.07,-35.7"/>
</g>
<!-- ReducedSampleDataBySpinChannel[Down, Up] -->
<g id="node2" class="node">
<title>ReducedSampleDataBySpinChannel[Down, Up]</title>
<polygon fill="none" stroke="red" stroke-dasharray="5,2" points="180,-240.5 94,-240.5 94,-219.5 180,-219.5 180,-240.5"/>
<text text-anchor="start" x="102" y="-226.9" font-family="Times,serif" font-size="12.00" fill="red">[Down, Up]</text>
</g>
<!-- HalfPolarizedCorrectedData[Down] -->
<g id="node3" class="node">
<title>HalfPolarizedCorrectedData[Down]</title>
<polygon fill="none" stroke="black" points="1103.5,-190.5 1042.5,-190.5 1042.5,-169.5 1103.5,-169.5 1103.5,-190.5"/>
<text text-anchor="start" x="1050.5" y="-176.9" font-family="Times,serif" font-size="12.00">[Down]</text>
</g>
<!-- ReducedSampleDataBySpinChannel[Down, Up]&#45;&gt;HalfPolarizedCorrectedData[Down] -->
<g id="edge1" class="edge">
<title>ReducedSampleDataBySpinChannel[Down, Up]:e&#45;&gt;HalfPolarizedCorrectedData[Down]:w</title>
<path fill="none" stroke="black" d="M181,-230C495,-230 577.68,-283.05 887.5,-232 955.1,-220.86 967.81,-183.87 1030.88,-180.28"/>
<polygon fill="black" stroke="black" points="1031.1,-183.78 1041,-180 1030.91,-176.78 1031.1,-183.78"/>
</g>
<!-- PolarizingElementCorrection[Down, Up, Polarizer] -->
<g id="node8" class="node">
<title>PolarizingElementCorrection[Down, Up, Polarizer]</title>
<polygon fill="none" stroke="black" points="542,-176.5 394,-176.5 394,-155.5 542,-155.5 542,-176.5"/>
<text text-anchor="start" x="402" y="-162.9" font-family="Times,serif" font-size="12.00">[Down, Up, Polarizer]</text>
</g>
<!-- ReducedSampleDataBySpinChannel[Down, Up]&#45;&gt;PolarizingElementCorrection[Down, Up, Polarizer] -->
<g id="edge11" class="edge">
<title>ReducedSampleDataBySpinChannel[Down, Up]:e&#45;&gt;PolarizingElementCorrection[Down, Up, Polarizer]:w</title>
<path fill="none" stroke="black" d="M181,-230C223.24,-230 234.34,-227.44 275,-216 326.4,-201.53 335.08,-170.25 382.89,-166.39"/>
<polygon fill="black" stroke="black" points="383.14,-169.88 393,-166 382.87,-162.89 383.14,-169.88"/>
</g>
<!-- HalfPolarizedCorrection[Down] -->
<g id="node4" class="node">
<title>HalfPolarizedCorrection[Down]</title>
<polygon fill="none" stroke="black" points="801.5,-176.5 740.5,-176.5 740.5,-155.5 801.5,-155.5 801.5,-176.5"/>
<text text-anchor="start" x="748.5" y="-162.9" font-family="Times,serif" font-size="12.00">[Down]</text>
</g>
<!-- HalfPolarizedCorrection[Down]&#45;&gt;HalfPolarizedCorrectedData[Down] -->
<g id="edge2" class="edge">
<title>HalfPolarizedCorrection[Down]:e&#45;&gt;HalfPolarizedCorrectedData[Down]:w</title>
<path fill="none" stroke="black" d="M803,-166C905.55,-166 933.28,-179.11 1031,-179.96"/>
<polygon fill="black" stroke="black" points="1030.99,-183.46 1041,-180 1031.02,-176.46 1030.99,-183.46"/>
</g>
<!-- ReducedSampleDataBySpinChannel[Up, Up] -->
<g id="node5" class="node">
<title>ReducedSampleDataBySpinChannel[Up, Up]</title>
<polygon fill="none" stroke="red" stroke-dasharray="5,2" points="171,-215.5 103,-215.5 103,-194.5 171,-194.5 171,-215.5"/>
<text text-anchor="start" x="111" y="-201.9" font-family="Times,serif" font-size="12.00" fill="red">[Up, Up]</text>
</g>
<!-- HalfPolarizedCorrectedData[Up] -->
<g id="node6" class="node">
<title>HalfPolarizedCorrectedData[Up]</title>
<polygon fill="none" stroke="black" points="1094.5,-165.5 1051.5,-165.5 1051.5,-144.5 1094.5,-144.5 1094.5,-165.5"/>
<text text-anchor="start" x="1059.5" y="-151.9" font-family="Times,serif" font-size="12.00">[Up]</text>
</g>
<!-- ReducedSampleDataBySpinChannel[Up, Up]&#45;&gt;HalfPolarizedCorrectedData[Up] -->
<g id="edge3" class="edge">
<title>ReducedSampleDataBySpinChannel[Up, Up]:e&#45;&gt;HalfPolarizedCorrectedData[Up]:w</title>
<path fill="none" stroke="black" d="M172,-205C246.04,-205 264.03,-215.89 338,-219 399,-221.57 830.35,-240.47 887.5,-219 918.46,-207.37 913.43,-183.77 943.5,-170 983.74,-151.58 999.78,-154.41 1039.87,-154.93"/>
<polygon fill="black" stroke="black" points="1039.98,-158.43 1050,-155 1040.02,-151.43 1039.98,-158.43"/>
</g>
<!-- PolarizingElementCorrection[Up, Up, Polarizer] -->
<g id="node10" class="node">
<title>PolarizingElementCorrection[Up, Up, Polarizer]</title>
<polygon fill="none" stroke="black" points="533,-151.5 403,-151.5 403,-130.5 533,-130.5 533,-151.5"/>
<text text-anchor="start" x="411" y="-137.9" font-family="Times,serif" font-size="12.00">[Up, Up, Polarizer]</text>
</g>
<!-- ReducedSampleDataBySpinChannel[Up, Up]&#45;&gt;PolarizingElementCorrection[Up, Up, Polarizer] -->
<g id="edge13" class="edge">
<title>ReducedSampleDataBySpinChannel[Up, Up]:e&#45;&gt;PolarizingElementCorrection[Up, Up, Polarizer]:w</title>
<path fill="none" stroke="black" d="M172,-205C274.58,-205 294.62,-145.18 391.72,-141.21"/>
<polygon fill="black" stroke="black" points="392.07,-144.7 402,-141 391.93,-137.7 392.07,-144.7"/>
</g>
<!-- HalfPolarizedCorrection[Up] -->
<g id="node7" class="node">
<title>HalfPolarizedCorrection[Up]</title>
<polygon fill="none" stroke="black" points="792.5,-151.5 749.5,-151.5 749.5,-130.5 792.5,-130.5 792.5,-151.5"/>
<text text-anchor="start" x="757.5" y="-137.9" font-family="Times,serif" font-size="12.00">[Up]</text>
</g>
<!-- HalfPolarizedCorrection[Up]&#45;&gt;HalfPolarizedCorrectedData[Up] -->
<g id="edge4" class="edge">
<title>HalfPolarizedCorrection[Up]:e&#45;&gt;HalfPolarizedCorrectedData[Up]:w</title>
<path fill="none" stroke="black" d="M794,-141C904.5,-141 934.27,-154.17 1039.88,-154.96"/>
<polygon fill="black" stroke="black" points="1039.99,-158.46 1050,-155 1040.01,-151.46 1039.99,-158.46"/>
</g>
<!-- PolarizingElementCorrection[Down, Up, Polarizer]&#45;&gt;HalfPolarizedCorrection[Down] -->
<g id="edge5" class="edge">
<title>PolarizingElementCorrection[Down, Up, Polarizer]:e&#45;&gt;HalfPolarizedCorrection[Down]:w</title>
<path fill="none" stroke="black" d="M543,-166C626.54,-166 649.99,-166 728.6,-166"/>
<polygon fill="black" stroke="black" points="729,-169.5 739,-166 729,-162.5 729,-169.5"/>
</g>
<!-- InverseFlipperMatrix[Down, Polarizer]&#45;&gt;HalfPolarizedCorrection[Down] -->
<g id="edge6" class="edge">
<title>InverseFlipperMatrix[Down, Polarizer]:e&#45;&gt;HalfPolarizedCorrection[Down]:w</title>
<path fill="none" stroke="black" d="M579,-67C629.53,-67 610.26,-127.58 654.5,-152 684.7,-168.67 698.3,-166.62 728.91,-166.09"/>
<polygon fill="black" stroke="black" points="729.03,-169.59 739,-166 728.97,-162.59 729.03,-169.59"/>
</g>
<!-- PolarizingElementCorrection[Up, Up, Polarizer]&#45;&gt;HalfPolarizedCorrection[Up] -->
<g id="edge7" class="edge">
<title>PolarizingElementCorrection[Up, Up, Polarizer]:e&#45;&gt;HalfPolarizedCorrection[Up]:w</title>
<path fill="none" stroke="black" d="M534,-141C625.67,-141 651.08,-141 737.96,-141"/>
<polygon fill="black" stroke="black" points="738,-144.5 748,-141 738,-137.5 738,-144.5"/>
</g>
<!-- InverseFlipperMatrix[Up, Polarizer]&#45;&gt;HalfPolarizedCorrection[Up] -->
<g id="edge8" class="edge">
<title>InverseFlipperMatrix[Up, Polarizer]:e&#45;&gt;HalfPolarizedCorrection[Up]:w</title>
<path fill="none" stroke="black" d="M571,-32C659.87,-32 656.06,-132.86 737.87,-140.54"/>
<polygon fill="black" stroke="black" points="737.85,-144.04 748,-141 738.17,-137.05 737.85,-144.04"/>
</g>
<!-- TransmissionFunction[Polarizer] -->
<g id="node12" class="node">
<title>TransmissionFunction[Polarizer]</title>
<polygon fill="none" stroke="red" stroke-dasharray="5,2" points="261.5,-160.5 12.5,-160.5 12.5,-137.5 261.5,-137.5 261.5,-160.5"/>
<text text-anchor="middle" x="137" y="-145.3" font-family="Times,serif" font-size="14.00" fill="red">TransmissionFunction[Polarizer]</text>
</g>
<!-- TransmissionFunction[Polarizer]&#45;&gt;PolarizingElementCorrection[Down, Up, Polarizer] -->
<g id="edge12" class="edge">
<title>TransmissionFunction[Polarizer]:e&#45;&gt;PolarizingElementCorrection[Down, Up, Polarizer]:w</title>
<path fill="none" stroke="black" d="M262,-149C317.16,-149 332.48,-164 382.81,-165.82"/>
<polygon fill="black" stroke="black" points="382.94,-169.32 393,-166 383.06,-162.32 382.94,-169.32"/>
</g>
<!-- TransmissionFunction[Polarizer]&#45;&gt;PolarizingElementCorrection[Up, Up, Polarizer] -->
<g id="edge14" class="edge">
<title>TransmissionFunction[Polarizer]:e&#45;&gt;PolarizingElementCorrection[Up, Up, Polarizer]:w</title>
<path fill="none" stroke="black" d="M262,-149C320.79,-149 337.79,-141.88 391.84,-141.07"/>
<polygon fill="black" stroke="black" points="392.03,-144.57 402,-141 391.97,-137.57 392.03,-144.57"/>
</g>
</g>
</svg>
