<?xml version="1.0" encoding="UTF-8" standalone="no"?>
<!DOCTYPE svg PUBLIC "-//W3C//DTD SVG 1.1//EN"
 "http://www.w3.org/Graphics/SVG/1.1/DTD/svg11.dtd">
<!-- Generated by graphviz version 2.43.0 (0)
 -->
<!-- Title: %3 Pages: 1 -->
<svg width="395pt" height="188pt"
 viewBox="0.00 0.00 395.37 188.00" xmlns="http://www.w3.org/2000/svg" xmlns:xlink="http://www.w3.org/1999/xlink">
<g id="graph0" class="graph" transform="scale(1 1) rotate(0) translate(4 184)">
<title>%3</title>
<polygon fill="white" stroke="transparent" points="-4,4 -4,-184 391.37,-184 391.37,4 -4,4"/>
<!-- SupermirrorEfficiencyFunction[Polarizer] -->
<g id="node1" class="node">
<title>SupermirrorEfficiencyFunction[Polarizer]</title>
<polygon fill="none" stroke="red" stroke-dasharray="5,2" points="350.18,-180 37.18,-180 37.18,-144 350.18,-144 350.18,-180"/>
<text text-anchor="middle" x="193.68" y="-158.3" font-family="Times,serif" font-size="14.00" fill="red">SupermirrorEfficiencyFunction[Polarizer]</text>
</g>
<!-- ess.polarization.supermirror.get_supermirror_transmission_function_TransmissionFunction[Polarizer] -->
<g id="node2" class="node">
<title>ess.polarization.supermirror.get_supermirror_transmission_function_TransmissionFunction[Polarizer]</title>
<ellipse fill="none" stroke="black" cx="193.68" cy="-90" rx="193.87" ry="18"/>
<text text-anchor="middle" x="193.68" y="-86.3" font-family="Times,serif" font-size="14.00">get_supermirror_transmission_function</text>
</g>
<!-- SupermirrorEfficiencyFunction[Polarizer]&#45;&gt;ess.polarization.supermirror.get_supermirror_transmission_function_TransmissionFunction[Polarizer] -->
<g id="edge1" class="edge">
<title>SupermirrorEfficiencyFunction[Polarizer]&#45;&gt;ess.polarization.supermirror.get_supermirror_transmission_function_TransmissionFunction[Polarizer]</title>
<path fill="none" stroke="black" d="M193.68,-143.7C193.68,-135.98 193.68,-126.71 193.68,-118.11"/>
<polygon fill="black" stroke="black" points="197.18,-118.1 193.68,-108.1 190.18,-118.1 197.18,-118.1"/>
</g>
<!-- TransmissionFunction[Polarizer] -->
<g id="node3" class="node">
<title>TransmissionFunction[Polarizer]</title>
<polygon fill="none" stroke="black" points="318.18,-36 69.18,-36 69.18,0 318.18,0 318.18,-36"/>
<text text-anchor="middle" x="193.68" y="-14.3" font-family="Times,serif" font-size="14.00">TransmissionFunction[Polarizer]</text>
</g>
<!-- ess.polarization.supermirror.get_supermirror_transmission_function_TransmissionFunction[Polarizer]&#45;&gt;TransmissionFunction[Polarizer] -->
<g id="edge2" class="edge">
<title>ess.polarization.supermirror.get_supermirror_transmission_function_TransmissionFunction[Polarizer]&#45;&gt;TransmissionFunction[Polarizer]</title>
<path fill="none" stroke="black" d="M193.68,-71.7C193.68,-63.98 193.68,-54.71 193.68,-46.11"/>
<polygon fill="black" stroke="black" points="197.18,-46.1 193.68,-36.1 190.18,-46.1 197.18,-46.1"/>
</g>
</g>
</svg>
