<?xml version="1.0" encoding="UTF-8" standalone="no"?>
<!DOCTYPE svg PUBLIC "-//W3C//DTD SVG 1.1//EN"
 "http://www.w3.org/Graphics/SVG/1.1/DTD/svg11.dtd">
<!-- Generated by graphviz version 2.43.0 (0)
 -->
<!-- Title: %3 Pages: 1 -->
<svg width="3034pt" height="634pt"
 viewBox="0.00 0.00 3034.48 634.00" xmlns="http://www.w3.org/2000/svg" xmlns:xlink="http://www.w3.org/1999/xlink">
<g id="graph0" class="graph" transform="scale(1 1) rotate(0) translate(4 630)">
<title>%3</title>
<polygon fill="white" stroke="transparent" points="-4,4 -4,-630 3030.48,-630 3030.48,4 -4,4"/>
<g id="clust2" class="cluster">
<title>cluster_He3AnalyzerTransmissionFractionIncomingPolarized</title>
<polygon fill="#f0f0ff" stroke="#f0f0ff" points="649.37,-404 649.37,-618 1161.37,-618 1161.37,-404 649.37,-404"/>
</g>
<g id="clust4" class="cluster">
<title>cluster_He3CellLength</title>
<polygon fill="#f0f0ff" stroke="#f0f0ff" points="29,-176 29,-282 243,-282 243,-176 29,-176"/>
</g>
<g id="clust5" class="cluster">
<title>cluster_He3CellPressure</title>
<polygon fill="#f0f0ff" stroke="#f0f0ff" points="22,-62 22,-168 250,-168 250,-62 22,-62"/>
</g>
<g id="clust6" class="cluster">
<title>cluster_He3CellTemperature</title>
<polygon fill="#f0f0ff" stroke="#f0f0ff" points="8,-290 8,-396 264,-396 264,-290 8,-290"/>
</g>
<g id="clust7" class="cluster">
<title>cluster_He3CellTransmissionFractionIncomingUnpolarized</title>
<polygon fill="#f0f0ff" stroke="#f0f0ff" points="622.87,-8 622.87,-168 1187.87,-168 1187.87,-8 622.87,-8"/>
</g>
<g id="clust8" class="cluster">
<title>cluster_He3Opacity0</title>
<polygon fill="#f0f0ff" stroke="#f0f0ff" points="805.37,-176 805.37,-282 1005.37,-282 1005.37,-176 805.37,-176"/>
</g>
<g id="clust9" class="cluster">
<title>cluster_He3OpacityFunction</title>
<polygon fill="#f0f0ff" stroke="#f0f0ff" points="1723.44,-180 1723.44,-286 1977.44,-286 1977.44,-180 1723.44,-180"/>
</g>
<g id="clust10" class="cluster">
<title>cluster_He3TransmissionEmptyGlass</title>
<polygon fill="#f0f0ff" stroke="#f0f0ff" points="746.37,-290 746.37,-396 1064.37,-396 1064.37,-290 746.37,-290"/>
</g>
<g id="clust11" class="cluster">
<title>cluster_TransmissionFunction</title>
<polygon fill="#f0f0ff" stroke="#f0f0ff" points="2753.48,-265 2753.48,-371 3018.48,-371 3018.48,-265 2753.48,-265"/>
</g>
<!-- ess.polarization.he3.transmission_fraction_analyzer_antiparallel_He3AnalyzerTransmissionFractionAntiParallel -->
<g id="node1" class="node">
<title>ess.polarization.he3.transmission_fraction_analyzer_antiparallel_He3AnalyzerTransmissionFractionAntiParallel</title>
<ellipse fill="none" stroke="black" cx="1428.4" cy="-430" rx="212.56" ry="18"/>
<text text-anchor="middle" x="1428.4" y="-426.3" font-family="Times,serif" font-size="14.00">transmission_fraction_analyzer_antiparallel</text>
</g>
<!-- He3AnalyzerTransmissionFractionAntiParallel -->
<g id="node4" class="node">
<title>He3AnalyzerTransmissionFractionAntiParallel</title>
<polygon fill="none" stroke="black" points="2023.94,-441 1676.94,-441 1676.94,-405 2023.94,-405 2023.94,-441"/>
<text text-anchor="middle" x="1850.44" y="-419.3" font-family="Times,serif" font-size="14.00">He3AnalyzerTransmissionFractionAntiParallel</text>
</g>
<!-- ess.polarization.he3.transmission_fraction_analyzer_antiparallel_He3AnalyzerTransmissionFractionAntiParallel&#45;&gt;He3AnalyzerTransmissionFractionAntiParallel -->
<g id="edge3" class="edge">
<title>ess.polarization.he3.transmission_fraction_analyzer_antiparallel_He3AnalyzerTransmissionFractionAntiParallel&#45;&gt;He3AnalyzerTransmissionFractionAntiParallel</title>
<path fill="none" stroke="black" d="M1637.27,-426.54C1647.07,-426.37 1656.89,-426.21 1666.62,-426.05"/>
<polygon fill="black" stroke="black" points="1666.8,-429.54 1676.74,-425.88 1666.68,-422.55 1666.8,-429.54"/>
</g>
<!-- He3AnalyzerTransmissionFractionIncomingPolarized[Up, Down] -->
<g id="node2" class="node">
<title>He3AnalyzerTransmissionFractionIncomingPolarized[Up, Down]</title>
<polygon fill="none" stroke="red" stroke-dasharray="5,2" points="1143.37,-502 667.37,-502 667.37,-466 1143.37,-466 1143.37,-502"/>
<text text-anchor="middle" x="905.37" y="-480.3" font-family="Times,serif" font-size="14.00" fill="red">He3AnalyzerTransmissionFractionIncomingPolarized[Up, Down]</text>
</g>
<!-- He3AnalyzerTransmissionFractionIncomingPolarized[Up, Down]&#45;&gt;ess.polarization.he3.transmission_fraction_analyzer_antiparallel_He3AnalyzerTransmissionFractionAntiParallel -->
<g id="edge1" class="edge">
<title>He3AnalyzerTransmissionFractionIncomingPolarized[Up, Down]&#45;&gt;ess.polarization.he3.transmission_fraction_analyzer_antiparallel_He3AnalyzerTransmissionFractionAntiParallel</title>
<path fill="none" stroke="black" d="M1098.73,-465.98C1128.58,-463.06 1159.06,-460.01 1187.87,-457 1221.68,-453.47 1258.16,-449.47 1292.19,-445.64"/>
<polygon fill="black" stroke="black" points="1292.65,-449.11 1302.2,-444.51 1291.87,-442.15 1292.65,-449.11"/>
</g>
<!-- He3AnalyzerTransmissionFractionIncomingPolarized[Down, Up] -->
<g id="node3" class="node">
<title>He3AnalyzerTransmissionFractionIncomingPolarized[Down, Up]</title>
<polygon fill="none" stroke="red" stroke-dasharray="5,2" points="1143.37,-448 667.37,-448 667.37,-412 1143.37,-412 1143.37,-448"/>
<text text-anchor="middle" x="905.37" y="-426.3" font-family="Times,serif" font-size="14.00" fill="red">He3AnalyzerTransmissionFractionIncomingPolarized[Down, Up]</text>
</g>
<!-- He3AnalyzerTransmissionFractionIncomingPolarized[Down, Up]&#45;&gt;ess.polarization.he3.transmission_fraction_analyzer_antiparallel_He3AnalyzerTransmissionFractionAntiParallel -->
<g id="edge2" class="edge">
<title>He3AnalyzerTransmissionFractionIncomingPolarized[Down, Up]&#45;&gt;ess.polarization.he3.transmission_fraction_analyzer_antiparallel_He3AnalyzerTransmissionFractionAntiParallel</title>
<path fill="none" stroke="black" d="M1143.64,-430C1164.3,-430 1185.15,-430 1205.68,-430"/>
<polygon fill="black" stroke="black" points="1205.73,-433.5 1215.73,-430 1205.73,-426.5 1205.73,-433.5"/>
</g>
<!-- ess.polarization.he3.get_he3_transmission_incoming_polarized_from_fit_to_direct_beam_TransmissionFunction[Analyzer] -->
<g id="node28" class="node">
<title>ess.polarization.he3.get_he3_transmission_incoming_polarized_from_fit_to_direct_beam_TransmissionFunction[Analyzer]</title>
<ellipse fill="none" stroke="black" cx="2392.71" cy="-370" rx="321.14" ry="18"/>
<text text-anchor="middle" x="2392.71" y="-366.3" font-family="Times,serif" font-size="14.00">get_he3_transmission_incoming_polarized_from_fit_to_direct_beam</text>
</g>
<!-- He3AnalyzerTransmissionFractionAntiParallel&#45;&gt;ess.polarization.he3.get_he3_transmission_incoming_polarized_from_fit_to_direct_beam_TransmissionFunction[Analyzer] -->
<g id="edge24" class="edge">
<title>He3AnalyzerTransmissionFractionAntiParallel&#45;&gt;ess.polarization.he3.get_he3_transmission_incoming_polarized_from_fit_to_direct_beam_TransmissionFunction[Analyzer]</title>
<path fill="none" stroke="black" d="M2024.24,-406.05C2087.68,-399.82 2159.4,-392.79 2222.52,-386.6"/>
<polygon fill="black" stroke="black" points="2222.97,-390.07 2232.58,-385.61 2222.28,-383.1 2222.97,-390.07"/>
</g>
<!-- He3AnalyzerTransmissionFractionIncomingPolarized[Down, Down] -->
<g id="node5" class="node">
<title>He3AnalyzerTransmissionFractionIncomingPolarized[Down, Down]</title>
<polygon fill="none" stroke="red" stroke-dasharray="5,2" points="1153.37,-610 657.37,-610 657.37,-574 1153.37,-574 1153.37,-610"/>
<text text-anchor="middle" x="905.37" y="-588.3" font-family="Times,serif" font-size="14.00" fill="red">He3AnalyzerTransmissionFractionIncomingPolarized[Down, Down]</text>
</g>
<!-- ess.polarization.he3.transmission_fraction_analyzer_parallel_He3AnalyzerTransmissionFractionParallel -->
<g id="node7" class="node">
<title>ess.polarization.he3.transmission_fraction_analyzer_parallel_He3AnalyzerTransmissionFractionParallel</title>
<ellipse fill="none" stroke="black" cx="1428.4" cy="-538" rx="194.17" ry="18"/>
<text text-anchor="middle" x="1428.4" y="-534.3" font-family="Times,serif" font-size="14.00">transmission_fraction_analyzer_parallel</text>
</g>
<!-- He3AnalyzerTransmissionFractionIncomingPolarized[Down, Down]&#45;&gt;ess.polarization.he3.transmission_fraction_analyzer_parallel_He3AnalyzerTransmissionFractionParallel -->
<g id="edge5" class="edge">
<title>He3AnalyzerTransmissionFractionIncomingPolarized[Down, Down]&#45;&gt;ess.polarization.he3.transmission_fraction_analyzer_parallel_He3AnalyzerTransmissionFractionParallel</title>
<path fill="none" stroke="black" d="M1098.73,-573.98C1128.58,-571.06 1159.06,-568.01 1187.87,-565 1223.01,-561.33 1261.02,-557.15 1296.19,-553.19"/>
<polygon fill="black" stroke="black" points="1296.97,-556.62 1306.51,-552.02 1296.18,-549.67 1296.97,-556.62"/>
</g>
<!-- He3AnalyzerTransmissionFractionIncomingPolarized[Up, Up] -->
<g id="node6" class="node">
<title>He3AnalyzerTransmissionFractionIncomingPolarized[Up, Up]</title>
<polygon fill="none" stroke="red" stroke-dasharray="5,2" points="1133.87,-556 676.87,-556 676.87,-520 1133.87,-520 1133.87,-556"/>
<text text-anchor="middle" x="905.37" y="-534.3" font-family="Times,serif" font-size="14.00" fill="red">He3AnalyzerTransmissionFractionIncomingPolarized[Up, Up]</text>
</g>
<!-- He3AnalyzerTransmissionFractionIncomingPolarized[Up, Up]&#45;&gt;ess.polarization.he3.transmission_fraction_analyzer_parallel_He3AnalyzerTransmissionFractionParallel -->
<g id="edge4" class="edge">
<title>He3AnalyzerTransmissionFractionIncomingPolarized[Up, Up]&#45;&gt;ess.polarization.he3.transmission_fraction_analyzer_parallel_He3AnalyzerTransmissionFractionParallel</title>
<path fill="none" stroke="black" d="M1134.15,-538C1163.91,-538 1194.25,-538 1223.58,-538"/>
<polygon fill="black" stroke="black" points="1223.91,-541.5 1233.91,-538 1223.91,-534.5 1223.91,-541.5"/>
</g>
<!-- He3AnalyzerTransmissionFractionParallel -->
<g id="node8" class="node">
<title>He3AnalyzerTransmissionFractionParallel</title>
<polygon fill="none" stroke="black" points="2008.94,-529 1691.94,-529 1691.94,-493 2008.94,-493 2008.94,-529"/>
<text text-anchor="middle" x="1850.44" y="-507.3" font-family="Times,serif" font-size="14.00">He3AnalyzerTransmissionFractionParallel</text>
</g>
<!-- ess.polarization.he3.transmission_fraction_analyzer_parallel_He3AnalyzerTransmissionFractionParallel&#45;&gt;He3AnalyzerTransmissionFractionParallel -->
<g id="edge6" class="edge">
<title>ess.polarization.he3.transmission_fraction_analyzer_parallel_He3AnalyzerTransmissionFractionParallel&#45;&gt;He3AnalyzerTransmissionFractionParallel</title>
<path fill="none" stroke="black" d="M1588.5,-527.77C1618.85,-525.82 1650.72,-523.77 1681.34,-521.81"/>
<polygon fill="black" stroke="black" points="1681.92,-525.28 1691.67,-521.14 1681.47,-518.29 1681.92,-525.28"/>
</g>
<!-- He3AnalyzerTransmissionFractionParallel&#45;&gt;ess.polarization.he3.get_he3_transmission_incoming_polarized_from_fit_to_direct_beam_TransmissionFunction[Analyzer] -->
<g id="edge23" class="edge">
<title>He3AnalyzerTransmissionFractionParallel&#45;&gt;ess.polarization.he3.get_he3_transmission_incoming_polarized_from_fit_to_direct_beam_TransmissionFunction[Analyzer]</title>
<path fill="none" stroke="black" d="M1920.41,-493C2021.27,-466.68 2208.46,-417.82 2314.03,-390.27"/>
<polygon fill="black" stroke="black" points="2315.2,-393.58 2323.99,-387.67 2313.43,-386.81 2315.2,-393.58"/>
</g>
<!-- He3CellLength[Analyzer] -->
<g id="node9" class="node">
<title>He3CellLength[Analyzer]</title>
<polygon fill="none" stroke="red" stroke-dasharray="5,2" points="234.5,-274 37.5,-274 37.5,-238 234.5,-238 234.5,-274"/>
<text text-anchor="middle" x="136" y="-252.3" font-family="Times,serif" font-size="14.00" fill="red">He3CellLength[Analyzer]</text>
</g>
<!-- ess.polarization.he3.he3_opacity_from_cell_params_He3Opacity0[Analyzer] -->
<g id="node18" class="node">
<title>ess.polarization.he3.he3_opacity_from_cell_params_He3Opacity0[Analyzer]</title>
<ellipse fill="none" stroke="black" cx="443.44" cy="-256" rx="151.37" ry="18"/>
<text text-anchor="middle" x="443.44" y="-252.3" font-family="Times,serif" font-size="14.00">he3_opacity_from_cell_params</text>
</g>
<!-- He3CellLength[Analyzer]&#45;&gt;ess.polarization.he3.he3_opacity_from_cell_params_He3Opacity0[Analyzer] -->
<g id="edge8" class="edge">
<title>He3CellLength[Analyzer]&#45;&gt;ess.polarization.he3.he3_opacity_from_cell_params_He3Opacity0[Analyzer]</title>
<path fill="none" stroke="black" d="M234.9,-256C249.86,-256 265.63,-256 281.51,-256"/>
<polygon fill="black" stroke="black" points="281.96,-259.5 291.96,-256 281.96,-252.5 281.96,-259.5"/>
</g>
<!-- He3CellLength[Polarizer] -->
<g id="node10" class="node">
<title>He3CellLength[Polarizer]</title>
<polygon fill="none" stroke="red" stroke-dasharray="5,2" points="235,-220 37,-220 37,-184 235,-184 235,-220"/>
<text text-anchor="middle" x="136" y="-198.3" font-family="Times,serif" font-size="14.00" fill="red">He3CellLength[Polarizer]</text>
</g>
<!-- ess.polarization.he3.he3_opacity_from_cell_params_He3Opacity0[Polarizer] -->
<g id="node20" class="node">
<title>ess.polarization.he3.he3_opacity_from_cell_params_He3Opacity0[Polarizer]</title>
<ellipse fill="none" stroke="black" cx="443.44" cy="-202" rx="151.37" ry="18"/>
<text text-anchor="middle" x="443.44" y="-198.3" font-family="Times,serif" font-size="14.00">he3_opacity_from_cell_params</text>
</g>
<!-- He3CellLength[Polarizer]&#45;&gt;ess.polarization.he3.he3_opacity_from_cell_params_He3Opacity0[Polarizer] -->
<g id="edge12" class="edge">
<title>He3CellLength[Polarizer]&#45;&gt;ess.polarization.he3.he3_opacity_from_cell_params_He3Opacity0[Polarizer]</title>
<path fill="none" stroke="black" d="M235.32,-202C250.13,-202 265.72,-202 281.43,-202"/>
<polygon fill="black" stroke="black" points="281.76,-205.5 291.76,-202 281.76,-198.5 281.76,-205.5"/>
</g>
<!-- He3CellPressure[Analyzer] -->
<g id="node11" class="node">
<title>He3CellPressure[Analyzer]</title>
<polygon fill="none" stroke="red" stroke-dasharray="5,2" points="241,-160 31,-160 31,-124 241,-124 241,-160"/>
<text text-anchor="middle" x="136" y="-138.3" font-family="Times,serif" font-size="14.00" fill="red">He3CellPressure[Analyzer]</text>
</g>
<!-- He3CellPressure[Analyzer]&#45;&gt;ess.polarization.he3.he3_opacity_from_cell_params_He3Opacity0[Analyzer] -->
<g id="edge7" class="edge">
<title>He3CellPressure[Analyzer]&#45;&gt;ess.polarization.he3.he3_opacity_from_cell_params_He3Opacity0[Analyzer]</title>
<path fill="none" stroke="black" d="M241.16,-158.25C249.34,-161.97 257.09,-166.49 264,-172 286.07,-189.6 269.46,-212.01 292,-229 298.33,-233.77 305.24,-237.8 312.49,-241.19"/>
<polygon fill="black" stroke="black" points="311.28,-244.48 321.85,-245.15 314.01,-238.03 311.28,-244.48"/>
</g>
<!-- He3CellPressure[Polarizer] -->
<g id="node12" class="node">
<title>He3CellPressure[Polarizer]</title>
<polygon fill="none" stroke="red" stroke-dasharray="5,2" points="242,-106 30,-106 30,-70 242,-70 242,-106"/>
<text text-anchor="middle" x="136" y="-84.3" font-family="Times,serif" font-size="14.00" fill="red">He3CellPressure[Polarizer]</text>
</g>
<!-- He3CellPressure[Polarizer]&#45;&gt;ess.polarization.he3.he3_opacity_from_cell_params_He3Opacity0[Polarizer] -->
<g id="edge11" class="edge">
<title>He3CellPressure[Polarizer]&#45;&gt;ess.polarization.he3.he3_opacity_from_cell_params_He3Opacity0[Polarizer]</title>
<path fill="none" stroke="black" d="M234.06,-106.06C244.27,-108.72 254.41,-111.7 264,-115 313.81,-132.15 367.75,-159.83 403.13,-179.36"/>
<polygon fill="black" stroke="black" points="401.71,-182.58 412.15,-184.38 405.12,-176.46 401.71,-182.58"/>
</g>
<!-- He3CellTemperature[Analyzer] -->
<g id="node13" class="node">
<title>He3CellTemperature[Analyzer]</title>
<polygon fill="none" stroke="red" stroke-dasharray="5,2" points="255.5,-388 16.5,-388 16.5,-352 255.5,-352 255.5,-388"/>
<text text-anchor="middle" x="136" y="-366.3" font-family="Times,serif" font-size="14.00" fill="red">He3CellTemperature[Analyzer]</text>
</g>
<!-- He3CellTemperature[Analyzer]&#45;&gt;ess.polarization.he3.he3_opacity_from_cell_params_He3Opacity0[Analyzer] -->
<g id="edge9" class="edge">
<title>He3CellTemperature[Analyzer]&#45;&gt;ess.polarization.he3.he3_opacity_from_cell_params_He3Opacity0[Analyzer]</title>
<path fill="none" stroke="black" d="M234.06,-351.94C244.27,-349.28 254.41,-346.3 264,-343 313.81,-325.85 367.75,-298.17 403.13,-278.64"/>
<polygon fill="black" stroke="black" points="405.12,-281.54 412.15,-273.62 401.71,-275.42 405.12,-281.54"/>
</g>
<!-- He3CellTemperature[Polarizer] -->
<g id="node14" class="node">
<title>He3CellTemperature[Polarizer]</title>
<polygon fill="none" stroke="red" stroke-dasharray="5,2" points="256,-334 16,-334 16,-298 256,-298 256,-334"/>
<text text-anchor="middle" x="136" y="-312.3" font-family="Times,serif" font-size="14.00" fill="red">He3CellTemperature[Polarizer]</text>
</g>
<!-- He3CellTemperature[Polarizer]&#45;&gt;ess.polarization.he3.he3_opacity_from_cell_params_He3Opacity0[Polarizer] -->
<g id="edge13" class="edge">
<title>He3CellTemperature[Polarizer]&#45;&gt;ess.polarization.he3.he3_opacity_from_cell_params_He3Opacity0[Polarizer]</title>
<path fill="none" stroke="black" d="M244.91,-297.98C251.71,-294.62 258.15,-290.66 264,-286 286.07,-268.4 269.46,-245.99 292,-229 298.33,-224.23 305.24,-220.2 312.49,-216.81"/>
<polygon fill="black" stroke="black" points="314.01,-219.97 321.85,-212.85 311.28,-213.52 314.01,-219.97"/>
</g>
<!-- He3CellTransmissionFractionIncomingUnpolarized[Analyzer, Depolarized] -->
<g id="node15" class="node">
<title>He3CellTransmissionFractionIncomingUnpolarized[Analyzer, Depolarized]</title>
<polygon fill="none" stroke="red" stroke-dasharray="5,2" points="1179.37,-160 631.37,-160 631.37,-124 1179.37,-124 1179.37,-160"/>
<text text-anchor="middle" x="905.37" y="-138.3" font-family="Times,serif" font-size="14.00" fill="red">He3CellTransmissionFractionIncomingUnpolarized[Analyzer, Depolarized]</text>
</g>
<!-- ess.polarization.he3.he3_opacity_function_from_beam_data_He3OpacityFunction[Analyzer] -->
<g id="node22" class="node">
<title>ess.polarization.he3.he3_opacity_function_from_beam_data_He3OpacityFunction[Analyzer]</title>
<ellipse fill="none" stroke="black" cx="1428.4" cy="-259" rx="189.27" ry="18"/>
<text text-anchor="middle" x="1428.4" y="-255.3" font-family="Times,serif" font-size="14.00">he3_opacity_function_from_beam_data</text>
</g>
<!-- He3CellTransmissionFractionIncomingUnpolarized[Analyzer, Depolarized]&#45;&gt;ess.polarization.he3.he3_opacity_function_from_beam_data_He3OpacityFunction[Analyzer] -->
<g id="edge16" class="edge">
<title>He3CellTransmissionFractionIncomingUnpolarized[Analyzer, Depolarized]&#45;&gt;ess.polarization.he3.he3_opacity_function_from_beam_data_He3OpacityFunction[Analyzer]</title>
<path fill="none" stroke="black" d="M1168.45,-160.01C1175.17,-163.61 1181.66,-167.59 1187.87,-172 1211.55,-188.79 1192.41,-213.91 1215.87,-231 1225.19,-237.79 1235.38,-243.34 1246.07,-247.86"/>
<polygon fill="black" stroke="black" points="1245.01,-251.2 1255.59,-251.57 1247.55,-244.68 1245.01,-251.2"/>
</g>
<!-- He3CellTransmissionFractionIncomingUnpolarized[Polarizer, Depolarized] -->
<g id="node16" class="node">
<title>He3CellTransmissionFractionIncomingUnpolarized[Polarizer, Depolarized]</title>
<polygon fill="none" stroke="red" stroke-dasharray="5,2" points="1179.87,-106 630.87,-106 630.87,-70 1179.87,-70 1179.87,-106"/>
<text text-anchor="middle" x="905.37" y="-84.3" font-family="Times,serif" font-size="14.00" fill="red">He3CellTransmissionFractionIncomingUnpolarized[Polarizer, Depolarized]</text>
</g>
<!-- ess.polarization.he3.he3_opacity_function_from_beam_data_He3OpacityFunction[Polarizer] -->
<g id="node25" class="node">
<title>ess.polarization.he3.he3_opacity_function_from_beam_data_He3OpacityFunction[Polarizer]</title>
<ellipse fill="none" stroke="black" cx="1428.4" cy="-204" rx="189.27" ry="18"/>
<text text-anchor="middle" x="1428.4" y="-200.3" font-family="Times,serif" font-size="14.00">he3_opacity_function_from_beam_data</text>
</g>
<!-- He3CellTransmissionFractionIncomingUnpolarized[Polarizer, Depolarized]&#45;&gt;ess.polarization.he3.he3_opacity_function_from_beam_data_He3OpacityFunction[Polarizer] -->
<g id="edge20" class="edge">
<title>He3CellTransmissionFractionIncomingUnpolarized[Polarizer, Depolarized]&#45;&gt;ess.polarization.he3.he3_opacity_function_from_beam_data_He3OpacityFunction[Polarizer]</title>
<path fill="none" stroke="black" d="M1142.11,-106.02C1157.67,-108.62 1173.04,-111.59 1187.87,-115 1256.64,-130.79 1332.41,-161.31 1379.95,-182.17"/>
<polygon fill="black" stroke="black" points="1378.8,-185.48 1389.36,-186.33 1381.63,-179.08 1378.8,-185.48"/>
</g>
<!-- He3CellTransmissionFractionIncomingUnpolarized[Polarizer, Polarized] -->
<g id="node17" class="node">
<title>He3CellTransmissionFractionIncomingUnpolarized[Polarizer, Polarized]</title>
<polygon fill="none" stroke="red" stroke-dasharray="5,2" points="1170.37,-52 640.37,-52 640.37,-16 1170.37,-16 1170.37,-52"/>
<text text-anchor="middle" x="905.37" y="-30.3" font-family="Times,serif" font-size="14.00" fill="red">He3CellTransmissionFractionIncomingUnpolarized[Polarizer, Polarized]</text>
</g>
<!-- ess.polarization.he3.get_he3_transmission_incoming_unpolarized_from_fit_to_direct_beam_TransmissionFunction[Polarizer] -->
<g id="node30" class="node">
<title>ess.polarization.he3.get_he3_transmission_incoming_unpolarized_from_fit_to_direct_beam_TransmissionFunction[Polarizer]</title>
<ellipse fill="none" stroke="black" cx="2392.71" cy="-266" rx="332.54" ry="18"/>
<text text-anchor="middle" x="2392.71" y="-262.3" font-family="Times,serif" font-size="14.00">get_he3_transmission_incoming_unpolarized_from_fit_to_direct_beam</text>
</g>
<!-- He3CellTransmissionFractionIncomingUnpolarized[Polarizer, Polarized]&#45;&gt;ess.polarization.he3.get_he3_transmission_incoming_unpolarized_from_fit_to_direct_beam_TransmissionFunction[Polarizer] -->
<g id="edge28" class="edge">
<title>He3CellTransmissionFractionIncomingUnpolarized[Polarizer, Polarized]&#45;&gt;ess.polarization.he3.get_he3_transmission_incoming_unpolarized_from_fit_to_direct_beam_TransmissionFunction[Polarizer]</title>
<path fill="none" stroke="black" d="M1104.87,-52.01C1132.76,-54.84 1161.05,-57.87 1187.87,-61 1560.43,-104.47 1655.49,-105.77 2023.94,-176 2126.98,-195.64 2244.47,-225.77 2318.35,-245.68"/>
<polygon fill="black" stroke="black" points="2317.47,-249.06 2328.03,-248.29 2319.29,-242.3 2317.47,-249.06"/>
</g>
<!-- He3Opacity0[Analyzer] -->
<g id="node19" class="node">
<title>He3Opacity0[Analyzer]</title>
<polygon fill="none" stroke="black" points="996.37,-274 814.37,-274 814.37,-238 996.37,-238 996.37,-274"/>
<text text-anchor="middle" x="905.37" y="-252.3" font-family="Times,serif" font-size="14.00">He3Opacity0[Analyzer]</text>
</g>
<!-- ess.polarization.he3.he3_opacity_from_cell_params_He3Opacity0[Analyzer]&#45;&gt;He3Opacity0[Analyzer] -->
<g id="edge10" class="edge">
<title>ess.polarization.he3.he3_opacity_from_cell_params_He3Opacity0[Analyzer]&#45;&gt;He3Opacity0[Analyzer]</title>
<path fill="none" stroke="black" d="M595.04,-256C663.66,-256 743.02,-256 804.18,-256"/>
<polygon fill="black" stroke="black" points="804.22,-259.5 814.22,-256 804.22,-252.5 804.22,-259.5"/>
</g>
<!-- He3Opacity0[Analyzer]&#45;&gt;ess.polarization.he3.he3_opacity_function_from_beam_data_He3OpacityFunction[Analyzer] -->
<g id="edge17" class="edge">
<title>He3Opacity0[Analyzer]&#45;&gt;ess.polarization.he3.he3_opacity_function_from_beam_data_He3OpacityFunction[Analyzer]</title>
<path fill="none" stroke="black" d="M996.53,-256.52C1060.57,-256.89 1149.05,-257.4 1229.18,-257.86"/>
<polygon fill="black" stroke="black" points="1229.4,-261.36 1239.42,-257.92 1229.44,-254.36 1229.4,-261.36"/>
</g>
<!-- He3Opacity0[Polarizer] -->
<g id="node21" class="node">
<title>He3Opacity0[Polarizer]</title>
<polygon fill="none" stroke="black" points="997.37,-220 813.37,-220 813.37,-184 997.37,-184 997.37,-220"/>
<text text-anchor="middle" x="905.37" y="-198.3" font-family="Times,serif" font-size="14.00">He3Opacity0[Polarizer]</text>
</g>
<!-- ess.polarization.he3.he3_opacity_from_cell_params_He3Opacity0[Polarizer]&#45;&gt;He3Opacity0[Polarizer] -->
<g id="edge14" class="edge">
<title>ess.polarization.he3.he3_opacity_from_cell_params_He3Opacity0[Polarizer]&#45;&gt;He3Opacity0[Polarizer]</title>
<path fill="none" stroke="black" d="M595.04,-202C663.28,-202 742.16,-202 803.18,-202"/>
<polygon fill="black" stroke="black" points="803.2,-205.5 813.2,-202 803.2,-198.5 803.2,-205.5"/>
</g>
<!-- He3Opacity0[Polarizer]&#45;&gt;ess.polarization.he3.he3_opacity_function_from_beam_data_He3OpacityFunction[Polarizer] -->
<g id="edge21" class="edge">
<title>He3Opacity0[Polarizer]&#45;&gt;ess.polarization.he3.he3_opacity_function_from_beam_data_He3OpacityFunction[Polarizer]</title>
<path fill="none" stroke="black" d="M997.43,-202.35C1061.35,-202.59 1149.31,-202.93 1229.04,-203.24"/>
<polygon fill="black" stroke="black" points="1229.2,-206.74 1239.22,-203.28 1229.23,-199.74 1229.2,-206.74"/>
</g>
<!-- He3OpacityFunction[Analyzer] -->
<g id="node24" class="node">
<title>He3OpacityFunction[Analyzer]</title>
<polygon fill="none" stroke="black" points="1968.44,-278 1732.44,-278 1732.44,-242 1968.44,-242 1968.44,-278"/>
<text text-anchor="middle" x="1850.44" y="-256.3" font-family="Times,serif" font-size="14.00">He3OpacityFunction[Analyzer]</text>
</g>
<!-- ess.polarization.he3.he3_opacity_function_from_beam_data_He3OpacityFunction[Analyzer]&#45;&gt;He3OpacityFunction[Analyzer] -->
<g id="edge18" class="edge">
<title>ess.polarization.he3.he3_opacity_function_from_beam_data_He3OpacityFunction[Analyzer]&#45;&gt;He3OpacityFunction[Analyzer]</title>
<path fill="none" stroke="black" d="M1617.61,-259.45C1653.02,-259.53 1689.26,-259.62 1722.25,-259.7"/>
<polygon fill="black" stroke="black" points="1722.38,-263.2 1732.38,-259.72 1722.39,-256.2 1722.38,-263.2"/>
</g>
<!-- He3TransmissionEmptyGlass[Analyzer] -->
<g id="node23" class="node">
<title>He3TransmissionEmptyGlass[Analyzer]</title>
<polygon fill="none" stroke="red" stroke-dasharray="5,2" points="1055.37,-388 755.37,-388 755.37,-352 1055.37,-352 1055.37,-388"/>
<text text-anchor="middle" x="905.37" y="-366.3" font-family="Times,serif" font-size="14.00" fill="red">He3TransmissionEmptyGlass[Analyzer]</text>
</g>
<!-- He3TransmissionEmptyGlass[Analyzer]&#45;&gt;ess.polarization.he3.he3_opacity_function_from_beam_data_He3OpacityFunction[Analyzer] -->
<g id="edge15" class="edge">
<title>He3TransmissionEmptyGlass[Analyzer]&#45;&gt;ess.polarization.he3.he3_opacity_function_from_beam_data_He3OpacityFunction[Analyzer]</title>
<path fill="none" stroke="black" d="M1055.71,-362.43C1098.7,-358.44 1145.44,-352.33 1187.87,-343 1255.12,-328.21 1329.5,-300.19 1377.26,-280.59"/>
<polygon fill="black" stroke="black" points="1378.84,-283.73 1386.74,-276.67 1376.17,-277.26 1378.84,-283.73"/>
</g>
<!-- He3TransmissionEmptyGlass[Analyzer]&#45;&gt;ess.polarization.he3.get_he3_transmission_incoming_polarized_from_fit_to_direct_beam_TransmissionFunction[Analyzer] -->
<g id="edge26" class="edge">
<title>He3TransmissionEmptyGlass[Analyzer]&#45;&gt;ess.polarization.he3.get_he3_transmission_incoming_polarized_from_fit_to_direct_beam_TransmissionFunction[Analyzer]</title>
<path fill="none" stroke="black" d="M1055.59,-370C1289.3,-370 1747.36,-370 2061.4,-370"/>
<polygon fill="black" stroke="black" points="2061.57,-373.5 2071.57,-370 2061.57,-366.5 2061.57,-373.5"/>
</g>
<!-- He3OpacityFunction[Analyzer]&#45;&gt;ess.polarization.he3.get_he3_transmission_incoming_polarized_from_fit_to_direct_beam_TransmissionFunction[Analyzer] -->
<g id="edge25" class="edge">
<title>He3OpacityFunction[Analyzer]&#45;&gt;ess.polarization.he3.get_he3_transmission_incoming_polarized_from_fit_to_direct_beam_TransmissionFunction[Analyzer]</title>
<path fill="none" stroke="black" d="M1940.05,-278.04C2038.11,-298.01 2195.59,-330.07 2296.3,-350.58"/>
<polygon fill="black" stroke="black" points="2295.67,-354.02 2306.17,-352.58 2297.07,-347.16 2295.67,-354.02"/>
</g>
<!-- He3OpacityFunction[Polarizer] -->
<g id="node27" class="node">
<title>He3OpacityFunction[Polarizer]</title>
<polygon fill="none" stroke="black" points="1969.44,-224 1731.44,-224 1731.44,-188 1969.44,-188 1969.44,-224"/>
<text text-anchor="middle" x="1850.44" y="-202.3" font-family="Times,serif" font-size="14.00">He3OpacityFunction[Polarizer]</text>
</g>
<!-- ess.polarization.he3.he3_opacity_function_from_beam_data_He3OpacityFunction[Polarizer]&#45;&gt;He3OpacityFunction[Polarizer] -->
<g id="edge22" class="edge">
<title>ess.polarization.he3.he3_opacity_function_from_beam_data_He3OpacityFunction[Polarizer]&#45;&gt;He3OpacityFunction[Polarizer]</title>
<path fill="none" stroke="black" d="M1617.31,-204.89C1652.44,-205.06 1688.41,-205.23 1721.23,-205.39"/>
<polygon fill="black" stroke="black" points="1721.29,-208.89 1731.3,-205.44 1721.32,-201.89 1721.29,-208.89"/>
</g>
<!-- He3TransmissionEmptyGlass[Polarizer] -->
<g id="node26" class="node">
<title>He3TransmissionEmptyGlass[Polarizer]</title>
<polygon fill="none" stroke="red" stroke-dasharray="5,2" points="1056.37,-334 754.37,-334 754.37,-298 1056.37,-298 1056.37,-334"/>
<text text-anchor="middle" x="905.37" y="-312.3" font-family="Times,serif" font-size="14.00" fill="red">He3TransmissionEmptyGlass[Polarizer]</text>
</g>
<!-- He3TransmissionEmptyGlass[Polarizer]&#45;&gt;ess.polarization.he3.he3_opacity_function_from_beam_data_He3OpacityFunction[Polarizer] -->
<g id="edge19" class="edge">
<title>He3TransmissionEmptyGlass[Polarizer]&#45;&gt;ess.polarization.he3.he3_opacity_function_from_beam_data_He3OpacityFunction[Polarizer]</title>
<path fill="none" stroke="black" d="M1056.42,-326.44C1101.89,-322.97 1149.83,-311.99 1187.87,-286 1210.2,-270.75 1193.75,-247.53 1215.87,-232 1225.59,-225.18 1236.18,-219.63 1247.28,-215.14"/>
<polygon fill="black" stroke="black" points="1248.58,-218.39 1256.72,-211.61 1246.13,-211.84 1248.58,-218.39"/>
</g>
<!-- He3TransmissionEmptyGlass[Polarizer]&#45;&gt;ess.polarization.he3.get_he3_transmission_incoming_unpolarized_from_fit_to_direct_beam_TransmissionFunction[Polarizer] -->
<g id="edge30" class="edge">
<title>He3TransmissionEmptyGlass[Polarizer]&#45;&gt;ess.polarization.he3.get_he3_transmission_incoming_unpolarized_from_fit_to_direct_beam_TransmissionFunction[Polarizer]</title>
<path fill="none" stroke="black" d="M1056.47,-314.5C1271.06,-311.91 1677.85,-305.31 2023.94,-290 2075.73,-287.71 2131.58,-284.46 2183.73,-281.1"/>
<polygon fill="black" stroke="black" points="2184.01,-284.59 2193.77,-280.45 2183.56,-277.6 2184.01,-284.59"/>
</g>
<!-- He3OpacityFunction[Polarizer]&#45;&gt;ess.polarization.he3.get_he3_transmission_incoming_unpolarized_from_fit_to_direct_beam_TransmissionFunction[Polarizer] -->
<g id="edge29" class="edge">
<title>He3OpacityFunction[Polarizer]&#45;&gt;ess.polarization.he3.get_he3_transmission_incoming_unpolarized_from_fit_to_direct_beam_TransmissionFunction[Polarizer]</title>
<path fill="none" stroke="black" d="M1969.67,-219.13C2047.78,-227.81 2151.01,-239.27 2235.82,-248.69"/>
<polygon fill="black" stroke="black" points="2235.48,-252.17 2245.8,-249.8 2236.25,-245.21 2235.48,-252.17"/>
</g>
<!-- TransmissionFunction[Analyzer] -->
<g id="node29" class="node">
<title>TransmissionFunction[Analyzer]</title>
<polygon fill="none" stroke="black" points="3009.98,-363 2761.98,-363 2761.98,-327 3009.98,-327 3009.98,-363"/>
<text text-anchor="middle" x="2885.98" y="-341.3" font-family="Times,serif" font-size="14.00">TransmissionFunction[Analyzer]</text>
</g>
<!-- ess.polarization.he3.get_he3_transmission_incoming_polarized_from_fit_to_direct_beam_TransmissionFunction[Analyzer]&#45;&gt;TransmissionFunction[Analyzer] -->
<g id="edge27" class="edge">
<title>ess.polarization.he3.get_he3_transmission_incoming_polarized_from_fit_to_direct_beam_TransmissionFunction[Analyzer]&#45;&gt;TransmissionFunction[Analyzer]</title>
<path fill="none" stroke="black" d="M2631.07,-357.92C2672.41,-355.82 2714.06,-353.7 2751.34,-351.8"/>
<polygon fill="black" stroke="black" points="2751.92,-355.28 2761.73,-351.27 2751.57,-348.28 2751.92,-355.28"/>
</g>
<!-- TransmissionFunction[Polarizer] -->
<g id="node31" class="node">
<title>TransmissionFunction[Polarizer]</title>
<polygon fill="none" stroke="black" points="3010.48,-309 2761.48,-309 2761.48,-273 3010.48,-273 3010.48,-309"/>
<text text-anchor="middle" x="2885.98" y="-287.3" font-family="Times,serif" font-size="14.00">TransmissionFunction[Polarizer]</text>
</g>
<!-- ess.polarization.he3.get_he3_transmission_incoming_unpolarized_from_fit_to_direct_beam_TransmissionFunction[Polarizer]&#45;&gt;TransmissionFunction[Polarizer] -->
<g id="edge31" class="edge">
<title>ess.polarization.he3.get_he3_transmission_incoming_unpolarized_from_fit_to_direct_beam_TransmissionFunction[Polarizer]&#45;&gt;TransmissionFunction[Polarizer]</title>
<path fill="none" stroke="black" d="M2635.74,-278.32C2675.48,-280.34 2715.35,-282.37 2751.17,-284.19"/>
<polygon fill="black" stroke="black" points="2751,-287.69 2761.17,-284.7 2751.36,-280.7 2751,-287.69"/>
</g>
</g>
</svg>
