<?xml version="1.0" encoding="UTF-8" standalone="no"?>
<!DOCTYPE svg PUBLIC "-//W3C//DTD SVG 1.1//EN"
 "http://www.w3.org/Graphics/SVG/1.1/DTD/svg11.dtd">
<!-- Generated by graphviz version 2.43.0 (0)
 -->
<!-- Title: %3 Pages: 1 -->
<svg width="321pt" height="100pt"
 viewBox="0.00 0.00 321.00 100.00" xmlns="http://www.w3.org/2000/svg" xmlns:xlink="http://www.w3.org/1999/xlink">
<g id="graph0" class="graph" transform="scale(1 1) rotate(0) translate(4 96)">
<title>%3</title>
<polygon fill="white" stroke="transparent" points="-4,4 -4,-96 317,-96 317,4 -4,4"/>
<!-- SupermirrorEfficiencyFunction[Polarizer] -->
<g id="node1" class="node">
<title>SupermirrorEfficiencyFunction[Polarizer]</title>
<polygon fill="none" stroke="red" stroke-dasharray="5,2" points="313,-92 0,-92 0,-69 313,-69 313,-92"/>
<text text-anchor="middle" x="156.5" y="-76.8" font-family="Times,serif" font-size="14.00" fill="red">SupermirrorEfficiencyFunction[Polarizer]</text>
</g>
<!-- TransmissionFunction[Polarizer] -->
<g id="node2" class="node">
<title>TransmissionFunction[Polarizer]</title>
<polygon fill="none" stroke="black" points="285,-33 28,-33 28,0 285,0 285,-33"/>
<text text-anchor="start" x="40" y="-18.8" font-family="Times,serif" font-size="14.00">TransmissionFunction[Polarizer]</text>
<text text-anchor="start" x="36" y="-7.2" font-family="Times,serif" font-size="11.00">via:</text>
<text text-anchor="start" x="57" y="-7.2" font-family="Times,serif" font-style="italic" font-size="11.00">get_supermirror_transmission_function</text>
</g>
<!-- SupermirrorEfficiencyFunction[Polarizer]&#45;&gt;TransmissionFunction[Polarizer] -->
<g id="edge1" class="edge">
<title>SupermirrorEfficiencyFunction[Polarizer]&#45;&gt;TransmissionFunction[Polarizer]</title>
<path fill="none" stroke="black" d="M156.5,-68.98C156.5,-61.93 156.5,-52.32 156.5,-43.31"/>
<polygon fill="black" stroke="black" points="160,-43.2 156.5,-33.2 153,-43.2 160,-43.2"/>
</g>
</g>
</svg>
