<?xml version="1.0" encoding="UTF-8" standalone="no"?>
<!DOCTYPE svg PUBLIC "-//W3C//DTD SVG 1.1//EN"
 "http://www.w3.org/Graphics/SVG/1.1/DTD/svg11.dtd">
<!-- Generated by graphviz version 2.43.0 (0)
 -->
<!-- Title: %3 Pages: 1 -->
<svg width="672pt" height="169pt"
 viewBox="0.00 0.00 672.00 169.00" xmlns="http://www.w3.org/2000/svg" xmlns:xlink="http://www.w3.org/1999/xlink">
<g id="graph0" class="graph" transform="scale(1 1) rotate(0) translate(4 165)">
<title>%3</title>
<polygon fill="white" stroke="transparent" points="-4,4 -4,-165 668,-165 668,4 -4,4"/>
<!-- He3CellLength[Polarizer] -->
<g id="node1" class="node">
<title>He3CellLength[Polarizer]</title>
<polygon fill="none" stroke="red" stroke-dasharray="5,2" points="198,-161 0,-161 0,-138 198,-138 198,-161"/>
<text text-anchor="middle" x="99" y="-145.8" font-family="Times,serif" font-size="14.00" fill="red">He3CellLength[Polarizer]</text>
</g>
<!-- He3Opacity0[Polarizer] -->
<g id="node4" class="node">
<title>He3Opacity0[Polarizer]</title>
<polygon fill="none" stroke="black" points="415,-102 207,-102 207,-69 415,-69 415,-102"/>
<text text-anchor="start" x="227" y="-87.8" font-family="Times,serif" font-size="14.00">He3Opacity0[Polarizer]</text>
<text text-anchor="start" x="215" y="-76.2" font-family="Times,serif" font-size="11.00">via:</text>
<text text-anchor="start" x="236" y="-76.2" font-family="Times,serif" font-style="italic" font-size="11.00">he3_opacity_from_cell_params</text>
</g>
<!-- He3CellLength[Polarizer]&#45;&gt;He3Opacity0[Polarizer] -->
<g id="edge2" class="edge">
<title>He3CellLength[Polarizer]&#45;&gt;He3Opacity0[Polarizer]</title>
<path fill="none" stroke="black" d="M134.96,-137.98C165.87,-128.94 211.15,-115.7 248.05,-104.91"/>
<polygon fill="black" stroke="black" points="249.11,-108.25 257.73,-102.08 247.15,-101.53 249.11,-108.25"/>
</g>
<!-- He3CellPressure[Polarizer] -->
<g id="node2" class="node">
<title>He3CellPressure[Polarizer]</title>
<polygon fill="none" stroke="red" stroke-dasharray="5,2" points="417,-161 205,-161 205,-138 417,-138 417,-161"/>
<text text-anchor="middle" x="311" y="-145.8" font-family="Times,serif" font-size="14.00" fill="red">He3CellPressure[Polarizer]</text>
</g>
<!-- He3CellPressure[Polarizer]&#45;&gt;He3Opacity0[Polarizer] -->
<g id="edge1" class="edge">
<title>He3CellPressure[Polarizer]&#45;&gt;He3Opacity0[Polarizer]</title>
<path fill="none" stroke="black" d="M311,-137.98C311,-130.93 311,-121.32 311,-112.31"/>
<polygon fill="black" stroke="black" points="314.5,-112.2 311,-102.2 307.5,-112.2 314.5,-112.2"/>
</g>
<!-- He3CellTemperature[Polarizer] -->
<g id="node3" class="node">
<title>He3CellTemperature[Polarizer]</title>
<polygon fill="none" stroke="red" stroke-dasharray="5,2" points="664,-161 424,-161 424,-138 664,-138 664,-161"/>
<text text-anchor="middle" x="544" y="-145.8" font-family="Times,serif" font-size="14.00" fill="red">He3CellTemperature[Polarizer]</text>
</g>
<!-- He3CellTemperature[Polarizer]&#45;&gt;He3Opacity0[Polarizer] -->
<g id="edge3" class="edge">
<title>He3CellTemperature[Polarizer]&#45;&gt;He3Opacity0[Polarizer]</title>
<path fill="none" stroke="black" d="M504.47,-137.98C470.29,-128.89 420.1,-115.53 379.41,-104.7"/>
<polygon fill="black" stroke="black" points="380.11,-101.27 369.55,-102.08 378.31,-108.03 380.11,-101.27"/>
</g>
<!-- He3OpacityFunction[Polarizer] -->
<g id="node5" class="node">
<title>He3OpacityFunction[Polarizer]</title>
<polygon fill="none" stroke="black" points="439.5,-33 182.5,-33 182.5,0 439.5,0 439.5,-33"/>
<text text-anchor="start" x="200" y="-18.8" font-family="Times,serif" font-size="14.00">He3OpacityFunction[Polarizer]</text>
<text text-anchor="start" x="190.5" y="-7.2" font-family="Times,serif" font-size="11.00">via:</text>
<text text-anchor="start" x="211.5" y="-7.2" font-family="Times,serif" font-style="italic" font-size="11.00">he3_opacity_function_from_cell_opacity</text>
</g>
<!-- He3Opacity0[Polarizer]&#45;&gt;He3OpacityFunction[Polarizer] -->
<g id="edge4" class="edge">
<title>He3Opacity0[Polarizer]&#45;&gt;He3OpacityFunction[Polarizer]</title>
<path fill="none" stroke="black" d="M311,-68.96C311,-61.38 311,-52.05 311,-43.42"/>
<polygon fill="black" stroke="black" points="314.5,-43.42 311,-33.42 307.5,-43.42 314.5,-43.42"/>
</g>
</g>
</svg>
