<?xml version="1.0" encoding="UTF-8" standalone="no"?>
<!DOCTYPE svg PUBLIC "-//W3C//DTD SVG 1.1//EN"
 "http://www.w3.org/Graphics/SVG/1.1/DTD/svg11.dtd">
<!-- Generated by graphviz version 2.43.0 (0)
 -->
<!-- Title: %3 Pages: 1 -->
<svg width="1628pt" height="117pt"
 viewBox="0.00 0.00 1628.00 117.00" xmlns="http://www.w3.org/2000/svg" xmlns:xlink="http://www.w3.org/1999/xlink">
<g id="graph0" class="graph" transform="scale(1 1) rotate(0) translate(4 113)">
<title>%3</title>
<polygon fill="white" stroke="transparent" points="-4,4 -4,-113 1624,-113 1624,4 -4,4"/>
<!-- He3CellLength[Polarizer] -->
<g id="node1" class="node">
<title>He3CellLength[Polarizer]</title>
<polygon fill="none" stroke="red" stroke-dasharray="5,2" points="219,-109 21,-109 21,-86 219,-86 219,-109"/>
<text text-anchor="middle" x="120" y="-93.8" font-family="Times,serif" font-size="14.00" fill="red">He3CellLength[Polarizer]</text>
</g>
<!-- He3Opacity0[Polarizer] -->
<g id="node5" class="node">
<title>He3Opacity0[Polarizer]</title>
<polygon fill="none" stroke="black" points="520,-87 312,-87 312,-54 520,-54 520,-87"/>
<text text-anchor="start" x="332" y="-72.8" font-family="Times,serif" font-size="14.00">He3Opacity0[Polarizer]</text>
<text text-anchor="start" x="320" y="-61.2" font-family="Times,serif" font-size="11.00">via:</text>
<text text-anchor="start" x="341" y="-61.2" font-family="Times,serif" font-style="italic" font-size="11.00">he3_opacity_from_cell_params</text>
</g>
<!-- He3CellLength[Polarizer]&#45;&gt;He3Opacity0[Polarizer] -->
<g id="edge2" class="edge">
<title>He3CellLength[Polarizer]:e&#45;&gt;He3Opacity0[Polarizer]:w</title>
<path fill="none" stroke="black" d="M220,-97.5C258.95,-97.5 267.96,-74.94 301.76,-71.06"/>
<polygon fill="black" stroke="black" points="302.21,-74.54 312,-70.5 301.82,-67.56 302.21,-74.54"/>
</g>
<!-- He3CellPressure[Polarizer] -->
<g id="node2" class="node">
<title>He3CellPressure[Polarizer]</title>
<polygon fill="none" stroke="red" stroke-dasharray="5,2" points="226,-82 14,-82 14,-59 226,-59 226,-82"/>
<text text-anchor="middle" x="120" y="-66.8" font-family="Times,serif" font-size="14.00" fill="red">He3CellPressure[Polarizer]</text>
</g>
<!-- He3CellPressure[Polarizer]&#45;&gt;He3Opacity0[Polarizer] -->
<g id="edge1" class="edge">
<title>He3CellPressure[Polarizer]:e&#45;&gt;He3Opacity0[Polarizer]:w</title>
<path fill="none" stroke="black" d="M227,-70.5C261.09,-70.5 272.11,-70.5 301.69,-70.5"/>
<polygon fill="black" stroke="black" points="302,-74 312,-70.5 302,-67 302,-74"/>
</g>
<!-- He3CellTemperature[Polarizer] -->
<g id="node3" class="node">
<title>He3CellTemperature[Polarizer]</title>
<polygon fill="none" stroke="red" stroke-dasharray="5,2" points="240,-55 0,-55 0,-32 240,-32 240,-55"/>
<text text-anchor="middle" x="120" y="-39.8" font-family="Times,serif" font-size="14.00" fill="red">He3CellTemperature[Polarizer]</text>
</g>
<!-- He3CellTemperature[Polarizer]&#45;&gt;He3Opacity0[Polarizer] -->
<g id="edge3" class="edge">
<title>He3CellTemperature[Polarizer]:e&#45;&gt;He3Opacity0[Polarizer]:w</title>
<path fill="none" stroke="black" d="M240,-43.5C270.44,-43.5 276.66,-64.92 301.8,-69.6"/>
<polygon fill="black" stroke="black" points="301.73,-73.11 312,-70.5 302.35,-66.14 301.73,-73.11"/>
</g>
<!-- He3CellTransmissionFractionIncomingUnpolarized[Polarizer, Polarized] -->
<g id="node4" class="node">
<title>He3CellTransmissionFractionIncomingUnpolarized[Polarizer, Polarized]</title>
<polygon fill="none" stroke="red" stroke-dasharray="5,2" points="1122,-50 592,-50 592,-27 1122,-27 1122,-50"/>
<text text-anchor="middle" x="857" y="-34.8" font-family="Times,serif" font-size="14.00" fill="red">He3CellTransmissionFractionIncomingUnpolarized[Polarizer, Polarized]</text>
</g>
<!-- TransmissionFunction[Polarizer] -->
<g id="node8" class="node">
<title>TransmissionFunction[Polarizer]</title>
<polygon fill="none" stroke="black" points="1620,-55 1194,-55 1194,-22 1620,-22 1620,-55"/>
<text text-anchor="start" x="1290.5" y="-40.8" font-family="Times,serif" font-size="14.00">TransmissionFunction[Polarizer]</text>
<text text-anchor="start" x="1202" y="-29.2" font-family="Times,serif" font-size="11.00">via:</text>
<text text-anchor="start" x="1223" y="-29.2" font-family="Times,serif" font-style="italic" font-size="11.00">get_he3_transmission_incoming_unpolarized_from_fit_to_direct_beam</text>
</g>
<!-- He3CellTransmissionFractionIncomingUnpolarized[Polarizer, Polarized]&#45;&gt;TransmissionFunction[Polarizer] -->
<g id="edge5" class="edge">
<title>He3CellTransmissionFractionIncomingUnpolarized[Polarizer, Polarized]:e&#45;&gt;TransmissionFunction[Polarizer]:w</title>
<path fill="none" stroke="black" d="M1122,-38.5C1150.38,-38.5 1159.88,-38.5 1183.98,-38.5"/>
<polygon fill="black" stroke="black" points="1184,-42 1194,-38.5 1184,-35 1184,-42"/>
</g>
<!-- He3OpacityFunction[Polarizer] -->
<g id="node6" class="node">
<title>He3OpacityFunction[Polarizer]</title>
<polygon fill="none" stroke="black" points="985.5,-87 728.5,-87 728.5,-54 985.5,-54 985.5,-87"/>
<text text-anchor="start" x="746" y="-72.8" font-family="Times,serif" font-size="14.00">He3OpacityFunction[Polarizer]</text>
<text text-anchor="start" x="736.5" y="-61.2" font-family="Times,serif" font-size="11.00">via:</text>
<text text-anchor="start" x="757.5" y="-61.2" font-family="Times,serif" font-style="italic" font-size="11.00">he3_opacity_function_from_cell_opacity</text>
</g>
<!-- He3Opacity0[Polarizer]&#45;&gt;He3OpacityFunction[Polarizer] -->
<g id="edge4" class="edge">
<title>He3Opacity0[Polarizer]:e&#45;&gt;He3OpacityFunction[Polarizer]:w</title>
<path fill="none" stroke="black" d="M520,-70.5C608.5,-70.5 633.15,-70.5 716.78,-70.5"/>
<polygon fill="black" stroke="black" points="717,-74 727,-70.5 717,-67 717,-74"/>
</g>
<!-- He3OpacityFunction[Polarizer]&#45;&gt;TransmissionFunction[Polarizer] -->
<g id="edge6" class="edge">
<title>He3OpacityFunction[Polarizer]:e&#45;&gt;TransmissionFunction[Polarizer]:w</title>
<path fill="none" stroke="black" d="M987,-70.5C1047.65,-70.5 1062.08,-59.93 1122,-50.5 1150.42,-46.03 1159.54,-40.05 1183.86,-38.75"/>
<polygon fill="black" stroke="black" points="1184.09,-42.25 1194,-38.5 1183.92,-35.25 1184.09,-42.25"/>
</g>
<!-- He3TransmissionEmptyGlass[Polarizer] -->
<g id="node7" class="node">
<title>He3TransmissionEmptyGlass[Polarizer]</title>
<polygon fill="none" stroke="red" stroke-dasharray="5,2" points="1008,-23 706,-23 706,0 1008,0 1008,-23"/>
<text text-anchor="middle" x="857" y="-7.8" font-family="Times,serif" font-size="14.00" fill="red">He3TransmissionEmptyGlass[Polarizer]</text>
</g>
<!-- He3TransmissionEmptyGlass[Polarizer]&#45;&gt;TransmissionFunction[Polarizer] -->
<g id="edge7" class="edge">
<title>He3TransmissionEmptyGlass[Polarizer]:e&#45;&gt;TransmissionFunction[Polarizer]:w</title>
<path fill="none" stroke="black" d="M1009,-11.5C1059.72,-11.5 1071.82,-20.11 1122,-27.5 1150.4,-31.68 1159.59,-37.1 1183.88,-38.27"/>
<polygon fill="black" stroke="black" points="1183.92,-41.77 1194,-38.5 1184.08,-34.77 1183.92,-41.77"/>
</g>
</g>
</svg>
