<?xml version="1.0" encoding="UTF-8" standalone="no"?>
<!DOCTYPE svg PUBLIC "-//W3C//DTD SVG 1.1//EN"
 "http://www.w3.org/Graphics/SVG/1.1/DTD/svg11.dtd">
<!-- Generated by graphviz version 2.43.0 (0)
 -->
<!-- Title: %3 Pages: 1 -->
<svg width="2781pt" height="206pt"
 viewBox="0.00 0.00 2781.48 206.00" xmlns="http://www.w3.org/2000/svg" xmlns:xlink="http://www.w3.org/1999/xlink">
<g id="graph0" class="graph" transform="scale(1 1) rotate(0) translate(4 202)">
<title>%3</title>
<polygon fill="white" stroke="transparent" points="-4,4 -4,-202 2777.48,-202 2777.48,4 -4,4"/>
<!-- He3CellLength[Polarizer] -->
<g id="node1" class="node">
<title>He3CellLength[Polarizer]</title>
<polygon fill="none" stroke="red" stroke-dasharray="5,2" points="219,-198 21,-198 21,-162 219,-162 219,-198"/>
<text text-anchor="middle" x="120" y="-176.3" font-family="Times,serif" font-size="14.00" fill="red">He3CellLength[Polarizer]</text>
</g>
<!-- ess.polarization.he3.he3_opacity_from_cell_params_He3Opacity0[Polarizer] -->
<g id="node5" class="node">
<title>ess.polarization.he3.he3_opacity_from_cell_params_He3Opacity0[Polarizer]</title>
<ellipse fill="none" stroke="black" cx="427.44" cy="-126" rx="151.37" ry="18"/>
<text text-anchor="middle" x="427.44" y="-122.3" font-family="Times,serif" font-size="14.00">he3_opacity_from_cell_params</text>
</g>
<!-- He3CellLength[Polarizer]&#45;&gt;ess.polarization.he3.he3_opacity_from_cell_params_He3Opacity0[Polarizer] -->
<g id="edge2" class="edge">
<title>He3CellLength[Polarizer]&#45;&gt;ess.polarization.he3.he3_opacity_from_cell_params_He3Opacity0[Polarizer]</title>
<path fill="none" stroke="black" d="M219.32,-162.62C255.51,-156.22 296.38,-148.99 332.2,-142.66"/>
<polygon fill="black" stroke="black" points="332.92,-146.09 342.16,-140.9 331.7,-139.19 332.92,-146.09"/>
</g>
<!-- He3CellPressure[Polarizer] -->
<g id="node2" class="node">
<title>He3CellPressure[Polarizer]</title>
<polygon fill="none" stroke="red" stroke-dasharray="5,2" points="226,-144 14,-144 14,-108 226,-108 226,-144"/>
<text text-anchor="middle" x="120" y="-122.3" font-family="Times,serif" font-size="14.00" fill="red">He3CellPressure[Polarizer]</text>
</g>
<!-- He3CellPressure[Polarizer]&#45;&gt;ess.polarization.he3.he3_opacity_from_cell_params_He3Opacity0[Polarizer] -->
<g id="edge1" class="edge">
<title>He3CellPressure[Polarizer]&#45;&gt;ess.polarization.he3.he3_opacity_from_cell_params_He3Opacity0[Polarizer]</title>
<path fill="none" stroke="black" d="M226.11,-126C238.9,-126 252.19,-126 265.55,-126"/>
<polygon fill="black" stroke="black" points="265.78,-129.5 275.78,-126 265.78,-122.5 265.78,-129.5"/>
</g>
<!-- He3CellTemperature[Polarizer] -->
<g id="node3" class="node">
<title>He3CellTemperature[Polarizer]</title>
<polygon fill="none" stroke="red" stroke-dasharray="5,2" points="240,-90 0,-90 0,-54 240,-54 240,-90"/>
<text text-anchor="middle" x="120" y="-68.3" font-family="Times,serif" font-size="14.00" fill="red">He3CellTemperature[Polarizer]</text>
</g>
<!-- He3CellTemperature[Polarizer]&#45;&gt;ess.polarization.he3.he3_opacity_from_cell_params_He3Opacity0[Polarizer] -->
<g id="edge3" class="edge">
<title>He3CellTemperature[Polarizer]&#45;&gt;ess.polarization.he3.he3_opacity_from_cell_params_He3Opacity0[Polarizer]</title>
<path fill="none" stroke="black" d="M223.13,-90.06C258.33,-96.28 297.57,-103.22 332.12,-109.32"/>
<polygon fill="black" stroke="black" points="331.75,-112.81 342.2,-111.11 332.96,-105.92 331.75,-112.81"/>
</g>
<!-- He3CellTransmissionFractionIncomingUnpolarized[Polarizer, Polarized] -->
<g id="node4" class="node">
<title>He3CellTransmissionFractionIncomingUnpolarized[Polarizer, Polarized]</title>
<polygon fill="none" stroke="red" stroke-dasharray="5,2" points="1786.94,-90 1256.94,-90 1256.94,-54 1786.94,-54 1786.94,-90"/>
<text text-anchor="middle" x="1521.94" y="-68.3" font-family="Times,serif" font-size="14.00" fill="red">He3CellTransmissionFractionIncomingUnpolarized[Polarizer, Polarized]</text>
</g>
<!-- ess.polarization.he3.get_he3_transmission_incoming_unpolarized_from_fit_to_direct_beam_TransmissionFunction[Polarizer] -->
<g id="node10" class="node">
<title>ess.polarization.he3.get_he3_transmission_incoming_unpolarized_from_fit_to_direct_beam_TransmissionFunction[Polarizer]</title>
<ellipse fill="none" stroke="black" cx="2155.71" cy="-72" rx="332.54" ry="18"/>
<text text-anchor="middle" x="2155.71" y="-68.3" font-family="Times,serif" font-size="14.00">get_he3_transmission_incoming_unpolarized_from_fit_to_direct_beam</text>
</g>
<!-- He3CellTransmissionFractionIncomingUnpolarized[Polarizer, Polarized]&#45;&gt;ess.polarization.he3.get_he3_transmission_incoming_unpolarized_from_fit_to_direct_beam_TransmissionFunction[Polarizer] -->
<g id="edge7" class="edge">
<title>He3CellTransmissionFractionIncomingUnpolarized[Polarizer, Polarized]&#45;&gt;ess.polarization.he3.get_he3_transmission_incoming_unpolarized_from_fit_to_direct_beam_TransmissionFunction[Polarizer]</title>
<path fill="none" stroke="black" d="M1787.21,-72C1795.71,-72 1804.27,-72 1812.85,-72"/>
<polygon fill="black" stroke="black" points="1812.94,-75.5 1822.94,-72 1812.94,-68.5 1812.94,-75.5"/>
</g>
<!-- He3Opacity0[Polarizer] -->
<g id="node6" class="node">
<title>He3Opacity0[Polarizer]</title>
<polygon fill="none" stroke="black" points="798.87,-144 614.87,-144 614.87,-108 798.87,-108 798.87,-144"/>
<text text-anchor="middle" x="706.87" y="-122.3" font-family="Times,serif" font-size="14.00">He3Opacity0[Polarizer]</text>
</g>
<!-- ess.polarization.he3.he3_opacity_from_cell_params_He3Opacity0[Polarizer]&#45;&gt;He3Opacity0[Polarizer] -->
<g id="edge4" class="edge">
<title>ess.polarization.he3.he3_opacity_from_cell_params_He3Opacity0[Polarizer]&#45;&gt;He3Opacity0[Polarizer]</title>
<path fill="none" stroke="black" d="M578.93,-126C587.62,-126 596.25,-126 604.69,-126"/>
<polygon fill="black" stroke="black" points="604.86,-129.5 614.86,-126 604.86,-122.5 604.86,-129.5"/>
</g>
<!-- ess.polarization.he3.he3_opacity_function_from_cell_opacity_He3OpacityFunction[Polarizer] -->
<g id="node7" class="node">
<title>ess.polarization.he3.he3_opacity_function_from_cell_opacity_He3OpacityFunction[Polarizer]</title>
<ellipse fill="none" stroke="black" cx="1027.91" cy="-126" rx="193.07" ry="18"/>
<text text-anchor="middle" x="1027.91" y="-122.3" font-family="Times,serif" font-size="14.00">he3_opacity_function_from_cell_opacity</text>
</g>
<!-- He3Opacity0[Polarizer]&#45;&gt;ess.polarization.he3.he3_opacity_function_from_cell_opacity_He3OpacityFunction[Polarizer] -->
<g id="edge5" class="edge">
<title>He3Opacity0[Polarizer]&#45;&gt;ess.polarization.he3.he3_opacity_function_from_cell_opacity_He3OpacityFunction[Polarizer]</title>
<path fill="none" stroke="black" d="M799.3,-126C807.43,-126 815.86,-126 824.47,-126"/>
<polygon fill="black" stroke="black" points="824.66,-129.5 834.66,-126 824.66,-122.5 824.66,-129.5"/>
</g>
<!-- He3OpacityFunction[Polarizer] -->
<g id="node8" class="node">
<title>He3OpacityFunction[Polarizer]</title>
<polygon fill="none" stroke="black" points="1640.94,-144 1402.94,-144 1402.94,-108 1640.94,-108 1640.94,-144"/>
<text text-anchor="middle" x="1521.94" y="-122.3" font-family="Times,serif" font-size="14.00">He3OpacityFunction[Polarizer]</text>
</g>
<!-- ess.polarization.he3.he3_opacity_function_from_cell_opacity_He3OpacityFunction[Polarizer]&#45;&gt;He3OpacityFunction[Polarizer] -->
<g id="edge6" class="edge">
<title>ess.polarization.he3.he3_opacity_function_from_cell_opacity_He3OpacityFunction[Polarizer]&#45;&gt;He3OpacityFunction[Polarizer]</title>
<path fill="none" stroke="black" d="M1221.25,-126C1278.61,-126 1340.06,-126 1392.3,-126"/>
<polygon fill="black" stroke="black" points="1392.62,-129.5 1402.62,-126 1392.62,-122.5 1392.62,-129.5"/>
</g>
<!-- He3OpacityFunction[Polarizer]&#45;&gt;ess.polarization.he3.get_he3_transmission_incoming_unpolarized_from_fit_to_direct_beam_TransmissionFunction[Polarizer] -->
<g id="edge8" class="edge">
<title>He3OpacityFunction[Polarizer]&#45;&gt;ess.polarization.he3.get_he3_transmission_incoming_unpolarized_from_fit_to_direct_beam_TransmissionFunction[Polarizer]</title>
<path fill="none" stroke="black" d="M1641.03,-115.91C1732.54,-108.08 1861.11,-97.09 1966.73,-88.07"/>
<polygon fill="black" stroke="black" points="1967.21,-91.54 1976.88,-87.2 1966.62,-84.56 1967.21,-91.54"/>
</g>
<!-- He3TransmissionEmptyGlass[Polarizer] -->
<g id="node9" class="node">
<title>He3TransmissionEmptyGlass[Polarizer]</title>
<polygon fill="none" stroke="red" stroke-dasharray="5,2" points="1672.94,-36 1370.94,-36 1370.94,0 1672.94,0 1672.94,-36"/>
<text text-anchor="middle" x="1521.94" y="-14.3" font-family="Times,serif" font-size="14.00" fill="red">He3TransmissionEmptyGlass[Polarizer]</text>
</g>
<!-- He3TransmissionEmptyGlass[Polarizer]&#45;&gt;ess.polarization.he3.get_he3_transmission_incoming_unpolarized_from_fit_to_direct_beam_TransmissionFunction[Polarizer] -->
<g id="edge9" class="edge">
<title>He3TransmissionEmptyGlass[Polarizer]&#45;&gt;ess.polarization.he3.get_he3_transmission_incoming_unpolarized_from_fit_to_direct_beam_TransmissionFunction[Polarizer]</title>
<path fill="none" stroke="black" d="M1673.06,-30.83C1761,-38.35 1872.85,-47.91 1966.62,-55.92"/>
<polygon fill="black" stroke="black" points="1966.54,-59.43 1976.8,-56.79 1967.14,-52.45 1966.54,-59.43"/>
</g>
<!-- TransmissionFunction[Polarizer] -->
<g id="node11" class="node">
<title>TransmissionFunction[Polarizer]</title>
<polygon fill="none" stroke="black" points="2773.48,-90 2524.48,-90 2524.48,-54 2773.48,-54 2773.48,-90"/>
<text text-anchor="middle" x="2648.98" y="-68.3" font-family="Times,serif" font-size="14.00">TransmissionFunction[Polarizer]</text>
</g>
<!-- ess.polarization.he3.get_he3_transmission_incoming_unpolarized_from_fit_to_direct_beam_TransmissionFunction[Polarizer]&#45;&gt;TransmissionFunction[Polarizer] -->
<g id="edge10" class="edge">
<title>ess.polarization.he3.get_he3_transmission_incoming_unpolarized_from_fit_to_direct_beam_TransmissionFunction[Polarizer]&#45;&gt;TransmissionFunction[Polarizer]</title>
<path fill="none" stroke="black" d="M2488.82,-72C2497.5,-72 2506.02,-72 2514.32,-72"/>
<polygon fill="black" stroke="black" points="2514.34,-75.5 2524.34,-72 2514.34,-68.5 2514.34,-75.5"/>
</g>
</g>
</svg>
