<?xml version="1.0" encoding="UTF-8" standalone="no"?>
<!DOCTYPE svg PUBLIC "-//W3C//DTD SVG 1.1//EN"
 "http://www.w3.org/Graphics/SVG/1.1/DTD/svg11.dtd">
<!-- Generated by graphviz version 2.43.0 (0)
 -->
<!-- Title: %3 Pages: 1 -->
<svg width="1733pt" height="364pt"
 viewBox="0.00 0.00 1733.00 364.00" xmlns="http://www.w3.org/2000/svg" xmlns:xlink="http://www.w3.org/1999/xlink">
<g id="graph0" class="graph" transform="scale(1 1) rotate(0) translate(4 360)">
<title>%3</title>
<polygon fill="white" stroke="transparent" points="-4,4 -4,-360 1729,-360 1729,4 -4,4"/>
<g id="clust2" class="cluster">
<title>cluster_He3AnalyzerTransmissionFractionIncomingPolarized</title>
<polygon fill="#f0f0ff" stroke="#f0f0ff" points="222,-212 222,-348 617,-348 617,-212 222,-212"/>
<text text-anchor="middle" x="419.5" y="-332.8" font-family="Times,serif" font-size="14.00">He3AnalyzerTransmissionFractionIncomingPolarized</text>
</g>
<g id="clust4" class="cluster">
<title>cluster_He3CellLength</title>
<polygon fill="#f0f0ff" stroke="#f0f0ff" points="21,-196 21,-282 145,-282 145,-196 21,-196"/>
<text text-anchor="middle" x="83" y="-266.8" font-family="Times,serif" font-size="14.00">He3CellLength</text>
</g>
<g id="clust5" class="cluster">
<title>cluster_He3CellPressure</title>
<polygon fill="#f0f0ff" stroke="#f0f0ff" points="15,-102 15,-188 152,-188 152,-102 15,-102"/>
<text text-anchor="middle" x="83.5" y="-172.8" font-family="Times,serif" font-size="14.00">He3CellPressure</text>
</g>
<g id="clust6" class="cluster">
<title>cluster_He3CellTemperature</title>
<polygon fill="#f0f0ff" stroke="#f0f0ff" points="0,-8 0,-94 166,-94 166,-8 0,-8"/>
<text text-anchor="middle" x="83" y="-78.8" font-family="Times,serif" font-size="14.00">He3CellTemperature</text>
</g>
<g id="clust8" class="cluster">
<title>cluster_He3Opacity0</title>
<polygon fill="#f0f0ff" stroke="#f0f0ff" points="315,-102 315,-198 523,-198 523,-102 315,-102"/>
<text text-anchor="start" x="372" y="-183.8" font-family="Times,serif" font-size="14.00">He3Opacity0</text>
<text text-anchor="start" x="323" y="-172.2" font-family="Times,serif" font-size="11.00">via:</text>
<text text-anchor="start" x="344" y="-172.2" font-family="Times,serif" font-style="italic" font-size="11.00">he3_opacity_from_cell_params</text>
</g>
<g id="clust9" class="cluster">
<title>cluster_He3OpacityFunction</title>
<polygon fill="#f0f0ff" stroke="#f0f0ff" points="818,-102 818,-198 1075,-198 1075,-102 818,-102"/>
<text text-anchor="start" x="872.5" y="-183.8" font-family="Times,serif" font-size="14.00">He3OpacityFunction</text>
<text text-anchor="start" x="826" y="-172.2" font-family="Times,serif" font-size="11.00">via:</text>
<text text-anchor="start" x="847" y="-172.2" font-family="Times,serif" font-style="italic" font-size="11.00">he3_opacity_function_from_cell_opacity</text>
</g>
<g id="clust10" class="cluster">
<title>cluster_He3TransmissionEmptyGlass</title>
<polygon fill="#f0f0ff" stroke="#f0f0ff" points="833,-8 833,-94 1060,-94 1060,-8 833,-8"/>
<text text-anchor="middle" x="946.5" y="-78.8" font-family="Times,serif" font-size="14.00">He3TransmissionEmptyGlass</text>
</g>
<g id="clust11" class="cluster">
<title>cluster_TransmissionFunction</title>
<polygon fill="#f0f0ff" stroke="#f0f0ff" points="1275,-97 1275,-203 1717,-203 1717,-97 1275,-97"/>
<text text-anchor="middle" x="1496" y="-187.8" font-family="Times,serif" font-size="14.00">TransmissionFunction</text>
</g>
<!-- He3AnalyzerTransmissionFractionIncomingPolarized[Up, Down] -->
<g id="node1" class="node">
<title>He3AnalyzerTransmissionFractionIncomingPolarized[Up, Down]</title>
<polygon fill="none" stroke="red" stroke-dasharray="5,2" points="462,-316.5 376,-316.5 376,-295.5 462,-295.5 462,-316.5"/>
<text text-anchor="start" x="384" y="-302.9" font-family="Times,serif" font-size="12.00" fill="red">[Up, Down]</text>
</g>
<!-- He3AnalyzerTransmissionFractionAntiParallel -->
<g id="node2" class="node">
<title>He3AnalyzerTransmissionFractionAntiParallel</title>
<polygon fill="none" stroke="black" points="1119.5,-303.5 772.5,-303.5 772.5,-270.5 1119.5,-270.5 1119.5,-303.5"/>
<text text-anchor="start" x="780.5" y="-289.3" font-family="Times,serif" font-size="14.00">He3AnalyzerTransmissionFractionAntiParallel</text>
<text text-anchor="start" x="812.5" y="-277.7" font-family="Times,serif" font-size="11.00">via:</text>
<text text-anchor="start" x="833.5" y="-277.7" font-family="Times,serif" font-style="italic" font-size="11.00">transmission_fraction_analyzer_antiparallel</text>
</g>
<!-- He3AnalyzerTransmissionFractionIncomingPolarized[Up, Down]&#45;&gt;He3AnalyzerTransmissionFractionAntiParallel -->
<g id="edge1" class="edge">
<title>He3AnalyzerTransmissionFractionIncomingPolarized[Up, Down]:e&#45;&gt;He3AnalyzerTransmissionFractionAntiParallel:w</title>
<path fill="none" stroke="black" d="M463,-306C597.1,-306 632.62,-287.95 761.72,-287.04"/>
<polygon fill="black" stroke="black" points="762.01,-290.54 772,-287 761.99,-283.54 762.01,-290.54"/>
</g>
<!-- TransmissionFunction[Analyzer] -->
<g id="node20" class="node">
<title>TransmissionFunction[Analyzer]</title>
<polygon fill="none" stroke="black" points="1702.5,-171.5 1289.5,-171.5 1289.5,-140.5 1702.5,-140.5 1702.5,-171.5"/>
<text text-anchor="start" x="1464.5" y="-158.9" font-family="Times,serif" font-size="12.00">[Analyzer]</text>
<text text-anchor="start" x="1297.5" y="-147.7" font-family="Times,serif" font-size="11.00">via:</text>
<text text-anchor="start" x="1318.5" y="-147.7" font-family="Times,serif" font-style="italic" font-size="11.00">get_he3_transmission_incoming_polarized_from_fit_to_direct_beam</text>
</g>
<!-- He3AnalyzerTransmissionFractionAntiParallel&#45;&gt;TransmissionFunction[Analyzer] -->
<g id="edge14" class="edge">
<title>He3AnalyzerTransmissionFractionAntiParallel:e&#45;&gt;TransmissionFunction[Analyzer]:w</title>
<path fill="none" stroke="black" d="M1120,-287C1161.41,-287 1176.6,-290.05 1211,-267 1257.76,-235.67 1231.75,-165.52 1277.79,-156.88"/>
<polygon fill="black" stroke="black" points="1278.34,-160.35 1288,-156 1277.74,-153.37 1278.34,-160.35"/>
</g>
<!-- He3AnalyzerTransmissionFractionIncomingPolarized[Down, Up] -->
<g id="node3" class="node">
<title>He3AnalyzerTransmissionFractionIncomingPolarized[Down, Up]</title>
<polygon fill="none" stroke="red" stroke-dasharray="5,2" points="462,-291.5 376,-291.5 376,-270.5 462,-270.5 462,-291.5"/>
<text text-anchor="start" x="384" y="-277.9" font-family="Times,serif" font-size="12.00" fill="red">[Down, Up]</text>
</g>
<!-- He3AnalyzerTransmissionFractionIncomingPolarized[Down, Up]&#45;&gt;He3AnalyzerTransmissionFractionAntiParallel -->
<g id="edge2" class="edge">
<title>He3AnalyzerTransmissionFractionIncomingPolarized[Down, Up]:e&#45;&gt;He3AnalyzerTransmissionFractionAntiParallel:w</title>
<path fill="none" stroke="black" d="M463,-281C596.87,-281 632.83,-286.7 761.73,-286.99"/>
<polygon fill="black" stroke="black" points="762,-290.49 772,-287 762,-283.49 762,-290.49"/>
</g>
<!-- He3AnalyzerTransmissionFractionIncomingPolarized[Down, Down] -->
<g id="node4" class="node">
<title>He3AnalyzerTransmissionFractionIncomingPolarized[Down, Down]</title>
<polygon fill="none" stroke="red" stroke-dasharray="5,2" points="471,-266.5 367,-266.5 367,-245.5 471,-245.5 471,-266.5"/>
<text text-anchor="start" x="375" y="-252.9" font-family="Times,serif" font-size="12.00" fill="red">[Down, Down]</text>
</g>
<!-- He3AnalyzerTransmissionFractionParallel -->
<g id="node6" class="node">
<title>He3AnalyzerTransmissionFractionParallel</title>
<polygon fill="none" stroke="black" points="1104.5,-266.5 787.5,-266.5 787.5,-233.5 1104.5,-233.5 1104.5,-266.5"/>
<text text-anchor="start" x="795.5" y="-252.3" font-family="Times,serif" font-size="14.00">He3AnalyzerTransmissionFractionParallel</text>
<text text-anchor="start" x="823.5" y="-240.7" font-family="Times,serif" font-size="11.00">via:</text>
<text text-anchor="start" x="844.5" y="-240.7" font-family="Times,serif" font-style="italic" font-size="11.00">transmission_fraction_analyzer_parallel</text>
</g>
<!-- He3AnalyzerTransmissionFractionIncomingPolarized[Down, Down]&#45;&gt;He3AnalyzerTransmissionFractionParallel -->
<g id="edge4" class="edge">
<title>He3AnalyzerTransmissionFractionIncomingPolarized[Down, Down]:e&#45;&gt;He3AnalyzerTransmissionFractionParallel:w</title>
<path fill="none" stroke="black" d="M472,-256C608.17,-256 644.66,-250.29 775.96,-250.01"/>
<polygon fill="black" stroke="black" points="776,-253.51 786,-250 776,-246.51 776,-253.51"/>
</g>
<!-- He3AnalyzerTransmissionFractionIncomingPolarized[Up, Up] -->
<g id="node5" class="node">
<title>He3AnalyzerTransmissionFractionIncomingPolarized[Up, Up]</title>
<polygon fill="none" stroke="red" stroke-dasharray="5,2" points="453,-241.5 385,-241.5 385,-220.5 453,-220.5 453,-241.5"/>
<text text-anchor="start" x="393" y="-227.9" font-family="Times,serif" font-size="12.00" fill="red">[Up, Up]</text>
</g>
<!-- He3AnalyzerTransmissionFractionIncomingPolarized[Up, Up]&#45;&gt;He3AnalyzerTransmissionFractionParallel -->
<g id="edge3" class="edge">
<title>He3AnalyzerTransmissionFractionIncomingPolarized[Up, Up]:e&#45;&gt;He3AnalyzerTransmissionFractionParallel:w</title>
<path fill="none" stroke="black" d="M454,-231C598.33,-231 636.44,-249.12 775.79,-249.97"/>
<polygon fill="black" stroke="black" points="775.99,-253.47 786,-250 776.01,-246.47 775.99,-253.47"/>
</g>
<!-- He3AnalyzerTransmissionFractionParallel&#45;&gt;TransmissionFunction[Analyzer] -->
<g id="edge13" class="edge">
<title>He3AnalyzerTransmissionFractionParallel:e&#45;&gt;TransmissionFunction[Analyzer]:w</title>
<path fill="none" stroke="black" d="M1106,-250C1153.51,-250 1168.79,-251.81 1211,-230 1249.87,-209.92 1242.18,-163.97 1277.92,-156.92"/>
<polygon fill="black" stroke="black" points="1278.36,-160.39 1288,-156 1277.72,-153.42 1278.36,-160.39"/>
</g>
<!-- He3CellLength[Analyzer] -->
<g id="node7" class="node">
<title>He3CellLength[Analyzer]</title>
<polygon fill="none" stroke="red" stroke-dasharray="5,2" points="122.5,-250.5 43.5,-250.5 43.5,-229.5 122.5,-229.5 122.5,-250.5"/>
<text text-anchor="start" x="51.5" y="-236.9" font-family="Times,serif" font-size="12.00" fill="red">[Analyzer]</text>
</g>
<!-- He3Opacity0[Analyzer] -->
<g id="node14" class="node">
<title>He3Opacity0[Analyzer]</title>
<polygon fill="none" stroke="black" points="458.5,-156.5 379.5,-156.5 379.5,-135.5 458.5,-135.5 458.5,-156.5"/>
<text text-anchor="start" x="387.5" y="-142.9" font-family="Times,serif" font-size="12.00">[Analyzer]</text>
</g>
<!-- He3CellLength[Analyzer]&#45;&gt;He3Opacity0[Analyzer] -->
<g id="edge6" class="edge">
<title>He3CellLength[Analyzer]:e&#45;&gt;He3Opacity0[Analyzer]:w</title>
<path fill="none" stroke="black" d="M123,-240C180.41,-240 304.39,-155.65 368.82,-146.76"/>
<polygon fill="black" stroke="black" points="369.29,-150.23 379,-146 368.77,-143.25 369.29,-150.23"/>
</g>
<!-- He3CellLength[Polarizer] -->
<g id="node8" class="node">
<title>He3CellLength[Polarizer]</title>
<polygon fill="none" stroke="red" stroke-dasharray="5,2" points="123,-225.5 43,-225.5 43,-204.5 123,-204.5 123,-225.5"/>
<text text-anchor="start" x="51" y="-211.9" font-family="Times,serif" font-size="12.00" fill="red">[Polarizer]</text>
</g>
<!-- He3Opacity0[Polarizer] -->
<g id="node15" class="node">
<title>He3Opacity0[Polarizer]</title>
<polygon fill="none" stroke="black" points="459,-131.5 379,-131.5 379,-110.5 459,-110.5 459,-131.5"/>
<text text-anchor="start" x="387" y="-117.9" font-family="Times,serif" font-size="12.00">[Polarizer]</text>
</g>
<!-- He3CellLength[Polarizer]&#45;&gt;He3Opacity0[Polarizer] -->
<g id="edge9" class="edge">
<title>He3CellLength[Polarizer]:e&#45;&gt;He3Opacity0[Polarizer]:w</title>
<path fill="none" stroke="black" d="M124,-215C179.95,-215 171.07,-159.16 222,-136 282.18,-108.63 305.91,-119.7 367.74,-120.9"/>
<polygon fill="black" stroke="black" points="367.97,-124.4 378,-121 368.03,-117.4 367.97,-124.4"/>
</g>
<!-- He3CellPressure[Analyzer] -->
<g id="node9" class="node">
<title>He3CellPressure[Analyzer]</title>
<polygon fill="none" stroke="red" stroke-dasharray="5,2" points="122.5,-156.5 43.5,-156.5 43.5,-135.5 122.5,-135.5 122.5,-156.5"/>
<text text-anchor="start" x="51.5" y="-142.9" font-family="Times,serif" font-size="12.00" fill="red">[Analyzer]</text>
</g>
<!-- He3CellPressure[Analyzer]&#45;&gt;He3Opacity0[Analyzer] -->
<g id="edge5" class="edge">
<title>He3CellPressure[Analyzer]:e&#45;&gt;He3Opacity0[Analyzer]:w</title>
<path fill="none" stroke="black" d="M123,-146C233.33,-146 263.42,-146 368.9,-146"/>
<polygon fill="black" stroke="black" points="369,-149.5 379,-146 369,-142.5 369,-149.5"/>
</g>
<!-- He3CellPressure[Polarizer] -->
<g id="node10" class="node">
<title>He3CellPressure[Polarizer]</title>
<polygon fill="none" stroke="red" stroke-dasharray="5,2" points="123,-131.5 43,-131.5 43,-110.5 123,-110.5 123,-131.5"/>
<text text-anchor="start" x="51" y="-117.9" font-family="Times,serif" font-size="12.00" fill="red">[Polarizer]</text>
</g>
<!-- He3CellPressure[Polarizer]&#45;&gt;He3Opacity0[Polarizer] -->
<g id="edge8" class="edge">
<title>He3CellPressure[Polarizer]:e&#45;&gt;He3Opacity0[Polarizer]:w</title>
<path fill="none" stroke="black" d="M124,-121C233.47,-121 263.32,-121 367.98,-121"/>
<polygon fill="black" stroke="black" points="368,-124.5 378,-121 368,-117.5 368,-124.5"/>
</g>
<!-- He3CellTemperature[Analyzer] -->
<g id="node11" class="node">
<title>He3CellTemperature[Analyzer]</title>
<polygon fill="none" stroke="red" stroke-dasharray="5,2" points="122.5,-62.5 43.5,-62.5 43.5,-41.5 122.5,-41.5 122.5,-62.5"/>
<text text-anchor="start" x="51.5" y="-48.9" font-family="Times,serif" font-size="12.00" fill="red">[Analyzer]</text>
</g>
<!-- He3CellTemperature[Analyzer]&#45;&gt;He3Opacity0[Analyzer] -->
<g id="edge7" class="edge">
<title>He3CellTemperature[Analyzer]:e&#45;&gt;He3Opacity0[Analyzer]:w</title>
<path fill="none" stroke="black" d="M123,-52C179.57,-52 169.56,-110.79 222,-132 283.65,-156.93 306.6,-147.15 368.69,-146.09"/>
<polygon fill="black" stroke="black" points="369.03,-149.59 379,-146 368.97,-142.59 369.03,-149.59"/>
</g>
<!-- He3CellTemperature[Polarizer] -->
<g id="node12" class="node">
<title>He3CellTemperature[Polarizer]</title>
<polygon fill="none" stroke="red" stroke-dasharray="5,2" points="123,-37.5 43,-37.5 43,-16.5 123,-16.5 123,-37.5"/>
<text text-anchor="start" x="51" y="-23.9" font-family="Times,serif" font-size="12.00" fill="red">[Polarizer]</text>
</g>
<!-- He3CellTemperature[Polarizer]&#45;&gt;He3Opacity0[Polarizer] -->
<g id="edge10" class="edge">
<title>He3CellTemperature[Polarizer]:e&#45;&gt;He3Opacity0[Polarizer]:w</title>
<path fill="none" stroke="black" d="M124,-27C240.84,-27 256.76,-115.57 367.69,-120.76"/>
<polygon fill="black" stroke="black" points="367.92,-124.27 378,-121 368.08,-117.27 367.92,-124.27"/>
</g>
<!-- He3CellTransmissionFractionIncomingUnpolarized[Polarizer, Polarized] -->
<g id="node13" class="node">
<title>He3CellTransmissionFractionIncomingUnpolarized[Polarizer, Polarized]</title>
<polygon fill="none" stroke="red" stroke-dasharray="5,2" points="1211,-229.5 681,-229.5 681,-206.5 1211,-206.5 1211,-229.5"/>
<text text-anchor="middle" x="946" y="-214.3" font-family="Times,serif" font-size="14.00" fill="red">He3CellTransmissionFractionIncomingUnpolarized[Polarizer, Polarized]</text>
</g>
<!-- TransmissionFunction[Polarizer] -->
<g id="node21" class="node">
<title>TransmissionFunction[Polarizer]</title>
<polygon fill="none" stroke="black" points="1709,-136.5 1283,-136.5 1283,-105.5 1709,-105.5 1709,-136.5"/>
<text text-anchor="start" x="1464" y="-123.9" font-family="Times,serif" font-size="12.00">[Polarizer]</text>
<text text-anchor="start" x="1291" y="-112.7" font-family="Times,serif" font-size="11.00">via:</text>
<text text-anchor="start" x="1312" y="-112.7" font-family="Times,serif" font-style="italic" font-size="11.00">get_he3_transmission_incoming_unpolarized_from_fit_to_direct_beam</text>
</g>
<!-- He3CellTransmissionFractionIncomingUnpolarized[Polarizer, Polarized]&#45;&gt;TransmissionFunction[Polarizer] -->
<g id="edge17" class="edge">
<title>He3CellTransmissionFractionIncomingUnpolarized[Polarizer, Polarized]:e&#45;&gt;TransmissionFunction[Polarizer]:w</title>
<path fill="none" stroke="black" d="M1211,-218C1260.67,-218 1233.17,-134.16 1271.99,-122.37"/>
<polygon fill="black" stroke="black" points="1272.57,-125.83 1282,-121 1271.62,-118.89 1272.57,-125.83"/>
</g>
<!-- He3OpacityFunction[Analyzer] -->
<g id="node16" class="node">
<title>He3OpacityFunction[Analyzer]</title>
<polygon fill="none" stroke="black" points="985.5,-156.5 906.5,-156.5 906.5,-135.5 985.5,-135.5 985.5,-156.5"/>
<text text-anchor="start" x="914.5" y="-142.9" font-family="Times,serif" font-size="12.00">[Analyzer]</text>
</g>
<!-- He3Opacity0[Analyzer]&#45;&gt;He3OpacityFunction[Analyzer] -->
<g id="edge11" class="edge">
<title>He3Opacity0[Analyzer]:e&#45;&gt;He3OpacityFunction[Analyzer]:w</title>
<path fill="none" stroke="black" d="M459,-146C654.27,-146 705.59,-146 895.94,-146"/>
<polygon fill="black" stroke="black" points="896,-149.5 906,-146 896,-142.5 896,-149.5"/>
</g>
<!-- He3OpacityFunction[Polarizer] -->
<g id="node17" class="node">
<title>He3OpacityFunction[Polarizer]</title>
<polygon fill="none" stroke="black" points="986,-131.5 906,-131.5 906,-110.5 986,-110.5 986,-131.5"/>
<text text-anchor="start" x="914" y="-117.9" font-family="Times,serif" font-size="12.00">[Polarizer]</text>
</g>
<!-- He3Opacity0[Polarizer]&#45;&gt;He3OpacityFunction[Polarizer] -->
<g id="edge12" class="edge">
<title>He3Opacity0[Polarizer]:e&#45;&gt;He3OpacityFunction[Polarizer]:w</title>
<path fill="none" stroke="black" d="M460,-121C654.4,-121 705.49,-121 894.99,-121"/>
<polygon fill="black" stroke="black" points="895,-124.5 905,-121 895,-117.5 895,-124.5"/>
</g>
<!-- He3OpacityFunction[Analyzer]&#45;&gt;TransmissionFunction[Analyzer] -->
<g id="edge15" class="edge">
<title>He3OpacityFunction[Analyzer]:e&#45;&gt;TransmissionFunction[Analyzer]:w</title>
<path fill="none" stroke="black" d="M986,-146C1116.89,-146 1151.94,-155.5 1277.96,-155.98"/>
<polygon fill="black" stroke="black" points="1277.99,-159.48 1288,-156 1278.01,-152.48 1277.99,-159.48"/>
</g>
<!-- He3OpacityFunction[Polarizer]&#45;&gt;TransmissionFunction[Polarizer] -->
<g id="edge18" class="edge">
<title>He3OpacityFunction[Polarizer]:e&#45;&gt;TransmissionFunction[Polarizer]:w</title>
<path fill="none" stroke="black" d="M987,-121C1114.65,-121 1149.09,-121 1271.83,-121"/>
<polygon fill="black" stroke="black" points="1272,-124.5 1282,-121 1272,-117.5 1272,-124.5"/>
</g>
<!-- He3TransmissionEmptyGlass[Analyzer] -->
<g id="node18" class="node">
<title>He3TransmissionEmptyGlass[Analyzer]</title>
<polygon fill="none" stroke="red" stroke-dasharray="5,2" points="985.5,-62.5 906.5,-62.5 906.5,-41.5 985.5,-41.5 985.5,-62.5"/>
<text text-anchor="start" x="914.5" y="-48.9" font-family="Times,serif" font-size="12.00" fill="red">[Analyzer]</text>
</g>
<!-- He3TransmissionEmptyGlass[Analyzer]&#45;&gt;TransmissionFunction[Analyzer] -->
<g id="edge16" class="edge">
<title>He3TransmissionEmptyGlass[Analyzer]:e&#45;&gt;TransmissionFunction[Analyzer]:w</title>
<path fill="none" stroke="black" d="M986,-52C1088.34,-52 1117.44,-59.52 1211,-101 1245.99,-116.51 1246.23,-149.35 1277.7,-155.12"/>
<polygon fill="black" stroke="black" points="1277.74,-158.64 1288,-156 1278.33,-151.66 1277.74,-158.64"/>
</g>
<!-- He3TransmissionEmptyGlass[Polarizer] -->
<g id="node19" class="node">
<title>He3TransmissionEmptyGlass[Polarizer]</title>
<polygon fill="none" stroke="red" stroke-dasharray="5,2" points="986,-37.5 906,-37.5 906,-16.5 986,-16.5 986,-37.5"/>
<text text-anchor="start" x="914" y="-23.9" font-family="Times,serif" font-size="12.00" fill="red">[Polarizer]</text>
</g>
<!-- He3TransmissionEmptyGlass[Polarizer]&#45;&gt;TransmissionFunction[Polarizer] -->
<g id="edge19" class="edge">
<title>He3TransmissionEmptyGlass[Polarizer]:e&#45;&gt;TransmissionFunction[Polarizer]:w</title>
<path fill="none" stroke="black" d="M987,-27C1086.75,-27 1121.34,2.72 1211,-41 1250.39,-60.21 1237.09,-111.99 1272.02,-119.96"/>
<polygon fill="black" stroke="black" points="1271.69,-123.45 1282,-121 1272.42,-116.49 1271.69,-123.45"/>
</g>
</g>
</svg>
