<?xml version="1.0" encoding="UTF-8" standalone="no"?>
<!DOCTYPE svg PUBLIC "-//W3C//DTD SVG 1.1//EN"
 "http://www.w3.org/Graphics/SVG/1.1/DTD/svg11.dtd">
<!-- Generated by graphviz version 2.43.0 (0)
 -->
<!-- Title: %3 Pages: 1 -->
<svg width="1310pt" height="332pt"
 viewBox="0.00 0.00 1310.00 332.00" xmlns="http://www.w3.org/2000/svg" xmlns:xlink="http://www.w3.org/1999/xlink">
<g id="graph0" class="graph" transform="scale(1 1) rotate(0) translate(4 328)">
<title>%3</title>
<polygon fill="white" stroke="transparent" points="-4,4 -4,-328 1306,-328 1306,4 -4,4"/>
<!-- He3CellLength[Polarizer] -->
<g id="node1" class="node">
<title>He3CellLength[Polarizer]</title>
<polygon fill="none" stroke="red" stroke-dasharray="5,2" points="198,-324 0,-324 0,-288 198,-288 198,-324"/>
<text text-anchor="middle" x="99" y="-302.3" font-family="Times,serif" font-size="14.00" fill="red">He3CellLength[Polarizer]</text>
</g>
<!-- ess.polarization.he3.he3_opacity_from_cell_params_He3Opacity0[Polarizer] -->
<g id="node5" class="node">
<title>ess.polarization.he3.he3_opacity_from_cell_params_He3Opacity0[Polarizer]</title>
<ellipse fill="none" stroke="black" cx="322" cy="-234" rx="151.37" ry="18"/>
<text text-anchor="middle" x="322" y="-230.3" font-family="Times,serif" font-size="14.00">he3_opacity_from_cell_params</text>
</g>
<!-- He3CellLength[Polarizer]&#45;&gt;ess.polarization.he3.he3_opacity_from_cell_params_He3Opacity0[Polarizer] -->
<g id="edge2" class="edge">
<title>He3CellLength[Polarizer]&#45;&gt;ess.polarization.he3.he3_opacity_from_cell_params_He3Opacity0[Polarizer]</title>
<path fill="none" stroke="black" d="M153.27,-287.97C185.89,-277.73 227.47,-264.67 261.2,-254.09"/>
<polygon fill="black" stroke="black" points="262.45,-257.36 270.94,-251.03 260.35,-250.68 262.45,-257.36"/>
</g>
<!-- He3CellPressure[Polarizer] -->
<g id="node2" class="node">
<title>He3CellPressure[Polarizer]</title>
<polygon fill="none" stroke="red" stroke-dasharray="5,2" points="428,-324 216,-324 216,-288 428,-288 428,-324"/>
<text text-anchor="middle" x="322" y="-302.3" font-family="Times,serif" font-size="14.00" fill="red">He3CellPressure[Polarizer]</text>
</g>
<!-- He3CellPressure[Polarizer]&#45;&gt;ess.polarization.he3.he3_opacity_from_cell_params_He3Opacity0[Polarizer] -->
<g id="edge1" class="edge">
<title>He3CellPressure[Polarizer]&#45;&gt;ess.polarization.he3.he3_opacity_from_cell_params_He3Opacity0[Polarizer]</title>
<path fill="none" stroke="black" d="M322,-287.7C322,-279.98 322,-270.71 322,-262.11"/>
<polygon fill="black" stroke="black" points="325.5,-262.1 322,-252.1 318.5,-262.1 325.5,-262.1"/>
</g>
<!-- He3CellTemperature[Polarizer] -->
<g id="node3" class="node">
<title>He3CellTemperature[Polarizer]</title>
<polygon fill="none" stroke="red" stroke-dasharray="5,2" points="686,-324 446,-324 446,-288 686,-288 686,-324"/>
<text text-anchor="middle" x="566" y="-302.3" font-family="Times,serif" font-size="14.00" fill="red">He3CellTemperature[Polarizer]</text>
</g>
<!-- He3CellTemperature[Polarizer]&#45;&gt;ess.polarization.he3.he3_opacity_from_cell_params_He3Opacity0[Polarizer] -->
<g id="edge3" class="edge">
<title>He3CellTemperature[Polarizer]&#45;&gt;ess.polarization.he3.he3_opacity_from_cell_params_He3Opacity0[Polarizer]</title>
<path fill="none" stroke="black" d="M506.62,-287.97C470.37,-277.56 423.98,-264.26 386.78,-253.58"/>
<polygon fill="black" stroke="black" points="387.62,-250.18 377.04,-250.79 385.69,-256.91 387.62,-250.18"/>
</g>
<!-- He3CellTransmissionFractionIncomingUnpolarized[Polarizer, Depolarized] -->
<g id="node4" class="node">
<title>He3CellTransmissionFractionIncomingUnpolarized[Polarizer, Depolarized]</title>
<polygon fill="none" stroke="red" stroke-dasharray="5,2" points="981.5,-180 432.5,-180 432.5,-144 981.5,-144 981.5,-180"/>
<text text-anchor="middle" x="707" y="-158.3" font-family="Times,serif" font-size="14.00" fill="red">He3CellTransmissionFractionIncomingUnpolarized[Polarizer, Depolarized]</text>
</g>
<!-- ess.polarization.he3.he3_opacity_function_from_beam_data_He3OpacityFunction[Polarizer] -->
<g id="node7" class="node">
<title>ess.polarization.he3.he3_opacity_function_from_beam_data_He3OpacityFunction[Polarizer]</title>
<ellipse fill="none" stroke="black" cx="707" cy="-90" rx="189.27" ry="18"/>
<text text-anchor="middle" x="707" y="-86.3" font-family="Times,serif" font-size="14.00">he3_opacity_function_from_beam_data</text>
</g>
<!-- He3CellTransmissionFractionIncomingUnpolarized[Polarizer, Depolarized]&#45;&gt;ess.polarization.he3.he3_opacity_function_from_beam_data_He3OpacityFunction[Polarizer] -->
<g id="edge6" class="edge">
<title>He3CellTransmissionFractionIncomingUnpolarized[Polarizer, Depolarized]&#45;&gt;ess.polarization.he3.he3_opacity_function_from_beam_data_He3OpacityFunction[Polarizer]</title>
<path fill="none" stroke="black" d="M707,-143.7C707,-135.98 707,-126.71 707,-118.11"/>
<polygon fill="black" stroke="black" points="710.5,-118.1 707,-108.1 703.5,-118.1 710.5,-118.1"/>
</g>
<!-- He3Opacity0[Polarizer] -->
<g id="node6" class="node">
<title>He3Opacity0[Polarizer]</title>
<polygon fill="none" stroke="black" points="414,-180 230,-180 230,-144 414,-144 414,-180"/>
<text text-anchor="middle" x="322" y="-158.3" font-family="Times,serif" font-size="14.00">He3Opacity0[Polarizer]</text>
</g>
<!-- ess.polarization.he3.he3_opacity_from_cell_params_He3Opacity0[Polarizer]&#45;&gt;He3Opacity0[Polarizer] -->
<g id="edge4" class="edge">
<title>ess.polarization.he3.he3_opacity_from_cell_params_He3Opacity0[Polarizer]&#45;&gt;He3Opacity0[Polarizer]</title>
<path fill="none" stroke="black" d="M322,-215.7C322,-207.98 322,-198.71 322,-190.11"/>
<polygon fill="black" stroke="black" points="325.5,-190.1 322,-180.1 318.5,-190.1 325.5,-190.1"/>
</g>
<!-- He3Opacity0[Polarizer]&#45;&gt;ess.polarization.he3.he3_opacity_function_from_beam_data_He3OpacityFunction[Polarizer] -->
<g id="edge7" class="edge">
<title>He3Opacity0[Polarizer]&#45;&gt;ess.polarization.he3.he3_opacity_function_from_beam_data_He3OpacityFunction[Polarizer]</title>
<path fill="none" stroke="black" d="M414.22,-144.23C474.49,-133.28 552.95,-119.01 613.48,-108"/>
<polygon fill="black" stroke="black" points="614.2,-111.43 623.41,-106.2 612.95,-104.54 614.2,-111.43"/>
</g>
<!-- He3OpacityFunction[Polarizer] -->
<g id="node9" class="node">
<title>He3OpacityFunction[Polarizer]</title>
<polygon fill="none" stroke="black" points="826,-36 588,-36 588,0 826,0 826,-36"/>
<text text-anchor="middle" x="707" y="-14.3" font-family="Times,serif" font-size="14.00">He3OpacityFunction[Polarizer]</text>
</g>
<!-- ess.polarization.he3.he3_opacity_function_from_beam_data_He3OpacityFunction[Polarizer]&#45;&gt;He3OpacityFunction[Polarizer] -->
<g id="edge8" class="edge">
<title>ess.polarization.he3.he3_opacity_function_from_beam_data_He3OpacityFunction[Polarizer]&#45;&gt;He3OpacityFunction[Polarizer]</title>
<path fill="none" stroke="black" d="M707,-71.7C707,-63.98 707,-54.71 707,-46.11"/>
<polygon fill="black" stroke="black" points="710.5,-46.1 707,-36.1 703.5,-46.1 710.5,-46.1"/>
</g>
<!-- He3TransmissionEmptyGlass[Polarizer] -->
<g id="node8" class="node">
<title>He3TransmissionEmptyGlass[Polarizer]</title>
<polygon fill="none" stroke="red" stroke-dasharray="5,2" points="1302,-180 1000,-180 1000,-144 1302,-144 1302,-180"/>
<text text-anchor="middle" x="1151" y="-158.3" font-family="Times,serif" font-size="14.00" fill="red">He3TransmissionEmptyGlass[Polarizer]</text>
</g>
<!-- He3TransmissionEmptyGlass[Polarizer]&#45;&gt;ess.polarization.he3.he3_opacity_function_from_beam_data_He3OpacityFunction[Polarizer] -->
<g id="edge5" class="edge">
<title>He3TransmissionEmptyGlass[Polarizer]&#45;&gt;ess.polarization.he3.he3_opacity_function_from_beam_data_He3OpacityFunction[Polarizer]</title>
<path fill="none" stroke="black" d="M1042.95,-143.97C972.12,-132.8 880.06,-118.28 810.23,-107.27"/>
<polygon fill="black" stroke="black" points="810.51,-103.78 800.09,-105.68 809.42,-110.69 810.51,-103.78"/>
</g>
</g>
</svg>
