<?xml version="1.0" encoding="UTF-8" standalone="no"?>
<!DOCTYPE svg PUBLIC "-//W3C//DTD SVG 1.1//EN"
 "http://www.w3.org/Graphics/SVG/1.1/DTD/svg11.dtd">
<!-- Generated by graphviz version 2.43.0 (0)
 -->
<!-- Title: %3 Pages: 1 -->
<svg width="2523pt" height="502pt"
 viewBox="0.00 0.00 2523.00 501.84" xmlns="http://www.w3.org/2000/svg" xmlns:xlink="http://www.w3.org/1999/xlink">
<g id="graph0" class="graph" transform="scale(1 1) rotate(0) translate(4 497.84)">
<title>%3</title>
<polygon fill="white" stroke="transparent" points="-4,4 -4,-497.84 2519,-497.84 2519,4 -4,4"/>
<g id="clust1" class="cluster">
<title>cluster_FlipperEfficiency</title>
<polygon fill="#f0f0ff" stroke="#f0f0ff" points="1334.5,-354.84 1334.5,-440.84 1472.5,-440.84 1472.5,-354.84 1334.5,-354.84"/>
<text text-anchor="middle" x="1403.5" y="-425.64" font-family="Times,serif" font-size="14.00">FlipperEfficiency</text>
</g>
<g id="clust3" class="cluster">
<title>cluster_He3AnalyzerTransmissionFractionIncomingPolarized</title>
<polygon fill="#f0f0ff" stroke="#f0f0ff" points="311,-197.84 311,-333.84 706,-333.84 706,-197.84 311,-197.84"/>
<text text-anchor="middle" x="508.5" y="-318.64" font-family="Times,serif" font-size="14.00">He3AnalyzerTransmissionFractionIncomingPolarized</text>
</g>
<g id="clust11" class="cluster">
<title>cluster_InverseFlipperMatrix</title>
<polygon fill="#f0f0ff" stroke="#f0f0ff" points="1685,-309.84 1685,-485.84 1922,-485.84 1922,-309.84 1685,-309.84"/>
<text text-anchor="middle" x="1803.5" y="-470.64" font-family="Times,serif" font-size="14.00">InverseFlipperMatrix</text>
</g>
<g id="clust12" class="cluster">
<title>cluster_PolarizationCorrectedData</title>
<polygon fill="#f0f0ff" stroke="#f0f0ff" points="2267,-52.84 2267,-198.84 2515,-198.84 2515,-52.84 2267,-52.84"/>
<text text-anchor="start" x="2296" y="-184.64" font-family="Times,serif" font-size="14.00">PolarizationCorrectedData</text>
<text text-anchor="start" x="2275" y="-173.04" font-family="Times,serif" font-size="11.00">via:</text>
<text text-anchor="start" x="2296" y="-173.04" font-family="Times,serif" font-style="italic" font-size="11.00">compute_polarization_corrected_data</text>
</g>
<g id="clust13" class="cluster">
<title>cluster_PolarizationCorrection</title>
<polygon fill="#f0f0ff" stroke="#f0f0ff" points="1990,-130.84 1990,-276.84 2211,-276.84 2211,-130.84 1990,-130.84"/>
<text text-anchor="start" x="2020" y="-262.64" font-family="Times,serif" font-size="14.00">PolarizationCorrection</text>
<text text-anchor="start" x="1998" y="-251.04" font-family="Times,serif" font-size="11.00">via:</text>
<text text-anchor="start" x="2019" y="-251.04" font-family="Times,serif" font-style="italic" font-size="11.00">compute_polarization_correction</text>
</g>
<g id="clust14" class="cluster">
<title>cluster_PolarizingElementCorrection</title>
<polygon fill="#f0f0ff" stroke="#f0f0ff" points="1673.5,-55.84 1673.5,-301.84 1934.5,-301.84 1934.5,-55.84 1673.5,-55.84"/>
<text text-anchor="start" x="1700" y="-287.64" font-family="Times,serif" font-size="14.00">PolarizingElementCorrection</text>
<text text-anchor="start" x="1681.5" y="-276.04" font-family="Times,serif" font-size="11.00">via:</text>
<text text-anchor="start" x="1702.5" y="-276.04" font-family="Times,serif" font-style="italic" font-size="11.00">compute_polarizing_element_correction</text>
</g>
<g id="clust15" class="cluster">
<title>cluster_ReducedSampleDataBySpinChannel</title>
<polygon fill="#f0f0ff" stroke="#f0f0ff" points="1266.5,-26.84 1266.5,-162.84 1541.5,-162.84 1541.5,-26.84 1266.5,-26.84"/>
<text text-anchor="middle" x="1404" y="-147.64" font-family="Times,serif" font-size="14.00">ReducedSampleDataBySpinChannel</text>
</g>
<g id="clust17" class="cluster">
<title>cluster_TransmissionFunction</title>
<polygon fill="#f0f0ff" stroke="#f0f0ff" points="1189,-170.84 1189,-276.84 1618,-276.84 1618,-170.84 1189,-170.84"/>
<text text-anchor="middle" x="1403.5" y="-261.64" font-family="Times,serif" font-size="14.00">TransmissionFunction</text>
</g>
<!-- FlipperEfficiency[Analyzer] -->
<g id="node1" class="node">
<title>FlipperEfficiency[Analyzer]</title>
<polygon fill="none" stroke="black" points="1443,-409.34 1364,-409.34 1364,-388.34 1443,-388.34 1443,-409.34"/>
<text text-anchor="start" x="1372" y="-395.74" font-family="Times,serif" font-size="12.00">[Analyzer]</text>
</g>
<!-- InverseFlipperMatrix[Down, Analyzer] -->
<g id="node15" class="node">
<title>InverseFlipperMatrix[Down, Analyzer]</title>
<polygon fill="none" stroke="black" points="1914,-454.34 1693,-454.34 1693,-423.34 1914,-423.34 1914,-454.34"/>
<text text-anchor="start" x="1750.5" y="-441.74" font-family="Times,serif" font-size="12.00">[Down, Analyzer]</text>
<text text-anchor="start" x="1701" y="-430.54" font-family="Times,serif" font-size="11.00">via:</text>
<text text-anchor="start" x="1722" y="-430.54" font-family="Times,serif" font-style="italic" font-size="11.00">make_spin_flipping_matrix_down</text>
</g>
<!-- FlipperEfficiency[Analyzer]&#45;&gt;InverseFlipperMatrix[Down, Analyzer] -->
<g id="edge9" class="edge">
<title>FlipperEfficiency[Analyzer]:e&#45;&gt;InverseFlipperMatrix[Down, Analyzer]:w</title>
<path fill="none" stroke="black" d="M1443.5,-398.84C1552.08,-398.84 1578.78,-436.38 1682.24,-438.72"/>
<polygon fill="black" stroke="black" points="1682.46,-442.22 1692.5,-438.84 1682.54,-435.23 1682.46,-442.22"/>
</g>
<!-- InverseFlipperMatrix[Up, Analyzer] -->
<g id="node17" class="node">
<title>InverseFlipperMatrix[Up, Analyzer]</title>
<polygon fill="none" stroke="black" points="1906,-384.34 1701,-384.34 1701,-353.34 1906,-353.34 1906,-384.34"/>
<text text-anchor="start" x="1759.5" y="-371.74" font-family="Times,serif" font-size="12.00">[Up, Analyzer]</text>
<text text-anchor="start" x="1709" y="-360.54" font-family="Times,serif" font-size="11.00">via:</text>
<text text-anchor="start" x="1730" y="-360.54" font-family="Times,serif" font-style="italic" font-size="11.00">make_spin_flipping_matrix_up</text>
</g>
<!-- FlipperEfficiency[Analyzer]&#45;&gt;InverseFlipperMatrix[Up, Analyzer] -->
<g id="edge11" class="edge">
<title>FlipperEfficiency[Analyzer]:e&#45;&gt;InverseFlipperMatrix[Up, Analyzer]:w</title>
<path fill="none" stroke="black" d="M1443.5,-398.84C1521.3,-398.84 1540.91,-395.37 1618,-384.84 1651.39,-380.27 1661.28,-370.92 1690.34,-369.13"/>
<polygon fill="black" stroke="black" points="1690.61,-372.63 1700.5,-368.84 1690.4,-365.63 1690.61,-372.63"/>
</g>
<!-- FlipperEfficiency[Polarizer] -->
<g id="node2" class="node">
<title>FlipperEfficiency[Polarizer]</title>
<polygon fill="none" stroke="black" points="1443.5,-384.34 1363.5,-384.34 1363.5,-363.34 1443.5,-363.34 1443.5,-384.34"/>
<text text-anchor="start" x="1371.5" y="-370.74" font-family="Times,serif" font-size="12.00">[Polarizer]</text>
</g>
<!-- InverseFlipperMatrix[Down, Polarizer] -->
<g id="node16" class="node">
<title>InverseFlipperMatrix[Down, Polarizer]</title>
<polygon fill="none" stroke="black" points="1914,-349.34 1693,-349.34 1693,-318.34 1914,-318.34 1914,-349.34"/>
<text text-anchor="start" x="1750" y="-336.74" font-family="Times,serif" font-size="12.00">[Down, Polarizer]</text>
<text text-anchor="start" x="1701" y="-325.54" font-family="Times,serif" font-size="11.00">via:</text>
<text text-anchor="start" x="1722" y="-325.54" font-family="Times,serif" font-style="italic" font-size="11.00">make_spin_flipping_matrix_down</text>
</g>
<!-- FlipperEfficiency[Polarizer]&#45;&gt;InverseFlipperMatrix[Down, Polarizer] -->
<g id="edge10" class="edge">
<title>FlipperEfficiency[Polarizer]:e&#45;&gt;InverseFlipperMatrix[Down, Polarizer]:w</title>
<path fill="none" stroke="black" d="M1444.5,-373.84C1552.66,-373.84 1579.22,-336.3 1682.28,-333.95"/>
<polygon fill="black" stroke="black" points="1682.54,-337.45 1692.5,-333.84 1682.46,-330.45 1682.54,-337.45"/>
</g>
<!-- InverseFlipperMatrix[Up, Polarizer] -->
<g id="node18" class="node">
<title>InverseFlipperMatrix[Up, Polarizer]</title>
<polygon fill="none" stroke="black" points="1906,-419.34 1701,-419.34 1701,-388.34 1906,-388.34 1906,-419.34"/>
<text text-anchor="start" x="1759" y="-406.74" font-family="Times,serif" font-size="12.00">[Up, Polarizer]</text>
<text text-anchor="start" x="1709" y="-395.54" font-family="Times,serif" font-size="11.00">via:</text>
<text text-anchor="start" x="1730" y="-395.54" font-family="Times,serif" font-style="italic" font-size="11.00">make_spin_flipping_matrix_up</text>
</g>
<!-- FlipperEfficiency[Polarizer]&#45;&gt;InverseFlipperMatrix[Up, Polarizer] -->
<g id="edge12" class="edge">
<title>FlipperEfficiency[Polarizer]:e&#45;&gt;InverseFlipperMatrix[Up, Polarizer]:w</title>
<path fill="none" stroke="black" d="M1444.5,-373.84C1521.9,-373.84 1541.29,-378.57 1618,-388.84 1651.33,-393.3 1661.34,-401.92 1690.36,-403.56"/>
<polygon fill="black" stroke="black" points="1690.41,-407.07 1700.5,-403.84 1690.6,-400.07 1690.41,-407.07"/>
</g>
<!-- He3AnalyzerTransmissionFractionIncomingPolarized[Up, Down] -->
<g id="node3" class="node">
<title>He3AnalyzerTransmissionFractionIncomingPolarized[Up, Down]</title>
<polygon fill="none" stroke="red" stroke-dasharray="5,2" points="551,-277.34 465,-277.34 465,-256.34 551,-256.34 551,-277.34"/>
<text text-anchor="start" x="473" y="-263.74" font-family="Times,serif" font-size="12.00" fill="red">[Up, Down]</text>
</g>
<!-- He3AnalyzerTransmissionFractionAntiParallel -->
<g id="node4" class="node">
<title>He3AnalyzerTransmissionFractionAntiParallel</title>
<polygon fill="none" stroke="black" points="1125,-283.34 778,-283.34 778,-250.34 1125,-250.34 1125,-283.34"/>
<text text-anchor="start" x="786" y="-269.14" font-family="Times,serif" font-size="14.00">He3AnalyzerTransmissionFractionAntiParallel</text>
<text text-anchor="start" x="818" y="-257.54" font-family="Times,serif" font-size="11.00">via:</text>
<text text-anchor="start" x="839" y="-257.54" font-family="Times,serif" font-style="italic" font-size="11.00">transmission_fraction_analyzer_antiparallel</text>
</g>
<!-- He3AnalyzerTransmissionFractionIncomingPolarized[Up, Down]&#45;&gt;He3AnalyzerTransmissionFractionAntiParallel -->
<g id="edge1" class="edge">
<title>He3AnalyzerTransmissionFractionIncomingPolarized[Up, Down]:e&#45;&gt;He3AnalyzerTransmissionFractionAntiParallel:w</title>
<path fill="none" stroke="black" d="M552,-266.84C649.01,-266.84 675.75,-266.84 767.96,-266.84"/>
<polygon fill="black" stroke="black" points="768,-270.34 778,-266.84 768,-263.34 768,-270.34"/>
</g>
<!-- TransmissionFunction[Analyzer] -->
<g id="node39" class="node">
<title>TransmissionFunction[Analyzer]</title>
<polygon fill="none" stroke="black" points="1610,-245.34 1197,-245.34 1197,-214.34 1610,-214.34 1610,-245.34"/>
<text text-anchor="start" x="1372" y="-232.74" font-family="Times,serif" font-size="12.00">[Analyzer]</text>
<text text-anchor="start" x="1205" y="-221.54" font-family="Times,serif" font-size="11.00">via:</text>
<text text-anchor="start" x="1226" y="-221.54" font-family="Times,serif" font-style="italic" font-size="11.00">get_he3_transmission_incoming_polarized_from_fit_to_direct_beam</text>
</g>
<!-- He3AnalyzerTransmissionFractionAntiParallel&#45;&gt;TransmissionFunction[Analyzer] -->
<g id="edge54" class="edge">
<title>He3AnalyzerTransmissionFractionAntiParallel:e&#45;&gt;TransmissionFunction[Analyzer]:w</title>
<path fill="none" stroke="black" d="M1125,-266.84C1156.65,-266.84 1159.77,-237.23 1185.41,-230.98"/>
<polygon fill="black" stroke="black" points="1185.96,-234.45 1195.5,-229.84 1185.17,-227.49 1185.96,-234.45"/>
</g>
<!-- He3AnalyzerTransmissionFractionIncomingPolarized[Down, Up] -->
<g id="node5" class="node">
<title>He3AnalyzerTransmissionFractionIncomingPolarized[Down, Up]</title>
<polygon fill="none" stroke="red" stroke-dasharray="5,2" points="551,-302.34 465,-302.34 465,-281.34 551,-281.34 551,-302.34"/>
<text text-anchor="start" x="473" y="-288.74" font-family="Times,serif" font-size="12.00" fill="red">[Down, Up]</text>
</g>
<!-- He3AnalyzerTransmissionFractionIncomingPolarized[Down, Up]&#45;&gt;He3AnalyzerTransmissionFractionAntiParallel -->
<g id="edge2" class="edge">
<title>He3AnalyzerTransmissionFractionIncomingPolarized[Down, Up]:e&#45;&gt;He3AnalyzerTransmissionFractionAntiParallel:w</title>
<path fill="none" stroke="black" d="M552,-291.84C620.73,-291.84 637.78,-286.14 706,-277.84 734.49,-274.37 743.61,-268.4 767.88,-267.09"/>
<polygon fill="black" stroke="black" points="768.09,-270.59 778,-266.84 767.91,-263.59 768.09,-270.59"/>
</g>
<!-- He3AnalyzerTransmissionFractionIncomingPolarized[Down, Down] -->
<g id="node6" class="node">
<title>He3AnalyzerTransmissionFractionIncomingPolarized[Down, Down]</title>
<polygon fill="none" stroke="red" stroke-dasharray="5,2" points="560,-227.34 456,-227.34 456,-206.34 560,-206.34 560,-227.34"/>
<text text-anchor="start" x="464" y="-213.74" font-family="Times,serif" font-size="12.00" fill="red">[Down, Down]</text>
</g>
<!-- He3AnalyzerTransmissionFractionParallel -->
<g id="node8" class="node">
<title>He3AnalyzerTransmissionFractionParallel</title>
<polygon fill="none" stroke="black" points="1110,-246.34 793,-246.34 793,-213.34 1110,-213.34 1110,-246.34"/>
<text text-anchor="start" x="801" y="-232.14" font-family="Times,serif" font-size="14.00">He3AnalyzerTransmissionFractionParallel</text>
<text text-anchor="start" x="829" y="-220.54" font-family="Times,serif" font-size="11.00">via:</text>
<text text-anchor="start" x="850" y="-220.54" font-family="Times,serif" font-style="italic" font-size="11.00">transmission_fraction_analyzer_parallel</text>
</g>
<!-- He3AnalyzerTransmissionFractionIncomingPolarized[Down, Down]&#45;&gt;He3AnalyzerTransmissionFractionParallel -->
<g id="edge4" class="edge">
<title>He3AnalyzerTransmissionFractionIncomingPolarized[Down, Down]:e&#45;&gt;He3AnalyzerTransmissionFractionParallel:w</title>
<path fill="none" stroke="black" d="M561,-216.84C660.1,-216.84 687.07,-228.96 781.24,-229.79"/>
<polygon fill="black" stroke="black" points="781.48,-233.29 791.5,-229.84 781.52,-226.29 781.48,-233.29"/>
</g>
<!-- He3AnalyzerTransmissionFractionIncomingPolarized[Up, Up] -->
<g id="node7" class="node">
<title>He3AnalyzerTransmissionFractionIncomingPolarized[Up, Up]</title>
<polygon fill="none" stroke="red" stroke-dasharray="5,2" points="542,-252.34 474,-252.34 474,-231.34 542,-231.34 542,-252.34"/>
<text text-anchor="start" x="482" y="-238.74" font-family="Times,serif" font-size="12.00" fill="red">[Up, Up]</text>
</g>
<!-- He3AnalyzerTransmissionFractionIncomingPolarized[Up, Up]&#45;&gt;He3AnalyzerTransmissionFractionParallel -->
<g id="edge3" class="edge">
<title>He3AnalyzerTransmissionFractionIncomingPolarized[Up, Up]:e&#45;&gt;He3AnalyzerTransmissionFractionParallel:w</title>
<path fill="none" stroke="black" d="M543,-241.84C650.12,-241.84 679.14,-230.58 781.37,-229.87"/>
<polygon fill="black" stroke="black" points="781.51,-233.37 791.5,-229.84 781.49,-226.37 781.51,-233.37"/>
</g>
<!-- He3AnalyzerTransmissionFractionParallel&#45;&gt;TransmissionFunction[Analyzer] -->
<g id="edge53" class="edge">
<title>He3AnalyzerTransmissionFractionParallel:e&#45;&gt;TransmissionFunction[Analyzer]:w</title>
<path fill="none" stroke="black" d="M1111.5,-229.84C1145.19,-229.84 1156.08,-229.84 1185.31,-229.84"/>
<polygon fill="black" stroke="black" points="1185.5,-233.34 1195.5,-229.84 1185.5,-226.34 1185.5,-233.34"/>
</g>
<!-- He3CellLength[Analyzer] -->
<g id="node9" class="node">
<title>He3CellLength[Analyzer]</title>
<polygon fill="none" stroke="red" stroke-dasharray="5,2" points="218,-211.34 21,-211.34 21,-188.34 218,-188.34 218,-211.34"/>
<text text-anchor="middle" x="119.5" y="-196.14" font-family="Times,serif" font-size="14.00" fill="red">He3CellLength[Analyzer]</text>
</g>
<!-- He3Opacity0[Analyzer] -->
<g id="node12" class="node">
<title>He3Opacity0[Analyzer]</title>
<polygon fill="none" stroke="black" points="612,-189.34 404,-189.34 404,-156.34 612,-156.34 612,-189.34"/>
<text text-anchor="start" x="425" y="-175.14" font-family="Times,serif" font-size="14.00">He3Opacity0[Analyzer]</text>
<text text-anchor="start" x="412" y="-163.54" font-family="Times,serif" font-size="11.00">via:</text>
<text text-anchor="start" x="433" y="-163.54" font-family="Times,serif" font-style="italic" font-size="11.00">he3_opacity_from_cell_params</text>
</g>
<!-- He3CellLength[Analyzer]&#45;&gt;He3Opacity0[Analyzer] -->
<g id="edge6" class="edge">
<title>He3CellLength[Analyzer]:e&#45;&gt;He3Opacity0[Analyzer]:w</title>
<path fill="none" stroke="black" d="M219.5,-199.84C298.39,-199.84 318.85,-175.11 392.72,-172.98"/>
<polygon fill="black" stroke="black" points="393.05,-176.48 403,-172.84 392.95,-169.48 393.05,-176.48"/>
</g>
<!-- He3CellPressure[Analyzer] -->
<g id="node10" class="node">
<title>He3CellPressure[Analyzer]</title>
<polygon fill="none" stroke="red" stroke-dasharray="5,2" points="224.5,-184.34 14.5,-184.34 14.5,-161.34 224.5,-161.34 224.5,-184.34"/>
<text text-anchor="middle" x="119.5" y="-169.14" font-family="Times,serif" font-size="14.00" fill="red">He3CellPressure[Analyzer]</text>
</g>
<!-- He3CellPressure[Analyzer]&#45;&gt;He3Opacity0[Analyzer] -->
<g id="edge5" class="edge">
<title>He3CellPressure[Analyzer]:e&#45;&gt;He3Opacity0[Analyzer]:w</title>
<path fill="none" stroke="black" d="M225.5,-172.84C300.85,-172.84 322.22,-172.84 392.72,-172.84"/>
<polygon fill="black" stroke="black" points="393,-176.34 403,-172.84 393,-169.34 393,-176.34"/>
</g>
<!-- He3CellTemperature[Analyzer] -->
<g id="node11" class="node">
<title>He3CellTemperature[Analyzer]</title>
<polygon fill="none" stroke="red" stroke-dasharray="5,2" points="239,-157.34 0,-157.34 0,-134.34 239,-134.34 239,-157.34"/>
<text text-anchor="middle" x="119.5" y="-142.14" font-family="Times,serif" font-size="14.00" fill="red">He3CellTemperature[Analyzer]</text>
</g>
<!-- He3CellTemperature[Analyzer]&#45;&gt;He3Opacity0[Analyzer] -->
<g id="edge7" class="edge">
<title>He3CellTemperature[Analyzer]:e&#45;&gt;He3Opacity0[Analyzer]:w</title>
<path fill="none" stroke="black" d="M239,-145.84C309.41,-145.84 327.48,-170.37 392.98,-172.66"/>
<polygon fill="black" stroke="black" points="392.94,-176.16 403,-172.84 393.06,-169.17 392.94,-176.16"/>
</g>
<!-- He3OpacityFunction[Analyzer] -->
<g id="node13" class="node">
<title>He3OpacityFunction[Analyzer]</title>
<polygon fill="none" stroke="black" points="1080,-209.34 823,-209.34 823,-176.34 1080,-176.34 1080,-209.34"/>
<text text-anchor="start" x="841.5" y="-195.14" font-family="Times,serif" font-size="14.00">He3OpacityFunction[Analyzer]</text>
<text text-anchor="start" x="831" y="-183.54" font-family="Times,serif" font-size="11.00">via:</text>
<text text-anchor="start" x="852" y="-183.54" font-family="Times,serif" font-style="italic" font-size="11.00">he3_opacity_function_from_cell_opacity</text>
</g>
<!-- He3Opacity0[Analyzer]&#45;&gt;He3OpacityFunction[Analyzer] -->
<g id="edge8" class="edge">
<title>He3Opacity0[Analyzer]:e&#45;&gt;He3OpacityFunction[Analyzer]:w</title>
<path fill="none" stroke="black" d="M613,-172.84C702.64,-172.84 726.65,-191.38 811.42,-192.76"/>
<polygon fill="black" stroke="black" points="811.47,-196.26 821.5,-192.84 811.53,-189.26 811.47,-196.26"/>
</g>
<!-- He3OpacityFunction[Analyzer]&#45;&gt;TransmissionFunction[Analyzer] -->
<g id="edge55" class="edge">
<title>He3OpacityFunction[Analyzer]:e&#45;&gt;TransmissionFunction[Analyzer]:w</title>
<path fill="none" stroke="black" d="M1081.5,-192.84C1131.23,-192.84 1141.04,-225.09 1185.47,-229.37"/>
<polygon fill="black" stroke="black" points="1185.35,-232.87 1195.5,-229.84 1185.67,-225.87 1185.35,-232.87"/>
</g>
<!-- He3TransmissionEmptyGlass[Analyzer] -->
<g id="node14" class="node">
<title>He3TransmissionEmptyGlass[Analyzer]</title>
<polygon fill="none" stroke="red" stroke-dasharray="5,2" points="1101.5,-310.34 801.5,-310.34 801.5,-287.34 1101.5,-287.34 1101.5,-310.34"/>
<text text-anchor="middle" x="951.5" y="-295.14" font-family="Times,serif" font-size="14.00" fill="red">He3TransmissionEmptyGlass[Analyzer]</text>
</g>
<!-- He3TransmissionEmptyGlass[Analyzer]&#45;&gt;TransmissionFunction[Analyzer] -->
<g id="edge56" class="edge">
<title>He3TransmissionEmptyGlass[Analyzer]:e&#45;&gt;TransmissionFunction[Analyzer]:w</title>
<path fill="none" stroke="black" d="M1102.5,-298.84C1150.35,-298.84 1145.13,-239.2 1185.51,-230.81"/>
<polygon fill="black" stroke="black" points="1185.89,-234.29 1195.5,-229.84 1185.21,-227.33 1185.89,-234.29"/>
</g>
<!-- PolarizationCorrection[Down, Down] -->
<g id="node21" class="node">
<title>PolarizationCorrection[Down, Down]</title>
<polygon fill="none" stroke="black" points="2152,-185.34 2048,-185.34 2048,-164.34 2152,-164.34 2152,-185.34"/>
<text text-anchor="start" x="2056" y="-171.74" font-family="Times,serif" font-size="12.00">[Down, Down]</text>
</g>
<!-- InverseFlipperMatrix[Down, Analyzer]&#45;&gt;PolarizationCorrection[Down, Down] -->
<g id="edge23" class="edge">
<title>InverseFlipperMatrix[Down, Analyzer]:e&#45;&gt;PolarizationCorrection[Down, Down]:w</title>
<path fill="none" stroke="black" d="M1914.5,-438.84C1926.76,-438.84 1928.37,-430.45 1934.5,-419.84 1987.11,-328.79 1916.41,-264.95 1990,-189.84 2005.83,-173.68 2017.28,-174.24 2036.98,-174.7"/>
<polygon fill="black" stroke="black" points="2036.95,-178.2 2047,-174.84 2037.05,-171.2 2036.95,-178.2"/>
</g>
<!-- PolarizationCorrection[Up, Down] -->
<g id="node27" class="node">
<title>PolarizationCorrection[Up, Down]</title>
<polygon fill="none" stroke="black" points="2143,-235.34 2057,-235.34 2057,-214.34 2143,-214.34 2143,-235.34"/>
<text text-anchor="start" x="2065" y="-221.74" font-family="Times,serif" font-size="12.00">[Up, Down]</text>
</g>
<!-- InverseFlipperMatrix[Down, Analyzer]&#45;&gt;PolarizationCorrection[Up, Down] -->
<g id="edge31" class="edge">
<title>InverseFlipperMatrix[Down, Analyzer]:e&#45;&gt;PolarizationCorrection[Up, Down]:w</title>
<path fill="none" stroke="black" d="M1914.5,-438.84C2024.96,-438.84 1947.19,-238 2045.89,-225.45"/>
<polygon fill="black" stroke="black" points="2046.23,-228.94 2056,-224.84 2045.81,-221.95 2046.23,-228.94"/>
</g>
<!-- InverseFlipperMatrix[Down, Polarizer]&#45;&gt;PolarizationCorrection[Down, Down] -->
<g id="edge24" class="edge">
<title>InverseFlipperMatrix[Down, Polarizer]:e&#45;&gt;PolarizationCorrection[Down, Down]:w</title>
<path fill="none" stroke="black" d="M1914.5,-333.84C1986.76,-333.84 1934.07,-235.6 1990,-189.84 2007.42,-175.58 2017.65,-174.75 2036.81,-174.8"/>
<polygon fill="black" stroke="black" points="2036.99,-178.3 2047,-174.84 2037.01,-171.3 2036.99,-178.3"/>
</g>
<!-- PolarizationCorrection[Down, Up] -->
<g id="node24" class="node">
<title>PolarizationCorrection[Down, Up]</title>
<polygon fill="none" stroke="black" points="2143,-160.34 2057,-160.34 2057,-139.34 2143,-139.34 2143,-160.34"/>
<text text-anchor="start" x="2065" y="-146.74" font-family="Times,serif" font-size="12.00">[Down, Up]</text>
</g>
<!-- InverseFlipperMatrix[Down, Polarizer]&#45;&gt;PolarizationCorrection[Down, Up] -->
<g id="edge28" class="edge">
<title>InverseFlipperMatrix[Down, Polarizer]:e&#45;&gt;PolarizationCorrection[Down, Up]:w</title>
<path fill="none" stroke="black" d="M1914.5,-333.84C1996.77,-333.84 1927.4,-218.21 1990,-164.84 2010.12,-147.68 2022.62,-149.1 2045.77,-149.69"/>
<polygon fill="black" stroke="black" points="2045.95,-153.19 2056,-149.84 2046.05,-146.19 2045.95,-153.19"/>
</g>
<!-- InverseFlipperMatrix[Up, Analyzer]&#45;&gt;PolarizationCorrection[Down, Up] -->
<g id="edge27" class="edge">
<title>InverseFlipperMatrix[Up, Analyzer]:e&#45;&gt;PolarizationCorrection[Down, Up]:w</title>
<path fill="none" stroke="black" d="M1906.5,-368.84C1921.54,-368.84 1925.6,-361.96 1934.5,-349.84 1985.28,-280.63 1927.27,-223.44 1990,-164.84 2009.32,-146.79 2022.43,-148.88 2045.74,-149.65"/>
<polygon fill="black" stroke="black" points="2045.94,-153.15 2056,-149.84 2046.07,-146.15 2045.94,-153.15"/>
</g>
<!-- PolarizationCorrection[Up, Up] -->
<g id="node30" class="node">
<title>PolarizationCorrection[Up, Up]</title>
<polygon fill="none" stroke="black" points="2134,-210.34 2066,-210.34 2066,-189.34 2134,-189.34 2134,-210.34"/>
<text text-anchor="start" x="2074" y="-196.74" font-family="Times,serif" font-size="12.00">[Up, Up]</text>
</g>
<!-- InverseFlipperMatrix[Up, Analyzer]&#45;&gt;PolarizationCorrection[Up, Up] -->
<g id="edge35" class="edge">
<title>InverseFlipperMatrix[Up, Analyzer]:e&#45;&gt;PolarizationCorrection[Up, Up]:w</title>
<path fill="none" stroke="black" d="M1906.5,-368.84C1921.54,-368.84 1925.02,-361.51 1934.5,-349.84 1975.41,-299.49 1939.93,-256.08 1990,-214.84 2013.47,-195.5 2027.76,-198.76 2054.85,-199.66"/>
<polygon fill="black" stroke="black" points="2054.94,-203.16 2065,-199.84 2055.06,-196.16 2054.94,-203.16"/>
</g>
<!-- InverseFlipperMatrix[Up, Polarizer]&#45;&gt;PolarizationCorrection[Up, Down] -->
<g id="edge32" class="edge">
<title>InverseFlipperMatrix[Up, Polarizer]:e&#45;&gt;PolarizationCorrection[Up, Down]:w</title>
<path fill="none" stroke="black" d="M1906.5,-403.84C2006.61,-403.84 1956.11,-236.86 2045.92,-225.45"/>
<polygon fill="black" stroke="black" points="2046.23,-228.94 2056,-224.84 2045.81,-221.95 2046.23,-228.94"/>
</g>
<!-- InverseFlipperMatrix[Up, Polarizer]&#45;&gt;PolarizationCorrection[Up, Up] -->
<g id="edge36" class="edge">
<title>InverseFlipperMatrix[Up, Polarizer]:e&#45;&gt;PolarizationCorrection[Up, Up]:w</title>
<path fill="none" stroke="black" d="M1906.5,-403.84C1921.54,-403.84 1925.46,-396.85 1934.5,-384.84 1982.29,-321.33 1930.58,-267.62 1990,-214.84 2012.73,-194.64 2027.61,-198.57 2054.83,-199.63"/>
<polygon fill="black" stroke="black" points="2054.93,-203.13 2065,-199.84 2055.07,-196.13 2054.93,-203.13"/>
</g>
<!-- ReducedSampleDataBySpinChannel[Down, Down] -->
<g id="node19" class="node">
<title>ReducedSampleDataBySpinChannel[Down, Down]</title>
<polygon fill="none" stroke="red" stroke-dasharray="5,2" points="1455.5,-81.34 1351.5,-81.34 1351.5,-60.34 1455.5,-60.34 1455.5,-81.34"/>
<text text-anchor="start" x="1359.5" y="-67.74" font-family="Times,serif" font-size="12.00" fill="red">[Down, Down]</text>
</g>
<!-- PolarizationCorrectedData[Down, Down] -->
<g id="node20" class="node">
<title>PolarizationCorrectedData[Down, Down]</title>
<polygon fill="none" stroke="black" points="2443,-107.34 2339,-107.34 2339,-86.34 2443,-86.34 2443,-107.34"/>
<text text-anchor="start" x="2347" y="-93.74" font-family="Times,serif" font-size="12.00">[Down, Down]</text>
</g>
<!-- ReducedSampleDataBySpinChannel[Down, Down]&#45;&gt;PolarizationCorrectedData[Down, Down] -->
<g id="edge13" class="edge">
<title>ReducedSampleDataBySpinChannel[Down, Down]:e&#45;&gt;PolarizationCorrectedData[Down, Down]:w</title>
<path fill="none" stroke="black" d="M1456.5,-70.84C1528.55,-70.84 1548.28,-75 1618,-56.84 1644.18,-50.02 1647.05,-37.52 1673.5,-31.84 1731.89,-19.29 2155.31,-10.28 2211,-31.84 2242.39,-43.99 2236.94,-67.69 2267,-82.84 2292.47,-95.67 2303.31,-96.75 2327.86,-96.83"/>
<polygon fill="black" stroke="black" points="2328,-100.33 2338,-96.84 2328,-93.33 2328,-100.33"/>
</g>
<!-- PolarizingElementCorrection[Down, Down, Analyzer] -->
<g id="node31" class="node">
<title>PolarizingElementCorrection[Down, Down, Analyzer]</title>
<polygon fill="none" stroke="black" points="1885.5,-160.34 1721.5,-160.34 1721.5,-139.34 1885.5,-139.34 1885.5,-160.34"/>
<text text-anchor="start" x="1729.5" y="-146.74" font-family="Times,serif" font-size="12.00">[Down, Down, Analyzer]</text>
</g>
<!-- ReducedSampleDataBySpinChannel[Down, Down]&#45;&gt;PolarizingElementCorrection[Down, Down, Analyzer] -->
<g id="edge37" class="edge">
<title>ReducedSampleDataBySpinChannel[Down, Down]:e&#45;&gt;PolarizingElementCorrection[Down, Down, Analyzer]:w</title>
<path fill="none" stroke="black" d="M1456.5,-70.84C1528.59,-70.84 1551.97,-56.91 1618,-85.84 1648.41,-99.16 1644.55,-119.59 1673.5,-135.84 1689.24,-144.67 1696.2,-148.47 1710.5,-149.52"/>
<polygon fill="black" stroke="black" points="1710.39,-153.02 1720.5,-149.84 1710.62,-146.02 1710.39,-153.02"/>
</g>
<!-- PolarizingElementCorrection[Down, Down, Polarizer] -->
<g id="node32" class="node">
<title>PolarizingElementCorrection[Down, Down, Polarizer]</title>
<polygon fill="none" stroke="black" points="1886.5,-135.34 1720.5,-135.34 1720.5,-114.34 1886.5,-114.34 1886.5,-135.34"/>
<text text-anchor="start" x="1728.5" y="-121.74" font-family="Times,serif" font-size="12.00">[Down, Down, Polarizer]</text>
</g>
<!-- ReducedSampleDataBySpinChannel[Down, Down]&#45;&gt;PolarizingElementCorrection[Down, Down, Polarizer] -->
<g id="edge39" class="edge">
<title>ReducedSampleDataBySpinChannel[Down, Down]:e&#45;&gt;PolarizingElementCorrection[Down, Down, Polarizer]:w</title>
<path fill="none" stroke="black" d="M1456.5,-70.84C1528.59,-70.84 1548.3,-67.45 1618,-85.84 1661.26,-97.25 1669.99,-120.96 1709.4,-124.41"/>
<polygon fill="black" stroke="black" points="1709.36,-127.91 1719.5,-124.84 1709.66,-120.92 1709.36,-127.91"/>
</g>
<!-- PolarizationCorrection[Down, Down]&#45;&gt;PolarizationCorrectedData[Down, Down] -->
<g id="edge14" class="edge">
<title>PolarizationCorrection[Down, Down]:e&#45;&gt;PolarizationCorrectedData[Down, Down]:w</title>
<path fill="none" stroke="black" d="M2153,-174.84C2179.52,-174.84 2187.45,-173.03 2211,-160.84 2240.37,-145.63 2237.42,-126.62 2267,-111.84 2292.58,-99.05 2303.26,-97.15 2327.84,-96.88"/>
<polygon fill="black" stroke="black" points="2328.01,-100.38 2338,-96.84 2327.99,-93.38 2328.01,-100.38"/>
</g>
<!-- ReducedSampleDataBySpinChannel[Down, Up] -->
<g id="node22" class="node">
<title>ReducedSampleDataBySpinChannel[Down, Up]</title>
<polygon fill="none" stroke="red" stroke-dasharray="5,2" points="1446.5,-56.34 1360.5,-56.34 1360.5,-35.34 1446.5,-35.34 1446.5,-56.34"/>
<text text-anchor="start" x="1368.5" y="-42.74" font-family="Times,serif" font-size="12.00" fill="red">[Down, Up]</text>
</g>
<!-- PolarizationCorrectedData[Down, Up] -->
<g id="node23" class="node">
<title>PolarizationCorrectedData[Down, Up]</title>
<polygon fill="none" stroke="black" points="2434,-82.34 2348,-82.34 2348,-61.34 2434,-61.34 2434,-82.34"/>
<text text-anchor="start" x="2356" y="-68.74" font-family="Times,serif" font-size="12.00">[Down, Up]</text>
</g>
<!-- ReducedSampleDataBySpinChannel[Down, Up]&#45;&gt;PolarizationCorrectedData[Down, Up] -->
<g id="edge15" class="edge">
<title>ReducedSampleDataBySpinChannel[Down, Up]:e&#45;&gt;PolarizationCorrectedData[Down, Up]:w</title>
<path fill="none" stroke="black" d="M1447.5,-45.84C1548.51,-45.84 1572.63,-27.18 1673.5,-21.84 1912.05,-9.21 1975.81,20.03 2211,-21.84 2270.94,-32.51 2281.54,-67.68 2336.92,-71.5"/>
<polygon fill="black" stroke="black" points="2336.89,-75 2347,-71.84 2337.12,-68.01 2336.89,-75"/>
</g>
<!-- PolarizingElementCorrection[Down, Up, Analyzer] -->
<g id="node33" class="node">
<title>PolarizingElementCorrection[Down, Up, Analyzer]</title>
<polygon fill="none" stroke="black" points="1876.5,-110.34 1730.5,-110.34 1730.5,-89.34 1876.5,-89.34 1876.5,-110.34"/>
<text text-anchor="start" x="1738.5" y="-96.74" font-family="Times,serif" font-size="12.00">[Down, Up, Analyzer]</text>
</g>
<!-- ReducedSampleDataBySpinChannel[Down, Up]&#45;&gt;PolarizingElementCorrection[Down, Up, Analyzer] -->
<g id="edge41" class="edge">
<title>ReducedSampleDataBySpinChannel[Down, Up]:e&#45;&gt;PolarizingElementCorrection[Down, Up, Analyzer]:w</title>
<path fill="none" stroke="black" d="M1447.5,-45.84C1523.57,-45.84 1544.4,-41.61 1618,-60.84 1644.18,-67.67 1647.94,-76.97 1673.5,-85.84 1694.14,-93 1701.63,-98.12 1719.24,-99.48"/>
<polygon fill="black" stroke="black" points="1719.38,-102.98 1729.5,-99.84 1719.63,-95.99 1719.38,-102.98"/>
</g>
<!-- PolarizingElementCorrection[Down, Up, Polarizer] -->
<g id="node34" class="node">
<title>PolarizingElementCorrection[Down, Up, Polarizer]</title>
<polygon fill="none" stroke="black" points="1877.5,-85.34 1729.5,-85.34 1729.5,-64.34 1877.5,-64.34 1877.5,-85.34"/>
<text text-anchor="start" x="1737.5" y="-71.74" font-family="Times,serif" font-size="12.00">[Down, Up, Polarizer]</text>
</g>
<!-- ReducedSampleDataBySpinChannel[Down, Up]&#45;&gt;PolarizingElementCorrection[Down, Up, Polarizer] -->
<g id="edge43" class="edge">
<title>ReducedSampleDataBySpinChannel[Down, Up]:e&#45;&gt;PolarizingElementCorrection[Down, Up, Polarizer]:w</title>
<path fill="none" stroke="black" d="M1447.5,-45.84C1523.57,-45.84 1542.36,-52.72 1618,-60.84 1663.66,-65.74 1677.1,-73.59 1718.33,-74.7"/>
<polygon fill="black" stroke="black" points="1718.46,-78.21 1728.5,-74.84 1718.55,-71.21 1718.46,-78.21"/>
</g>
<!-- PolarizationCorrection[Down, Up]&#45;&gt;PolarizationCorrectedData[Down, Up] -->
<g id="edge16" class="edge">
<title>PolarizationCorrection[Down, Up]:e&#45;&gt;PolarizationCorrectedData[Down, Up]:w</title>
<path fill="none" stroke="black" d="M2144,-149.84C2205.42,-149.84 2208.88,-106.7 2267,-86.84 2297.75,-76.33 2308.62,-72.59 2336.75,-71.94"/>
<polygon fill="black" stroke="black" points="2337.04,-75.44 2347,-71.84 2336.96,-68.44 2337.04,-75.44"/>
</g>
<!-- ReducedSampleDataBySpinChannel[Up, Down] -->
<g id="node25" class="node">
<title>ReducedSampleDataBySpinChannel[Up, Down]</title>
<polygon fill="none" stroke="red" stroke-dasharray="5,2" points="1446.5,-131.34 1360.5,-131.34 1360.5,-110.34 1446.5,-110.34 1446.5,-131.34"/>
<text text-anchor="start" x="1368.5" y="-117.74" font-family="Times,serif" font-size="12.00" fill="red">[Up, Down]</text>
</g>
<!-- PolarizationCorrectedData[Up, Down] -->
<g id="node26" class="node">
<title>PolarizationCorrectedData[Up, Down]</title>
<polygon fill="none" stroke="black" points="2434,-157.34 2348,-157.34 2348,-136.34 2434,-136.34 2434,-157.34"/>
<text text-anchor="start" x="2356" y="-143.74" font-family="Times,serif" font-size="12.00">[Up, Down]</text>
</g>
<!-- ReducedSampleDataBySpinChannel[Up, Down]&#45;&gt;PolarizationCorrectedData[Up, Down] -->
<g id="edge17" class="edge">
<title>ReducedSampleDataBySpinChannel[Up, Down]:e&#45;&gt;PolarizationCorrectedData[Up, Down]:w</title>
<path fill="none" stroke="black" d="M1447.5,-120.84C1523.53,-120.84 1548.49,-137.66 1618,-106.84 1648.9,-93.13 1642.06,-67.26 1673.5,-54.84 1727.44,-33.52 1876.88,-48.17 1934.5,-54.84 2024.61,-65.26 2237.83,-141.37 2336.92,-146.56"/>
<polygon fill="black" stroke="black" points="2336.91,-150.06 2347,-146.84 2337.1,-143.06 2336.91,-150.06"/>
</g>
<!-- PolarizingElementCorrection[Up, Down, Analyzer] -->
<g id="node35" class="node">
<title>PolarizingElementCorrection[Up, Down, Analyzer]</title>
<polygon fill="none" stroke="black" points="1876.5,-260.34 1730.5,-260.34 1730.5,-239.34 1876.5,-239.34 1876.5,-260.34"/>
<text text-anchor="start" x="1738.5" y="-246.74" font-family="Times,serif" font-size="12.00">[Up, Down, Analyzer]</text>
</g>
<!-- ReducedSampleDataBySpinChannel[Up, Down]&#45;&gt;PolarizingElementCorrection[Up, Down, Analyzer] -->
<g id="edge45" class="edge">
<title>ReducedSampleDataBySpinChannel[Up, Down]:e&#45;&gt;PolarizingElementCorrection[Up, Down, Analyzer]:w</title>
<path fill="none" stroke="black" d="M1447.5,-120.84C1526.35,-120.84 1551.86,-126.91 1618,-169.84 1650.15,-190.7 1640.99,-215.53 1673.5,-235.84 1692.11,-247.46 1701.09,-249.44 1719.35,-249.77"/>
<polygon fill="black" stroke="black" points="1719.48,-253.27 1729.5,-249.84 1719.52,-246.27 1719.48,-253.27"/>
</g>
<!-- PolarizingElementCorrection[Up, Down, Polarizer] -->
<g id="node36" class="node">
<title>PolarizingElementCorrection[Up, Down, Polarizer]</title>
<polygon fill="none" stroke="black" points="1877.5,-235.34 1729.5,-235.34 1729.5,-214.34 1877.5,-214.34 1877.5,-235.34"/>
<text text-anchor="start" x="1737.5" y="-221.74" font-family="Times,serif" font-size="12.00">[Up, Down, Polarizer]</text>
</g>
<!-- ReducedSampleDataBySpinChannel[Up, Down]&#45;&gt;PolarizingElementCorrection[Up, Down, Polarizer] -->
<g id="edge47" class="edge">
<title>ReducedSampleDataBySpinChannel[Up, Down]:e&#45;&gt;PolarizingElementCorrection[Up, Down, Polarizer]:w</title>
<path fill="none" stroke="black" d="M1447.5,-120.84C1526.35,-120.84 1547.28,-134.97 1618,-169.84 1645.51,-183.4 1645.79,-197.7 1673.5,-210.84 1692.91,-220.04 1700.85,-223.72 1718.36,-224.61"/>
<polygon fill="black" stroke="black" points="1718.42,-228.11 1728.5,-224.84 1718.58,-221.12 1718.42,-228.11"/>
</g>
<!-- PolarizationCorrection[Up, Down]&#45;&gt;PolarizationCorrectedData[Up, Down] -->
<g id="edge18" class="edge">
<title>PolarizationCorrection[Up, Down]:e&#45;&gt;PolarizationCorrectedData[Up, Down]:w</title>
<path fill="none" stroke="black" d="M2144,-224.84C2174.42,-224.84 2182.15,-220.49 2211,-210.84 2271.01,-190.76 2279.42,-151.29 2336.92,-147.18"/>
<polygon fill="black" stroke="black" points="2337.13,-150.68 2347,-146.84 2336.89,-143.68 2337.13,-150.68"/>
</g>
<!-- ReducedSampleDataBySpinChannel[Up, Up] -->
<g id="node28" class="node">
<title>ReducedSampleDataBySpinChannel[Up, Up]</title>
<polygon fill="none" stroke="red" stroke-dasharray="5,2" points="1437.5,-106.34 1369.5,-106.34 1369.5,-85.34 1437.5,-85.34 1437.5,-106.34"/>
<text text-anchor="start" x="1377.5" y="-92.74" font-family="Times,serif" font-size="12.00" fill="red">[Up, Up]</text>
</g>
<!-- PolarizationCorrectedData[Up, Up] -->
<g id="node29" class="node">
<title>PolarizationCorrectedData[Up, Up]</title>
<polygon fill="none" stroke="black" points="2425,-132.34 2357,-132.34 2357,-111.34 2425,-111.34 2425,-132.34"/>
<text text-anchor="start" x="2365" y="-118.74" font-family="Times,serif" font-size="12.00">[Up, Up]</text>
</g>
<!-- ReducedSampleDataBySpinChannel[Up, Up]&#45;&gt;PolarizationCorrectedData[Up, Up] -->
<g id="edge19" class="edge">
<title>ReducedSampleDataBySpinChannel[Up, Up]:e&#45;&gt;PolarizationCorrectedData[Up, Up]:w</title>
<path fill="none" stroke="black" d="M1438.5,-95.84C1518.52,-95.84 1542.86,-109.36 1618,-81.84 1646.55,-71.38 1644.56,-51.18 1673.5,-41.84 1730.38,-23.47 2155.33,-42.07 2211,-63.84 2240.48,-75.36 2237.98,-95.19 2267,-107.84 2300.41,-122.4 2313.56,-122.05 2345.84,-121.87"/>
<polygon fill="black" stroke="black" points="2346.01,-125.37 2356,-121.84 2345.99,-118.37 2346.01,-125.37"/>
</g>
<!-- PolarizingElementCorrection[Up, Up, Analyzer] -->
<g id="node37" class="node">
<title>PolarizingElementCorrection[Up, Up, Analyzer]</title>
<polygon fill="none" stroke="black" points="1867.5,-210.34 1739.5,-210.34 1739.5,-189.34 1867.5,-189.34 1867.5,-210.34"/>
<text text-anchor="start" x="1747.5" y="-196.74" font-family="Times,serif" font-size="12.00">[Up, Up, Analyzer]</text>
</g>
<!-- ReducedSampleDataBySpinChannel[Up, Up]&#45;&gt;PolarizingElementCorrection[Up, Up, Analyzer] -->
<g id="edge49" class="edge">
<title>ReducedSampleDataBySpinChannel[Up, Up]:e&#45;&gt;PolarizingElementCorrection[Up, Up, Analyzer]:w</title>
<path fill="none" stroke="black" d="M1438.5,-95.84C1518.56,-95.84 1548.08,-71.86 1618,-110.84 1654.22,-131.03 1638.65,-163.36 1673.5,-185.84 1695.23,-199.85 1706.07,-200.06 1728.24,-199.89"/>
<polygon fill="black" stroke="black" points="1728.52,-203.39 1738.5,-199.84 1728.48,-196.39 1728.52,-203.39"/>
</g>
<!-- PolarizingElementCorrection[Up, Up, Polarizer] -->
<g id="node38" class="node">
<title>PolarizingElementCorrection[Up, Up, Polarizer]</title>
<polygon fill="none" stroke="black" points="1868.5,-185.34 1738.5,-185.34 1738.5,-164.34 1868.5,-164.34 1868.5,-185.34"/>
<text text-anchor="start" x="1746.5" y="-171.74" font-family="Times,serif" font-size="12.00">[Up, Up, Polarizer]</text>
</g>
<!-- ReducedSampleDataBySpinChannel[Up, Up]&#45;&gt;PolarizingElementCorrection[Up, Up, Polarizer] -->
<g id="edge51" class="edge">
<title>ReducedSampleDataBySpinChannel[Up, Up]:e&#45;&gt;PolarizingElementCorrection[Up, Up, Polarizer]:w</title>
<path fill="none" stroke="black" d="M1438.5,-95.84C1518.56,-95.84 1544.53,-79.05 1618,-110.84 1648.47,-124.02 1643.96,-145.67 1673.5,-160.84 1696.16,-172.47 1705.87,-174.46 1727.45,-174.78"/>
<polygon fill="black" stroke="black" points="1727.48,-178.28 1737.5,-174.84 1727.52,-171.28 1727.48,-178.28"/>
</g>
<!-- PolarizationCorrection[Up, Up]&#45;&gt;PolarizationCorrectedData[Up, Up] -->
<g id="edge20" class="edge">
<title>PolarizationCorrection[Up, Up]:e&#45;&gt;PolarizationCorrectedData[Up, Up]:w</title>
<path fill="none" stroke="black" d="M2135,-199.84C2169.35,-199.84 2180.08,-200.79 2211,-185.84 2240.77,-171.44 2237.12,-151.01 2267,-136.84 2299.99,-121.19 2313.42,-121.6 2345.82,-121.8"/>
<polygon fill="black" stroke="black" points="2345.99,-125.3 2356,-121.84 2346.01,-118.3 2345.99,-125.3"/>
</g>
<!-- PolarizingElementCorrection[Down, Down, Analyzer]&#45;&gt;PolarizationCorrection[Down, Down] -->
<g id="edge21" class="edge">
<title>PolarizingElementCorrection[Down, Down, Analyzer]:e&#45;&gt;PolarizationCorrection[Down, Down]:w</title>
<path fill="none" stroke="black" d="M1886.5,-149.84C1955.17,-149.84 1973.1,-172.46 2036.81,-174.66"/>
<polygon fill="black" stroke="black" points="2036.94,-178.17 2047,-174.84 2037.06,-171.17 2036.94,-178.17"/>
</g>
<!-- PolarizingElementCorrection[Down, Down, Polarizer]&#45;&gt;PolarizationCorrection[Down, Down] -->
<g id="edge22" class="edge">
<title>PolarizingElementCorrection[Down, Down, Polarizer]:e&#45;&gt;PolarizationCorrection[Down, Down]:w</title>
<path fill="none" stroke="black" d="M1887.5,-124.84C1958.31,-124.84 1971.55,-170.26 2036.96,-174.52"/>
<polygon fill="black" stroke="black" points="2036.89,-178.02 2047,-174.84 2037.12,-171.02 2036.89,-178.02"/>
</g>
<!-- PolarizingElementCorrection[Down, Up, Analyzer]&#45;&gt;PolarizationCorrection[Down, Up] -->
<g id="edge25" class="edge">
<title>PolarizingElementCorrection[Down, Up, Analyzer]:e&#45;&gt;PolarizationCorrection[Down, Up]:w</title>
<path fill="none" stroke="black" d="M1877.5,-99.84C1956.35,-99.84 1972.31,-145.63 2045.75,-149.57"/>
<polygon fill="black" stroke="black" points="2045.91,-153.07 2056,-149.84 2046.1,-146.08 2045.91,-153.07"/>
</g>
<!-- PolarizingElementCorrection[Down, Up, Polarizer]&#45;&gt;PolarizationCorrection[Down, Up] -->
<g id="edge26" class="edge">
<title>PolarizingElementCorrection[Down, Up, Polarizer]:e&#45;&gt;PolarizationCorrection[Down, Up]:w</title>
<path fill="none" stroke="black" d="M1878.5,-74.84C1960.63,-74.84 1969.71,-143.81 2045.85,-149.47"/>
<polygon fill="black" stroke="black" points="2045.88,-152.97 2056,-149.84 2046.13,-145.98 2045.88,-152.97"/>
</g>
<!-- PolarizingElementCorrection[Up, Down, Analyzer]&#45;&gt;PolarizationCorrection[Up, Down] -->
<g id="edge29" class="edge">
<title>PolarizingElementCorrection[Up, Down, Analyzer]:e&#45;&gt;PolarizationCorrection[Up, Down]:w</title>
<path fill="none" stroke="black" d="M1877.5,-249.84C1954.01,-249.84 1974.12,-227.03 2045.57,-224.98"/>
<polygon fill="black" stroke="black" points="2046.05,-228.48 2056,-224.84 2045.95,-221.48 2046.05,-228.48"/>
</g>
<!-- PolarizingElementCorrection[Up, Down, Polarizer]&#45;&gt;PolarizationCorrection[Up, Down] -->
<g id="edge30" class="edge">
<title>PolarizingElementCorrection[Up, Down, Polarizer]:e&#45;&gt;PolarizationCorrection[Up, Down]:w</title>
<path fill="none" stroke="black" d="M1878.5,-224.84C1953.85,-224.84 1975.22,-224.84 2045.72,-224.84"/>
<polygon fill="black" stroke="black" points="2046,-228.34 2056,-224.84 2046,-221.34 2046,-228.34"/>
</g>
<!-- PolarizingElementCorrection[Up, Up, Analyzer]&#45;&gt;PolarizationCorrection[Up, Up] -->
<g id="edge33" class="edge">
<title>PolarizingElementCorrection[Up, Up, Analyzer]:e&#45;&gt;PolarizationCorrection[Up, Up]:w</title>
<path fill="none" stroke="black" d="M1868.5,-199.84C1952.25,-199.84 1975.77,-199.84 2054.58,-199.84"/>
<polygon fill="black" stroke="black" points="2055,-203.34 2065,-199.84 2055,-196.34 2055,-203.34"/>
</g>
<!-- PolarizingElementCorrection[Up, Up, Polarizer]&#45;&gt;PolarizationCorrection[Up, Up] -->
<g id="edge34" class="edge">
<title>PolarizingElementCorrection[Up, Up, Polarizer]:e&#45;&gt;PolarizationCorrection[Up, Up]:w</title>
<path fill="none" stroke="black" d="M1869.5,-174.84C1953.5,-174.84 1975.62,-197.83 2054.55,-199.71"/>
<polygon fill="black" stroke="black" points="2054.96,-203.22 2065,-199.84 2055.04,-196.22 2054.96,-203.22"/>
</g>
<!-- TransmissionFunction[Analyzer]&#45;&gt;PolarizingElementCorrection[Down, Down, Analyzer] -->
<g id="edge38" class="edge">
<title>TransmissionFunction[Analyzer]:e&#45;&gt;PolarizingElementCorrection[Down, Down, Analyzer]:w</title>
<path fill="none" stroke="black" d="M1611.5,-229.84C1651.42,-229.84 1639.65,-186.01 1673.5,-164.84 1688.89,-155.21 1695.99,-151.24 1710.42,-150.16"/>
<polygon fill="black" stroke="black" points="1710.62,-153.66 1720.5,-149.84 1710.39,-146.66 1710.62,-153.66"/>
</g>
<!-- TransmissionFunction[Analyzer]&#45;&gt;PolarizingElementCorrection[Down, Up, Analyzer] -->
<g id="edge42" class="edge">
<title>TransmissionFunction[Analyzer]:e&#45;&gt;PolarizingElementCorrection[Down, Up, Analyzer]:w</title>
<path fill="none" stroke="black" d="M1611.5,-229.84C1669.57,-229.84 1627.95,-150.85 1673.5,-114.84 1690.87,-101.1 1700.71,-99.9 1719.49,-99.83"/>
<polygon fill="black" stroke="black" points="1719.5,-103.33 1729.5,-99.84 1719.5,-96.33 1719.5,-103.33"/>
</g>
<!-- TransmissionFunction[Analyzer]&#45;&gt;PolarizingElementCorrection[Up, Down, Analyzer] -->
<g id="edge46" class="edge">
<title>TransmissionFunction[Analyzer]:e&#45;&gt;PolarizingElementCorrection[Up, Down, Analyzer]:w</title>
<path fill="none" stroke="black" d="M1611.5,-229.84C1661.16,-229.84 1674.58,-247.27 1719.43,-249.58"/>
<polygon fill="black" stroke="black" points="1719.42,-253.08 1729.5,-249.84 1719.59,-246.09 1719.42,-253.08"/>
</g>
<!-- TransmissionFunction[Analyzer]&#45;&gt;PolarizingElementCorrection[Up, Up, Analyzer] -->
<g id="edge50" class="edge">
<title>TransmissionFunction[Analyzer]:e&#45;&gt;PolarizingElementCorrection[Up, Up, Analyzer]:w</title>
<path fill="none" stroke="black" d="M1611.5,-229.84C1639.85,-229.84 1645.91,-221.36 1673.5,-214.84 1698.75,-208.87 1706.88,-201.86 1728.38,-200.2"/>
<polygon fill="black" stroke="black" points="1728.63,-203.7 1738.5,-199.84 1728.38,-196.7 1728.63,-203.7"/>
</g>
<!-- TransmissionFunction[Polarizer] -->
<g id="node40" class="node">
<title>TransmissionFunction[Polarizer]</title>
<polygon fill="none" stroke="black" points="1532,-210.34 1275,-210.34 1275,-179.34 1532,-179.34 1532,-210.34"/>
<text text-anchor="start" x="1371.5" y="-197.74" font-family="Times,serif" font-size="12.00">[Polarizer]</text>
<text text-anchor="start" x="1283" y="-186.54" font-family="Times,serif" font-size="11.00">via:</text>
<text text-anchor="start" x="1304" y="-186.54" font-family="Times,serif" font-style="italic" font-size="11.00">get_supermirror_transmission_function</text>
</g>
<!-- TransmissionFunction[Polarizer]&#45;&gt;PolarizingElementCorrection[Down, Down, Polarizer] -->
<g id="edge40" class="edge">
<title>TransmissionFunction[Polarizer]:e&#45;&gt;PolarizingElementCorrection[Down, Down, Polarizer]:w</title>
<path fill="none" stroke="black" d="M1533.5,-194.84C1618.38,-194.84 1630.32,-130.2 1709.5,-125.15"/>
<polygon fill="black" stroke="black" points="1709.61,-128.65 1719.5,-124.84 1709.4,-121.65 1709.61,-128.65"/>
</g>
<!-- TransmissionFunction[Polarizer]&#45;&gt;PolarizingElementCorrection[Down, Up, Polarizer] -->
<g id="edge44" class="edge">
<title>TransmissionFunction[Polarizer]:e&#45;&gt;PolarizingElementCorrection[Down, Up, Polarizer]:w</title>
<path fill="none" stroke="black" d="M1533.5,-194.84C1573.5,-194.84 1585.9,-187.71 1618,-163.84 1650.99,-139.3 1639.49,-112.94 1673.5,-89.84 1691.35,-77.71 1700.31,-75.36 1718.22,-74.93"/>
<polygon fill="black" stroke="black" points="1718.53,-78.43 1728.5,-74.84 1718.47,-71.43 1718.53,-78.43"/>
</g>
<!-- TransmissionFunction[Polarizer]&#45;&gt;PolarizingElementCorrection[Up, Down, Polarizer] -->
<g id="edge48" class="edge">
<title>TransmissionFunction[Polarizer]:e&#45;&gt;PolarizingElementCorrection[Up, Down, Polarizer]:w</title>
<path fill="none" stroke="black" d="M1533.5,-194.84C1617.59,-194.84 1639.09,-222.43 1718.04,-224.69"/>
<polygon fill="black" stroke="black" points="1718.45,-228.2 1728.5,-224.84 1718.55,-221.2 1718.45,-228.2"/>
</g>
<!-- TransmissionFunction[Polarizer]&#45;&gt;PolarizingElementCorrection[Up, Up, Polarizer] -->
<g id="edge52" class="edge">
<title>TransmissionFunction[Polarizer]:e&#45;&gt;PolarizingElementCorrection[Up, Up, Polarizer]:w</title>
<path fill="none" stroke="black" d="M1533.5,-194.84C1621.13,-194.84 1644.64,-176.33 1727.38,-174.92"/>
<polygon fill="black" stroke="black" points="1727.53,-178.42 1737.5,-174.84 1727.47,-171.42 1727.53,-178.42"/>
</g>
<!-- SupermirrorEfficiencyFunction[Polarizer] -->
<g id="node41" class="node">
<title>SupermirrorEfficiencyFunction[Polarizer]</title>
<polygon fill="none" stroke="red" stroke-dasharray="5,2" points="1108,-172.34 795,-172.34 795,-149.34 1108,-149.34 1108,-172.34"/>
<text text-anchor="middle" x="951.5" y="-157.14" font-family="Times,serif" font-size="14.00" fill="red">SupermirrorEfficiencyFunction[Polarizer]</text>
</g>
<!-- SupermirrorEfficiencyFunction[Polarizer]&#45;&gt;TransmissionFunction[Polarizer] -->
<g id="edge57" class="edge">
<title>SupermirrorEfficiencyFunction[Polarizer]:e&#45;&gt;TransmissionFunction[Polarizer]:w</title>
<path fill="none" stroke="black" d="M1109.5,-160.84C1180.45,-160.84 1197.51,-191.72 1263.41,-194.62"/>
<polygon fill="black" stroke="black" points="1263.43,-198.12 1273.5,-194.84 1263.58,-191.12 1263.43,-198.12"/>
</g>
</g>
</svg>
