<?xml version="1.0" encoding="UTF-8" standalone="no"?>
<!DOCTYPE svg PUBLIC "-//W3C//DTD SVG 1.1//EN"
 "http://www.w3.org/Graphics/SVG/1.1/DTD/svg11.dtd">
<!-- Generated by graphviz version 2.43.0 (0)
 -->
<!-- Title: %3 Pages: 1 -->
<svg width="2470pt" height="260pt"
 viewBox="0.00 0.00 2469.90 260.00" xmlns="http://www.w3.org/2000/svg" xmlns:xlink="http://www.w3.org/1999/xlink">
<g id="graph0" class="graph" transform="scale(1 1) rotate(0) translate(4 256)">
<title>%3</title>
<polygon fill="white" stroke="transparent" points="-4,4 -4,-256 2465.9,-256 2465.9,4 -4,4"/>
<!-- He3CellLength[Polarizer] -->
<g id="node1" class="node">
<title>He3CellLength[Polarizer]</title>
<polygon fill="none" stroke="red" stroke-dasharray="5,2" points="219,-252 21,-252 21,-216 219,-216 219,-252"/>
<text text-anchor="middle" x="120" y="-230.3" font-family="Times,serif" font-size="14.00" fill="red">He3CellLength[Polarizer]</text>
</g>
<!-- ess.polarization.he3.he3_opacity_from_cell_params_He3Opacity0[Polarizer] -->
<g id="node6" class="node">
<title>ess.polarization.he3.he3_opacity_from_cell_params_He3Opacity0[Polarizer]</title>
<ellipse fill="none" stroke="black" cx="427.44" cy="-180" rx="151.37" ry="18"/>
<text text-anchor="middle" x="427.44" y="-176.3" font-family="Times,serif" font-size="14.00">he3_opacity_from_cell_params</text>
</g>
<!-- He3CellLength[Polarizer]&#45;&gt;ess.polarization.he3.he3_opacity_from_cell_params_He3Opacity0[Polarizer] -->
<g id="edge2" class="edge">
<title>He3CellLength[Polarizer]&#45;&gt;ess.polarization.he3.he3_opacity_from_cell_params_He3Opacity0[Polarizer]</title>
<path fill="none" stroke="black" d="M219.32,-216.62C255.51,-210.22 296.38,-202.99 332.2,-196.66"/>
<polygon fill="black" stroke="black" points="332.92,-200.09 342.16,-194.9 331.7,-193.19 332.92,-200.09"/>
</g>
<!-- He3CellPressure[Polarizer] -->
<g id="node2" class="node">
<title>He3CellPressure[Polarizer]</title>
<polygon fill="none" stroke="red" stroke-dasharray="5,2" points="226,-198 14,-198 14,-162 226,-162 226,-198"/>
<text text-anchor="middle" x="120" y="-176.3" font-family="Times,serif" font-size="14.00" fill="red">He3CellPressure[Polarizer]</text>
</g>
<!-- He3CellPressure[Polarizer]&#45;&gt;ess.polarization.he3.he3_opacity_from_cell_params_He3Opacity0[Polarizer] -->
<g id="edge1" class="edge">
<title>He3CellPressure[Polarizer]&#45;&gt;ess.polarization.he3.he3_opacity_from_cell_params_He3Opacity0[Polarizer]</title>
<path fill="none" stroke="black" d="M226.11,-180C238.9,-180 252.19,-180 265.55,-180"/>
<polygon fill="black" stroke="black" points="265.78,-183.5 275.78,-180 265.78,-176.5 265.78,-183.5"/>
</g>
<!-- He3CellTemperature[Polarizer] -->
<g id="node3" class="node">
<title>He3CellTemperature[Polarizer]</title>
<polygon fill="none" stroke="red" stroke-dasharray="5,2" points="240,-144 0,-144 0,-108 240,-108 240,-144"/>
<text text-anchor="middle" x="120" y="-122.3" font-family="Times,serif" font-size="14.00" fill="red">He3CellTemperature[Polarizer]</text>
</g>
<!-- He3CellTemperature[Polarizer]&#45;&gt;ess.polarization.he3.he3_opacity_from_cell_params_He3Opacity0[Polarizer] -->
<g id="edge3" class="edge">
<title>He3CellTemperature[Polarizer]&#45;&gt;ess.polarization.he3.he3_opacity_from_cell_params_He3Opacity0[Polarizer]</title>
<path fill="none" stroke="black" d="M223.13,-144.06C258.33,-150.28 297.57,-157.22 332.12,-163.32"/>
<polygon fill="black" stroke="black" points="331.75,-166.81 342.2,-165.11 332.96,-159.92 331.75,-166.81"/>
</g>
<!-- He3CellTransmissionFractionHasPolarizedIncomingBeam -->
<g id="node4" class="node">
<title>He3CellTransmissionFractionHasPolarizedIncomingBeam</title>
<polygon fill="none" stroke="black" points="1685.94,-144 1256.94,-144 1256.94,-108 1685.94,-108 1685.94,-144"/>
<text text-anchor="middle" x="1471.44" y="-122.3" font-family="Times,serif" font-size="14.00">He3CellTransmissionFractionHasPolarizedIncomingBeam</text>
</g>
<!-- ess.polarization.he3.get_he3_transmission_from_fit_to_direct_beam_TransmissionFunction[Polarizer] -->
<g id="node11" class="node">
<title>ess.polarization.he3.get_he3_transmission_from_fit_to_direct_beam_TransmissionFunction[Polarizer]</title>
<ellipse fill="none" stroke="black" cx="1949.42" cy="-99" rx="227.46" ry="18"/>
<text text-anchor="middle" x="1949.42" y="-95.3" font-family="Times,serif" font-size="14.00">get_he3_transmission_from_fit_to_direct_beam</text>
</g>
<!-- He3CellTransmissionFractionHasPolarizedIncomingBeam&#45;&gt;ess.polarization.he3.get_he3_transmission_from_fit_to_direct_beam_TransmissionFunction[Polarizer] -->
<g id="edge10" class="edge">
<title>He3CellTransmissionFractionHasPolarizedIncomingBeam&#45;&gt;ess.polarization.he3.get_he3_transmission_from_fit_to_direct_beam_TransmissionFunction[Polarizer]</title>
<path fill="none" stroke="black" d="M1686.06,-113.88C1708.67,-112.6 1731.58,-111.3 1753.96,-110.03"/>
<polygon fill="black" stroke="black" points="1754.41,-113.51 1764.2,-109.45 1754.01,-106.52 1754.41,-113.51"/>
</g>
<!-- He3CellTransmissionFraction[Polarizer, Polarized] -->
<g id="node5" class="node">
<title>He3CellTransmissionFraction[Polarizer, Polarized]</title>
<polygon fill="none" stroke="red" stroke-dasharray="5,2" points="1659.94,-90 1282.94,-90 1282.94,-54 1659.94,-54 1659.94,-90"/>
<text text-anchor="middle" x="1471.44" y="-68.3" font-family="Times,serif" font-size="14.00" fill="red">He3CellTransmissionFraction[Polarizer, Polarized]</text>
</g>
<!-- He3CellTransmissionFraction[Polarizer, Polarized]&#45;&gt;ess.polarization.he3.get_he3_transmission_from_fit_to_direct_beam_TransmissionFunction[Polarizer] -->
<g id="edge7" class="edge">
<title>He3CellTransmissionFraction[Polarizer, Polarized]&#45;&gt;ess.polarization.he3.get_he3_transmission_from_fit_to_direct_beam_TransmissionFunction[Polarizer]</title>
<path fill="none" stroke="black" d="M1660.22,-82.65C1691.07,-84.4 1723.1,-86.22 1754.11,-87.98"/>
<polygon fill="black" stroke="black" points="1753.95,-91.47 1764.13,-88.55 1754.35,-84.49 1753.95,-91.47"/>
</g>
<!-- He3Opacity0[Polarizer] -->
<g id="node7" class="node">
<title>He3Opacity0[Polarizer]</title>
<polygon fill="none" stroke="black" points="798.87,-198 614.87,-198 614.87,-162 798.87,-162 798.87,-198"/>
<text text-anchor="middle" x="706.87" y="-176.3" font-family="Times,serif" font-size="14.00">He3Opacity0[Polarizer]</text>
</g>
<!-- ess.polarization.he3.he3_opacity_from_cell_params_He3Opacity0[Polarizer]&#45;&gt;He3Opacity0[Polarizer] -->
<g id="edge4" class="edge">
<title>ess.polarization.he3.he3_opacity_from_cell_params_He3Opacity0[Polarizer]&#45;&gt;He3Opacity0[Polarizer]</title>
<path fill="none" stroke="black" d="M578.93,-180C587.62,-180 596.25,-180 604.69,-180"/>
<polygon fill="black" stroke="black" points="604.86,-183.5 614.86,-180 604.86,-176.5 604.86,-183.5"/>
</g>
<!-- ess.polarization.he3.he3_opacity_function_from_cell_opacity_He3OpacityFunction[Polarizer] -->
<g id="node8" class="node">
<title>ess.polarization.he3.he3_opacity_function_from_cell_opacity_He3OpacityFunction[Polarizer]</title>
<ellipse fill="none" stroke="black" cx="1027.91" cy="-180" rx="193.07" ry="18"/>
<text text-anchor="middle" x="1027.91" y="-176.3" font-family="Times,serif" font-size="14.00">he3_opacity_function_from_cell_opacity</text>
</g>
<!-- He3Opacity0[Polarizer]&#45;&gt;ess.polarization.he3.he3_opacity_function_from_cell_opacity_He3OpacityFunction[Polarizer] -->
<g id="edge5" class="edge">
<title>He3Opacity0[Polarizer]&#45;&gt;ess.polarization.he3.he3_opacity_function_from_cell_opacity_He3OpacityFunction[Polarizer]</title>
<path fill="none" stroke="black" d="M799.3,-180C807.43,-180 815.86,-180 824.47,-180"/>
<polygon fill="black" stroke="black" points="824.66,-183.5 834.66,-180 824.66,-176.5 824.66,-183.5"/>
</g>
<!-- He3OpacityFunction[Polarizer] -->
<g id="node9" class="node">
<title>He3OpacityFunction[Polarizer]</title>
<polygon fill="none" stroke="black" points="1590.44,-198 1352.44,-198 1352.44,-162 1590.44,-162 1590.44,-198"/>
<text text-anchor="middle" x="1471.44" y="-176.3" font-family="Times,serif" font-size="14.00">He3OpacityFunction[Polarizer]</text>
</g>
<!-- ess.polarization.he3.he3_opacity_function_from_cell_opacity_He3OpacityFunction[Polarizer]&#45;&gt;He3OpacityFunction[Polarizer] -->
<g id="edge6" class="edge">
<title>ess.polarization.he3.he3_opacity_function_from_cell_opacity_He3OpacityFunction[Polarizer]&#45;&gt;He3OpacityFunction[Polarizer]</title>
<path fill="none" stroke="black" d="M1220.96,-180C1261.95,-180 1304.28,-180 1342.18,-180"/>
<polygon fill="black" stroke="black" points="1342.23,-183.5 1352.22,-180 1342.22,-176.5 1342.23,-183.5"/>
</g>
<!-- He3OpacityFunction[Polarizer]&#45;&gt;ess.polarization.he3.get_he3_transmission_from_fit_to_direct_beam_TransmissionFunction[Polarizer] -->
<g id="edge8" class="edge">
<title>He3OpacityFunction[Polarizer]&#45;&gt;ess.polarization.he3.get_he3_transmission_from_fit_to_direct_beam_TransmissionFunction[Polarizer]</title>
<path fill="none" stroke="black" d="M1590.69,-166.7C1621.75,-162.75 1655.16,-158.1 1685.94,-153 1745.53,-143.12 1812.2,-129.37 1863.43,-118.22"/>
<polygon fill="black" stroke="black" points="1864.44,-121.58 1873.47,-116.02 1862.95,-114.74 1864.44,-121.58"/>
</g>
<!-- He3TransmissionEmptyGlass[Polarizer] -->
<g id="node10" class="node">
<title>He3TransmissionEmptyGlass[Polarizer]</title>
<polygon fill="none" stroke="red" stroke-dasharray="5,2" points="1622.44,-36 1320.44,-36 1320.44,0 1622.44,0 1622.44,-36"/>
<text text-anchor="middle" x="1471.44" y="-14.3" font-family="Times,serif" font-size="14.00" fill="red">He3TransmissionEmptyGlass[Polarizer]</text>
</g>
<!-- He3TransmissionEmptyGlass[Polarizer]&#45;&gt;ess.polarization.he3.get_he3_transmission_from_fit_to_direct_beam_TransmissionFunction[Polarizer] -->
<g id="edge9" class="edge">
<title>He3TransmissionEmptyGlass[Polarizer]&#45;&gt;ess.polarization.he3.get_he3_transmission_from_fit_to_direct_beam_TransmissionFunction[Polarizer]</title>
<path fill="none" stroke="black" d="M1622.54,-35.5C1643.86,-38.42 1665.48,-41.61 1685.94,-45 1745.53,-54.88 1812.2,-68.63 1863.43,-79.78"/>
<polygon fill="black" stroke="black" points="1862.95,-83.26 1873.47,-81.98 1864.44,-76.42 1862.95,-83.26"/>
</g>
<!-- TransmissionFunction[Polarizer] -->
<g id="node12" class="node">
<title>TransmissionFunction[Polarizer]</title>
<polygon fill="none" stroke="black" points="2461.9,-117 2212.9,-117 2212.9,-81 2461.9,-81 2461.9,-117"/>
<text text-anchor="middle" x="2337.4" y="-95.3" font-family="Times,serif" font-size="14.00">TransmissionFunction[Polarizer]</text>
</g>
<!-- ess.polarization.he3.get_he3_transmission_from_fit_to_direct_beam_TransmissionFunction[Polarizer]&#45;&gt;TransmissionFunction[Polarizer] -->
<g id="edge11" class="edge">
<title>ess.polarization.he3.get_he3_transmission_from_fit_to_direct_beam_TransmissionFunction[Polarizer]&#45;&gt;TransmissionFunction[Polarizer]</title>
<path fill="none" stroke="black" d="M2177.18,-99C2185.81,-99 2194.35,-99 2202.73,-99"/>
<polygon fill="black" stroke="black" points="2202.85,-102.5 2212.85,-99 2202.85,-95.5 2202.85,-102.5"/>
</g>
</g>
</svg>
